<svg xmlns="http://www.w3.org/2000/svg" width="110" height="110" fill="none" viewBox="0 0 110 110">
    <path fill="#EF0033" stroke="#000" stroke-miterlimit="10" stroke-width="2" d="M19.63 86.454s-4.67 15.375 11.41 20.674c6.68 2.205 13.83 1.885 20.77 1.815 6.25-.059 12.51-.129 18.76-.189 5.29-.05 10.93.13 15.57-2.794 4.48-2.893 4.99-6.854 5.71-15.585.51-6.226.08-35.35-9.1-37.805-10.9-2.914-13.51 6.555-19.3 6.415-5.81-.14-7.48-4.928-12.62-6.545-7.62-2.395-11.97 5.528-15.51 10.626-5.55 7.972-12.84 14.508-15.69 23.388z"/>
    <path stroke="#000" stroke-linecap="round" stroke-linejoin="round" stroke-miterlimit="10" stroke-width="2" d="M54.44 71.028s-1.42-3.721-5.46-5.956M63.49 73.243s2.84-2.584 7.22-2.564"/>
    <path stroke="#000" stroke-linecap="round" stroke-miterlimit="10" stroke-width="2" d="M53.47 76.517l9.93-.23M62.33 75.11l2.46 2.893"/>
    <path stroke="#000" stroke-linecap="round" stroke-linejoin="round" stroke-miterlimit="10" stroke-width="2" d="M57.39 69.442l-.55 2.185"/>
</svg>
