<svg xmlns="http://www.w3.org/2000/svg" width="110" height="110" fill="none" viewBox="0 0 110 110">
    <path fill="#EF0033" stroke="#000" stroke-miterlimit="10" stroke-width="2" d="M7.194 81.315s-5.69 18.872 13.91 25.384c8.14 2.703 16.86 2.321 25.32 2.23 7.63-.08 15.25-.16 22.88-.231 6.44-.07 13.33.161 18.99-3.426 5.46-3.558 6.09-8.421 6.97-19.144.63-7.637.09-43.411-11.1-46.426-13.29-3.587-16.48 8.05-23.53 7.879-7.08-.171-9.12-6.05-15.39-8.04-9.29-2.944-14.6 6.793-18.91 13.044-6.77 9.808-15.66 17.837-19.14 28.73z"/>
    <path stroke="#000" stroke-linecap="round" stroke-linejoin="round" stroke-miterlimit="10" stroke-width="2" d="M49.644 62.383s-1.74-4.573-6.65-7.316M60.674 65.096s3.47-3.176 8.81-3.145"/>
    <path stroke="#000" stroke-linecap="round" stroke-miterlimit="10" stroke-width="2" d="M48.454 69.115l12.11-.27M59.264 67.397l2.99 3.547"/>
    <path stroke="#000" stroke-linecap="round" stroke-linejoin="round" stroke-miterlimit="10" stroke-width="2" d="M53.234 60.433l-.68 2.683"/>
    <path fill="#FFD817" stroke="#000" stroke-linecap="round" stroke-linejoin="round" stroke-miterlimit="10" stroke-width="1.5" d="M105.864 74.622s-.2 25.987-2.44 28.138c-2.24 2.15-23.62.924-24.13.713-.51-.201-4.07-20.53-3.26-28.55.13-1.235 20.46-9.003 29.83-.3z"/>
    <path fill="#fff" stroke="#000" stroke-linecap="round" stroke-linejoin="round" stroke-miterlimit="10" stroke-width="1.5" d="M72.874 68.07c1.22-3.064 4.28-1.839 4.58-1.437.31.412-.41-2.863 1.83-3.376 2.24-.512 3.77.713 4.07 1.226 0 0 .71-3.176 4.07-3.065 3.36.1 4.28 1.638 4.28 1.94 0 .3 1.83-2.352 4.17-2.151 2.34.2 3.46 2.25 3.46 2.964s1.93-2.844 5.04-1.437c1.33.603 1.86 1.628 2 2.684 1.03.381 1.77 1.366 1.77 2.532 0 .482-.14.934-.36 1.326.66.633 1.14 1.558.61 2.764-1.12 2.562-3.87 2.663-4.58 2.351 0 0-2.75 2.864-5.5.312 0 0-2.85 3.276-6.01.613 0 0-3.77 3.376-6.72 0 0 0-3.87 3.376-6.11-.412 0 0-3.37 1.97-4.45-.473-.03 0-.05.01-.08.01-1.24 0-2.24-1.005-2.24-2.25 0-.403.12-.784.3-1.116-.41-.734-.63-1.749-.13-3.005z"/>
    <path fill="#fff" stroke="#000" stroke-miterlimit="10" stroke-width="1.5" d="M77.444 95.173c-.3-.03-5.58.482-5.74-6.17-.11-4.673 4.34-6 4.34-6l-.36-4.904s-8.58 1.377-8.58 11.094c0 9.718 10.39 10.13 10.95 10.18l-.61-4.2z"/>
    <path stroke="#000" stroke-linecap="round" stroke-linejoin="round" stroke-miterlimit="10" stroke-width="1.5" d="M84.994 85.164l.84 9.516M90.894 85.144l.12 9.556M96.734 85.154l-.68 9.536"/>
    <path fill="#606060" stroke="#000" stroke-linecap="round" stroke-linejoin="round" stroke-miterlimit="10" stroke-width="1.5" d="M13.294 85.264l9.37-2.351c2.92-.734 4.7-3.708 3.97-6.643l-5.52-22.178c-.73-2.934-3.69-4.723-6.61-3.99l-9.37 2.352c-2.92.734-4.7 3.708-3.97 6.643l5.52 22.178c.72 2.934 3.68 4.723 6.61 3.99z"/>
    <path fill="#fff" stroke="#000" stroke-linejoin="round" stroke-miterlimit="10" stroke-width="1.5" d="M12.154 73.99l6.24-1.568c1.69-.422 2.72-2.15 2.3-3.85l-3.11-12.49c-.42-1.698-2.14-2.733-3.83-2.311l-6.24 1.567c-1.69.422-2.72 2.15-2.3 3.85l3.11 12.49c.42 1.708 2.13 2.743 3.83 2.311zM16.854 80.752c1.16 0 2.1-.945 2.1-2.11 0-1.166-.94-2.11-2.1-2.11-1.16 0-2.1.944-2.1 2.11 0 1.165.94 2.11 2.1 2.11z"/>
</svg>
