<svg xmlns="http://www.w3.org/2000/svg" width="110" height="110" fill="none" viewBox="0 0 110 110">
    <path fill="#EF0033" stroke="#000" stroke-miterlimit="10" stroke-width="2" d="M10.768 81.315s-5.69 18.872 13.91 25.384c8.14 2.703 16.86 2.321 25.32 2.23 7.63-.08 15.25-.16 22.88-.231 6.44-.07 13.33.161 18.99-3.426 5.46-3.558 6.09-8.421 6.97-19.144.63-7.637.09-43.411-11.1-46.426-13.29-3.587-16.47 8.05-23.53 7.879-7.08-.171-9.12-6.05-15.39-8.04-9.29-2.944-14.6 6.793-18.91 13.044-6.76 9.798-15.66 17.827-19.14 28.73z"/>
    <path stroke="#000" stroke-linecap="round" stroke-linejoin="round" stroke-miterlimit="10" stroke-width="2" d="M53.218 62.373s-1.74-4.573-6.65-7.316M64.258 65.086s3.47-3.176 8.81-3.146"/>
    <path stroke="#000" stroke-linecap="round" stroke-miterlimit="10" stroke-width="2" d="M52.038 69.105l12.11-.271M62.838 67.387l3 3.557"/>
    <path stroke="#000" stroke-linecap="round" stroke-linejoin="round" stroke-miterlimit="10" stroke-width="2" d="M56.808 60.433l-.67 2.683"/>
</svg>
