<svg xmlns="http://www.w3.org/2000/svg" width="110" height="110" fill="none" viewBox="0 0 110 110">
    <path fill="#EF0033" stroke="#000" stroke-miterlimit="10" stroke-width="2" d="M4.768 81.487s-5.69 18.755 13.91 25.226c8.14 2.686 16.86 2.307 25.32 2.217 7.63-.08 15.25-.16 22.88-.23 6.44-.07 13.33.16 18.99-3.405 5.46-3.536 6.09-8.369 6.97-19.025.63-7.59.09-43.141-11.1-46.137-13.29-3.565-16.48 7.999-23.53 7.83-7.08-.17-9.12-6.013-15.39-7.99-9.29-2.926-14.6 6.75-18.91 12.962-6.77 9.747-15.66 17.727-19.14 28.552z"/>
    <path stroke="#000" stroke-linecap="round" stroke-linejoin="round" stroke-miterlimit="10" stroke-width="2" d="M47.218 62.672s-1.74-4.544-6.65-7.27M58.248 65.369s3.47-3.156 8.81-3.126"/>
    <path stroke="#000" stroke-linecap="round" stroke-miterlimit="10" stroke-width="2" d="M46.028 69.364l12.11-.27M56.838 67.656l2.99 3.525"/>
    <path stroke="#000" stroke-linecap="round" stroke-linejoin="round" stroke-miterlimit="10" stroke-width="2" d="M50.808 60.735l-.68 2.666"/>
    <path fill="#FFD817" stroke="#000" stroke-linecap="round" stroke-linejoin="round" stroke-miterlimit="10" stroke-width="1.5" d="M103.438 74.836s-.2 25.825-2.44 27.962c-2.24 2.137-23.62.919-24.13.709-.51-.2-4.07-20.402-3.26-28.372.13-1.228 20.46-8.947 29.83-.3z"/>
    <path fill="#fff" stroke="#000" stroke-linecap="round" stroke-linejoin="round" stroke-miterlimit="10" stroke-width="1.5" d="M70.448 68.325c1.22-3.046 4.28-1.828 4.58-1.428.31.41-.41-2.847 1.83-3.356 2.24-.51 3.77.71 4.07 1.219 0 0 .71-3.156 4.07-3.046 3.36.1 4.28 1.628 4.28 1.927 0 .3 1.83-2.337 4.17-2.137 2.34.2 3.46 2.237 3.46 2.946 0 .71 1.93-2.826 5.04-1.428 1.33.6 1.86 1.618 2 2.666 1.03.38 1.77 1.358 1.77 2.517 0 .48-.14.929-.36 1.318.66.63 1.14 1.548.61 2.746-1.12 2.547-3.87 2.647-4.58 2.337 0 0-2.75 2.846-5.5.31 0 0-2.85 3.255-6.01.609 0 0-3.77 3.355-6.72 0 0 0-3.87 3.355-6.11-.41 0 0-3.37 1.958-4.45-.469-.03 0-.05.01-.08.01-1.24 0-2.24-.998-2.24-2.237 0-.4.12-.779.3-1.108-.41-.73-.63-1.738-.13-2.986z"/>
    <path fill="#fff" stroke="#000" stroke-miterlimit="10" stroke-width="1.5" d="M75.018 95.258c-.3-.03-5.58.48-5.74-6.131-.11-4.644 4.34-5.962 4.34-5.962l-.36-4.874s-8.58 1.368-8.58 11.025 10.39 10.067 10.95 10.117l-.61-4.175z"/>
    <path stroke="#000" stroke-linecap="round" stroke-linejoin="round" stroke-miterlimit="10" stroke-width="1.5" d="M82.568 85.312l.84 9.457M88.468 85.292l.12 9.497M94.308 85.302l-.68 9.477"/>
    <path fill="#fff" stroke="#000" stroke-linecap="round" stroke-linejoin="round" stroke-miterlimit="10" stroke-width="1.5" d="M50.478 31.055l7.65 11.964 1.97-10.506c2.76.51 5.45-1.238 6.06-3.994.41-1.828-.22-3.646-1.47-4.864 2.34-.799 4.22-2.736 4.8-5.323.87-3.944-1.62-7.85-5.57-8.728-1.64-.36-3.26-.12-4.67.55-.25-3.316-2.6-6.222-6.02-6.971-4.18-.919-8.31 1.717-9.23 5.882-.06.29-.07.579-.1.869-1.02-1.428-2.53-2.517-4.37-2.926-3.95-.87-7.86 1.617-8.73 5.562-.87 3.945 1.62 7.85 5.57 8.728.68.15 1.35.17 2.02.13-.31 4.474 2.68 8.618 7.19 9.607 1.91.43 3.21.74 4.9.02z"/>
    <path fill="#fff" d="M40.988 17.354l.94-2.247 3.47 6.75 1.78-5.442 1.22 1.688 2.26-6.282 1.78 10.596.66-5.812 2.63 1.877 2.25-4.594 1.59 10.586 1.22-5.243"/>
    <path stroke="#000" stroke-linecap="round" stroke-linejoin="round" stroke-miterlimit="10" stroke-width="1.5" d="M40.988 17.354l.94-2.247 3.47 6.75 1.78-5.442 1.22 1.688 2.26-6.282 1.78 10.596.66-5.812 2.63 1.877 2.25-4.594 1.59 10.586 1.22-5.243"/>
</svg>
