<svg xmlns="http://www.w3.org/2000/svg" width="110" height="110" fill="none" viewBox="0 0 110 110">
    <path fill="#EF0033" stroke="#000" stroke-miterlimit="10" stroke-width="2" d="M6.71 81.487s-5.69 18.755 13.91 25.226c8.14 2.686 16.86 2.307 25.32 2.217 7.63-.08 15.25-.16 22.88-.23 6.44-.07 13.33.16 18.99-3.405 5.46-3.535 6.09-8.369 6.97-19.025.63-7.59.09-43.141-11.1-46.137-13.29-3.565-16.48 7.999-23.53 7.83-7.08-.17-9.12-6.013-15.39-7.99-9.29-2.926-14.6 6.75-18.91 12.962-6.77 9.747-15.66 17.727-19.14 28.552z"/>
    <path stroke="#000" stroke-linecap="round" stroke-linejoin="round" stroke-miterlimit="10" stroke-width="2" d="M49.16 62.663s-1.74-4.544-6.65-7.27M60.19 65.369s3.47-3.156 8.81-3.126"/>
    <path stroke="#000" stroke-linecap="round" stroke-miterlimit="10" stroke-width="2" d="M47.97 69.354l12.11-.27M58.78 67.646l2.99 3.535"/>
    <path stroke="#000" stroke-linecap="round" stroke-linejoin="round" stroke-miterlimit="10" stroke-width="2" d="M52.75 60.735l-.68 2.667"/>
    <path fill="#fff" stroke="#000" stroke-linecap="round" stroke-linejoin="round" stroke-miterlimit="10" stroke-width="1.5" d="M52.42 31.055l7.65 11.964 1.97-10.506c2.76.51 5.45-1.238 6.06-3.994.41-1.828-.22-3.646-1.47-4.864 2.34-.799 4.22-2.736 4.8-5.323.87-3.944-1.62-7.85-5.57-8.728-1.64-.36-3.26-.12-4.67.55-.25-3.316-2.6-6.222-6.02-6.971-4.18-.919-8.31 1.717-9.23 5.882-.06.29-.07.579-.1.869-1.02-1.428-2.53-2.517-4.37-2.926-3.95-.87-7.86 1.617-8.73 5.562-.87 3.945 1.62 7.85 5.57 8.728.68.15 1.35.17 2.02.13-.31 4.474 2.68 8.618 7.19 9.607 1.91.43 3.21.73 4.9.02z"/>
    <path fill="#fff" d="M42.93 17.354l.94-2.257 3.47 6.75 1.78-5.432 1.22 1.688 2.26-6.282 1.78 10.596.66-5.812 2.63 1.867 2.25-4.594 1.59 10.596 1.22-5.253"/>
    <path stroke="#000" stroke-linecap="round" stroke-linejoin="round" stroke-miterlimit="10" stroke-width="1.5" d="M42.93 17.354l.94-2.257 3.47 6.75 1.78-5.432 1.22 1.688 2.26-6.282 1.78 10.596.66-5.812 2.63 1.867 2.25-4.594 1.59 10.596 1.22-5.253"/>
    <path fill="#EF0033" stroke="#000" stroke-linejoin="round" stroke-miterlimit="10" stroke-width="1.5" d="M91.84 35.08c0 .34 0 .679.01 1.028 0 .18-.05.3-.25.32-1.61.13-3.2.04-4.78-.34-.27-.07-.33-.22-.27-.449.27-1.198.53-2.407.84-3.595.33-1.268.83-2.457 1.58-3.545.77-1.109 1.77-1.868 3.12-2.137.91-.18 1.82-.12 2.72.07 1.57.329 3.02.978 4.42 1.727.63.34 1.241.71 1.871 1.059.24.13.25.3.14.509-.6 1.108-1.19 2.217-1.8 3.315-.22.4-.51.77-.77 1.149-.17.25-.32.26-.54.05-.86-.829-1.75-1.628-2.75-2.287-.53-.35-1.09-.67-1.73-.769-.6-.09-1.03.13-1.32.65-.29.518-.4 1.088-.45 1.657-.05.53-.05 1.058-.07 1.588h.03zM78.87 24.125c-.34-.06-.67-.12-1.01-.17-.18-.03-.29-.11-.27-.3.15-1.608.52-3.156 1.16-4.634.11-.26.28-.28.49-.19 1.14.48 2.28.94 3.4 1.449 1.19.539 2.28 1.248 3.22 2.167.96.948 1.54 2.067 1.57 3.435.02.929-.2 1.808-.54 2.666-.6 1.489-1.49 2.797-2.47 4.055-.44.56-.92 1.099-1.37 1.648-.17.21-.34.2-.52.05-.99-.78-1.98-1.548-2.95-2.347-.36-.29-.67-.63-1-.959-.22-.21-.21-.36.04-.539.97-.7 1.91-1.438 2.73-2.307.44-.47.85-.949 1.06-1.578.19-.569.05-1.028-.42-1.408-.46-.37-1-.58-1.56-.729-.51-.14-1.03-.23-1.55-.35-.01.01-.01.03-.01.04zM102.691 20.75c.34-.01.68-.02 1.02-.04.18-.01.31.04.33.239.18 1.598.14 3.196-.19 4.773-.06.28-.21.33-.44.29-1.21-.23-2.42-.45-3.62-.719-1.28-.29-2.49-.759-3.59-1.468-1.13-.729-1.93-1.708-2.24-3.046-.21-.899-.18-1.807-.02-2.716.28-1.578.89-3.046 1.59-4.474.32-.64.68-1.258 1-1.898.12-.25.29-.26.5-.15 1.13.56 2.25 1.12 3.37 1.698.41.21.78.48 1.17.73.25.16.27.309.07.529-.81.888-1.58 1.797-2.21 2.816-.33.55-.64 1.108-.71 1.757-.07.6.16 1.02.69 1.299.53.27 1.1.36 1.68.4.53.03 1.06.02 1.59.03.01-.02.01-.04.01-.05zM83.69 13.34c-.27-.21-.54-.41-.81-.63-.14-.11-.27-.14-.4 0-1.07 1.198-1.97 2.527-2.62 4.005-.11.26-.02.39.19.489 1.12.51 2.23 1.029 3.37 1.508 1.21.5 2.47.829 3.78.889 1.34.06 2.56-.28 3.59-1.179.7-.609 1.2-1.368 1.59-2.207.68-1.448 1.04-2.996 1.3-4.564.11-.709.18-1.418.29-2.127.04-.27-.09-.38-.32-.42-1.24-.189-2.48-.399-3.73-.568-.45-.06-.92-.06-1.38-.08-.3-.01-.4.09-.37.39.14 1.188.25 2.376.16 3.574-.04.64-.12 1.269-.44 1.848-.29.53-.72.739-1.32.659-.59-.09-1.11-.34-1.6-.65-.45-.279-.87-.598-1.31-.898.01-.02.02-.03.03-.04zM15.77 50.828c0 .26 0 .52.01.77 0 .14-.04.229-.19.239-1.22.1-2.42.03-3.61-.26-.21-.05-.25-.17-.21-.34.21-.908.4-1.817.63-2.716.25-.958.63-1.857 1.19-2.676.58-.839 1.34-1.418 2.35-1.618.69-.14 1.37-.09 2.05.05 1.19.25 2.28.74 3.34 1.308.48.25.94.54 1.41.8.18.1.19.229.11.379-.45.839-.9 1.677-1.36 2.506-.17.3-.38.58-.58.87-.13.189-.24.199-.4.04-.65-.63-1.32-1.23-2.08-1.728-.4-.27-.82-.51-1.31-.58-.45-.07-.78.1-1 .49-.22.39-.3.819-.34 1.258-.04.4-.04.799-.06 1.198.03.01.04.01.05.01zM5.97 42.55c-.25-.04-.51-.09-.76-.13-.13-.02-.22-.08-.21-.23.12-1.208.39-2.387.88-3.505.09-.2.21-.21.37-.15.86.36 1.72.71 2.57 1.089.9.41 1.72.938 2.43 1.637.72.71 1.16 1.558 1.19 2.597.02.699-.15 1.368-.41 2.007-.45 1.119-1.13 2.117-1.87 3.066-.33.43-.69.829-1.03 1.248-.13.16-.26.15-.4.04-.75-.589-1.5-1.168-2.23-1.767-.27-.22-.5-.48-.75-.72-.16-.16-.15-.269.03-.409.73-.529 1.44-1.088 2.07-1.747.33-.35.64-.72.8-1.189.14-.43.04-.779-.31-1.068-.35-.28-.76-.44-1.18-.55-.39-.11-.78-.18-1.17-.26-.02.02-.02.03-.02.04zM23.96 40.003l.77-.03c.14-.01.23.03.25.18.13 1.208.11 2.416-.14 3.605-.04.21-.16.25-.33.22-.91-.18-1.83-.34-2.74-.55-.96-.22-1.88-.569-2.72-1.108-.85-.55-1.46-1.288-1.69-2.297-.16-.68-.13-1.368-.01-2.047.21-1.189.67-2.297 1.2-3.376.24-.48.51-.949.76-1.428.09-.19.22-.2.38-.12.85.42 1.7.84 2.55 1.279.31.16.59.37.88.549.19.12.21.23.05.4-.61.669-1.19 1.358-1.67 2.127-.25.409-.48.838-.54 1.328-.05.45.12.769.52.978.4.2.83.27 1.27.3.4.03.8.01 1.2.02.01-.01.01-.02.01-.03zM9.61 34.4c-.2-.16-.41-.309-.61-.469-.11-.08-.21-.11-.31 0-.81.91-1.49 1.908-1.98 3.026-.09.2-.01.3.14.37.85.38 1.69.779 2.55 1.138.91.38 1.86.62 2.86.67 1.02.05 1.94-.21 2.71-.89.53-.459.9-1.038 1.2-1.667.52-1.099.79-2.257.98-3.446.09-.529.14-1.068.22-1.607.03-.21-.06-.29-.24-.32-.94-.15-1.88-.3-2.82-.43-.34-.05-.69-.04-1.04-.06-.23-.01-.3.07-.28.3.11.899.19 1.798.12 2.697-.03.479-.09.958-.33 1.388-.22.4-.55.559-1 .49-.44-.06-.84-.26-1.21-.49-.34-.21-.66-.45-.99-.68.01 0 .02-.01.03-.02z"/>
</svg>
