<svg xmlns="http://www.w3.org/2000/svg" width="316" height="360" fill="none" viewBox="0 0 316 360">
    <g clip-path="url(#clip0)">
        <path stroke="#000" stroke-linecap="round" stroke-linejoin="round" stroke-miterlimit="10" stroke-width="2" d="M38.5 163.18l10.78-38.32c1.39-4.96-.58-10.13-4.4-11.56-3.82-1.43-8.05 1.44-9.44 6.4l-12.21 43.48m144.77-.67l-11.61-38.32c-1.39-4.96.58-10.14 4.4-11.56 3.82-1.43 8.05 1.44 9.44 6.4l12.21 43.48"/>
        <path fill="#fff" d="M202.68 118.12c0 3.23-1.87 5.86-4.17 5.86H10.02c-2.31 0-4.17-2.62-4.17-5.86s1.87-5.86 4.17-5.86h188.49c2.3 0 4.17 2.62 4.17 5.86z"/>
        <path stroke="#000" stroke-linecap="round" stroke-linejoin="round" stroke-miterlimit="10" stroke-width="2" d="M310.73 331.26v1.04-154.04c0-8.28-6.5-15-14.52-15H20.37c-8.02 0-14.52 6.72-14.52 15V332m196.83-213.88c0 3.23-1.87 5.86-4.17 5.86H10.02c-2.31 0-4.17-2.62-4.17-5.86s1.87-5.86 4.17-5.86h188.49c2.3 0 4.17 2.62 4.17 5.86z"/>
        <path fill="#fff" d="M249.75 328.03c.92 3.33 3.93 5.35 6.71 4.53l4.03-1.19c2.78-.82 4.29-4.19 3.36-7.52l-25.75-92.71c-.92-3.33-3.93-5.35-6.71-4.53l-4.03 1.19c-2.78.82-4.29 4.19-3.36 7.52l25.75 92.71z"/>
        <path stroke="#000" stroke-linecap="round" stroke-linejoin="round" stroke-miterlimit="10" stroke-width="2" d="M45.54 330.19c-1.72-1.41-2.13-3.72-1.41-6.34l25.75-92.71c.92-3.33 3.93-5.35 6.71-4.53l4.03 1.19c2.78.82 4.29 4.19 3.36 7.52l-26.13 93.82m191.9-1.11c.92 3.33 3.93 5.35 6.71 4.53l4.03-1.19c2.78-.82 4.29-4.19 3.36-7.52l-25.75-92.71c-.92-3.33-3.93-5.35-6.71-4.53l-4.03 1.19c-2.78.82-4.29 4.19-3.36 7.52l25.75 92.71z"/>
        <path fill="#fff" stroke="#000" stroke-linecap="round" stroke-linejoin="round" stroke-miterlimit="10" stroke-width="2" d="M297.18 233.42c0 2.99-2.34 5.41-5.24 5.41H23.02c-2.89 0-5.24-2.42-5.24-5.41v-3.55c0-2.99 2.34-5.41 5.24-5.41h268.92c2.89 0 5.24 2.42 5.24 5.41v3.55z"/>
        <path fill="#fff" d="M216 25.43h34.12c5.31 0 .63-9.02-.25-10.3-5.48-7.95-8.06-8.72-16.58-4.92-3.64 1.62-8.87.87-11.62 4.07-1.49 1.73-3.99 1.81-5.72 3.19-3.25 2.61-1.31 3.69-6.54 3.5 0 0-4.01-.28-4.01 4.45h3.36"/>
        <path stroke="#333" stroke-linecap="round" stroke-linejoin="round" stroke-miterlimit="10" stroke-width="2" d="M216 25.43h34.12c5.31 0 .63-9.02-.25-10.3-5.48-7.95-8.06-8.72-16.58-4.92-3.64 1.62-8.87.87-11.62 4.07-1.49 1.73-3.99 1.81-5.72 3.19-3.25 2.61-1.31 3.69-6.54 3.5 0 0-4.01-.28-4.01 4.45h3.36"/>
        <path fill="#fff" stroke="#000" stroke-linecap="round" stroke-linejoin="round" stroke-miterlimit="10" stroke-width="2" d="M236.99 64.09h67.58s7.16-3.89.02-8.96c-3.1-2.2-6.28-.1-9.52-1.09-4.04-1.24-4.69-4.95-7.23-7.9-2.67-3.1-6.7-5.42-10.38-6.96-7.45-3.13-15.96-3.4-23.56-.64-8.49 3.09-18.94 1.95-19.56 14.23.01.01-6.79 7.03 2.65 11.32z"/>
        <path fill="#fff" d="M35.03 97.26h94.07c-.3-2.52-1.2-4.97-2.61-7.06-2.65-3.94-7.53-4.33-10.71-7.51-2.63-2.64-4.47-6.07-7.35-8.7-10.75-9.77-24.26-12.47-36.42-4.22-5.83 3.96-11.01 5.94-18.06 6.32-6.45.34-9.78 1.93-15.02 5.31-4.64 2.98-9.12 1.85-14.59 3.28-3.47.91-6.83 2.44-9.51 4.94-.74.69-5.09 7.64-4.95 7.64h15.76"/>
        <path stroke="#000" stroke-linecap="round" stroke-linejoin="round" stroke-miterlimit="10" stroke-width="2" d="M.21 332.26h8.12l4.56-7.5 4.06 7.5 5.07-3.75 4.06 3.75h18.26l5.58-7.5 4.06 7.5 5.58-3.75 5.07 3.75h22.89m-52.49-235h94.07c-.3-2.52-1.2-4.97-2.61-7.06-2.65-3.94-7.53-4.33-10.71-7.51-2.63-2.64-4.47-6.07-7.35-8.7-10.75-9.77-24.26-12.47-36.42-4.22-5.83 3.96-11.01 5.94-18.06 6.32-6.45.34-9.78 1.93-15.02 5.31-4.64 2.98-9.12 1.85-14.59 3.28-3.47.91-6.83 2.44-9.51 4.94-.74.69-5.09 7.64-4.95 7.64h25.15zm67.24 235H272.6l4.06-3.75 4.06 3.75 4.06-3.75 5.07 3.75h5.58l6.09-7.5 5.58 7.5h9.13-213.96z"/>
        <path fill="#fff" stroke="#000" stroke-miterlimit="10" stroke-width="2" d="M104.05 97.48c.12 1.67.46 3.3 1.06 4.85 1.64 4.31 5.52 6.88 9.74 8.35 7.57 2.64 15.6 2.91 23.53 3.09 9.91.22 20.25.49 30.24-.86 8.16-1.1 18.36-2.88 20.71-12.22 1.32-5.25.76-11.07-1.66-16.06-2.58-5.32-6.95-9.92-9.15-15.59-2.8-7.24-7-14.67-13.58-19.28-7.88-5.52-18.2-5.71-27.19-3.25-11.51 3.15-18.6 12.94-22.82 23.54-3.64 9.2-11.66 16.95-10.88 27.43z"/>
        <path fill="#000" d="M144.43 69.87c1.9 0 3.43-1.54 3.43-3.43 0-1.9-1.54-3.43-3.43-3.43-1.89 0-3.43 1.53-3.43 3.42 0 1.9 1.54 3.44 3.43 3.44zm19.46 0c1.9 0 3.43-1.54 3.43-3.43 0-1.9-1.54-3.43-3.43-3.43-1.89 0-3.43 1.54-3.43 3.43 0 1.89 1.53 3.43 3.43 3.43z"/>
        <path fill="#fff" stroke="#000" stroke-miterlimit="10" stroke-width="2" d="M211.05 212.32c.1 1.39.39 2.76.88 4.05 1.37 3.59 4.6 5.74 8.13 6.97 6.32 2.21 13.02 2.43 19.64 2.58 8.27.19 16.9.4 25.24-.72 6.81-.92 15.32-2.4 17.29-10.2 1.1-4.38.64-9.24-1.38-13.4-2.16-4.44-5.8-8.28-7.63-13.01-2.34-6.04-5.84-12.25-11.33-16.09-6.58-4.6-15.19-4.77-22.7-2.71-9.61 2.63-15.53 10.8-19.04 19.65-3.06 7.66-9.75 14.13-9.1 22.88z"/>
        <path fill="#000" d="M235.24 186.35c1.58 0 2.87-1.28 2.87-2.87s-1.28-2.87-2.87-2.87-2.87 1.28-2.87 2.87 1.28 2.87 2.87 2.87zm16.24 0c1.58 0 2.87-1.28 2.87-2.87s-1.28-2.87-2.87-2.87c-1.58 0-2.87 1.28-2.87 2.87s1.28 2.87 2.87 2.87z"/>
        <path fill="#CCC" stroke="#000" stroke-width="2" d="M66.36 158.33h.08c2.99-.11 21.22.08 32.42 19.7 6.22 10.9 8.77 19.65 9.78 25.65.5 3 .62 5.31.61 6.86 0 .77-.04 1.36-.07 1.74-.02.19-.03.34-.04.43l-.01.1v.02l-.01.08v.19c0 .09-.01.22-.03.39-.03.34-.09.84-.22 1.43-.25 1.2-.75 2.79-1.74 4.38-1.94 3.11-5.9 6.37-14.14 6.37H39.83c-8.25 0-12.2-3.26-14.14-6.37-.99-1.59-1.49-3.18-1.74-4.38-.12-.6-.19-1.09-.22-1.43-.01-.17-.02-.3-.03-.39v-.19l-.01-.08v-.02l-.01-.1c-.01-.09-.03-.23-.04-.43-.03-.38-.07-.97-.07-1.74-.01-1.55.11-3.86.61-6.86 1.01-5.99 3.56-14.75 9.77-25.65 11.19-19.63 29.42-19.81 32.41-19.7z"/>
        <path fill="#000" d="M56.44 181.43c1.9 0 3.43-1.54 3.43-3.43 0-1.89-1.54-3.43-3.43-3.43-1.9 0-3.43 1.54-3.43 3.43 0 1.89 1.53 3.43 3.43 3.43zm19.46 0c1.9 0 3.43-1.54 3.43-3.43 0-1.89-1.54-3.43-3.43-3.43-1.9 0-3.43 1.54-3.43 3.43 0 1.89 1.53 3.43 3.43 3.43z"/>
        <path fill="#CCC" stroke="#000" stroke-width="2" d="M267.36 279.33h.08c2.98-.11 21.22.08 32.42 19.7 6.22 10.9 8.77 19.65 9.78 25.64.5 3 .62 5.31.61 6.86 0 .77-.04 1.36-.07 1.74-.02.19-.03.33-.04.43l-.01.1v.02l-.01.08v.19c0 .08-.01.22-.03.39-.03.34-.09.84-.22 1.43-.25 1.2-.75 2.79-1.74 4.38-1.95 3.11-5.9 6.37-14.14 6.37H240.87c-8.25 0-12.2-3.26-14.14-6.37-.99-1.59-1.49-3.18-1.74-4.38-.12-.6-.19-1.09-.22-1.43-.01-.17-.02-.3-.03-.39v-.19l-.01-.08v-.02l-.01-.1c-.01-.09-.03-.23-.04-.43-.03-.39-.07-.97-.07-1.74-.01-1.55.11-3.86.61-6.86 1.01-5.99 3.56-14.75 9.77-25.64 11.15-19.63 29.38-19.81 32.37-19.7z"/>
        <path fill="#000" d="M257.44 302.43c1.9 0 3.43-1.54 3.43-3.43 0-1.89-1.54-3.43-3.43-3.43-1.9 0-3.43 1.54-3.43 3.43 0 1.89 1.53 3.43 3.43 3.43zm19.46 0c1.9 0 3.43-1.54 3.43-3.43 0-1.89-1.54-3.43-3.43-3.43-1.9 0-3.43 1.54-3.43 3.43 0 1.89 1.53 3.43 3.43 3.43z"/>
    </g>
    <defs>
        <clipPath id="clip0">
            <path fill="#fff" d="M0 0H316V360H0z"/>
        </clipPath>
    </defs>
</svg>
