<svg xmlns="http://www.w3.org/2000/svg" width="316" height="360" fill="none" viewBox="0 0 316 360">
    <g clip-path="url(#clip0)">
        <path fill="#fff" stroke="#000" stroke-linecap="round" stroke-linejoin="round" stroke-miterlimit="10" stroke-width="2" d="M37.074 168.339c-1.393 4.962-5.621 7.827-9.442 6.403-3.822-1.425-5.791-6.602-4.398-11.563l12.207-43.478c1.393-4.961 5.62-7.828 9.442-6.402 3.822 1.425 5.792 6.602 4.399 11.562l-12.208 43.478zM168.599 167.667c1.393 4.961 5.622 7.827 9.442 6.402 3.822-1.425 5.792-6.602 4.399-11.562l-12.208-43.478c-1.393-4.961-5.62-7.828-9.442-6.402-3.821 1.424-5.791 6.602-4.398 11.562l12.207 43.478z"/>
        <path fill="#fff" stroke="#000" stroke-linecap="round" stroke-linejoin="round" stroke-miterlimit="10" stroke-width="2" d="M310.723 337.261c0 8.284-6.499 15-14.518 15H20.367c-8.018 0-14.518-6.716-14.518-15v-159c0-8.284 6.5-15 14.518-15h275.838c8.019 0 14.518 6.716 14.518 15v159zM202.68 118.116c0 3.234-1.868 5.856-4.172 5.856H10.022c-2.305 0-4.173-2.622-4.173-5.856s1.87-5.855 4.173-5.855h188.486c2.305 0 4.172 2.622 4.172 5.855z"/>
        <path fill="#fff" stroke="#000" stroke-linecap="round" stroke-linejoin="round" stroke-miterlimit="10" stroke-width="2" d="M58.142 328.033c-.923 3.326-3.927 5.353-6.708 4.528l-4.028-1.193c-2.78-.824-4.286-4.189-3.363-7.515l25.75-92.708c.923-3.327 3.926-5.353 6.707-4.528l4.028 1.193c2.781.824 4.287 4.189 3.363 7.516l-25.749 92.707zM249.748 328.033c.924 3.326 3.928 5.353 6.709 4.528l4.028-1.193c2.781-.824 4.285-4.189 3.363-7.515l-25.75-92.708c-.923-3.327-3.926-5.353-6.707-4.528l-4.028 1.193c-2.781.824-4.287 4.189-3.363 7.516l25.748 92.707z"/>
        <path fill="#fff" stroke="#000" stroke-linecap="round" stroke-linejoin="round" stroke-miterlimit="10" stroke-width="2" d="M297.181 233.417c0 2.99-2.344 5.413-5.238 5.413H23.024c-2.893 0-5.239-2.423-5.239-5.413v-3.551c0-2.989 2.345-5.412 5.24-5.412h268.918c2.894 0 5.238 2.423 5.238 5.412v3.551z"/>
        <path fill="#fff" stroke="#333" stroke-miterlimit="10" stroke-width="2" d="M-1 332.261h9.083l4.565-7.5 4.058 7.5 5.072-3.75 4.059 3.75H44.097l5.579-7.5 4.059 7.5 5.579-3.75 5.072 3.75H272.351l4.057-3.75 4.058 3.75 4.059-3.75 5.071 3.75h5.581l6.086-7.5 5.579 7.5h10.098v27.5H-1v-27.5z"/>
        <path fill="#fff" d="M215.999 25.428h34.12c5.313 0 .63-9.02-.251-10.3-5.477-7.948-8.057-8.72-16.576-4.916-3.639 1.625-8.873.872-11.625 4.074-1.49 1.733-3.993 1.805-5.72 3.193-3.249 2.612-1.31 3.693-6.539 3.498 0 0-4.012-.28-4.012 4.45h3.362"/>
        <path stroke="#333" stroke-linecap="round" stroke-linejoin="round" stroke-miterlimit="10" stroke-width="2" d="M215.999 25.428h34.12c5.313 0 .63-9.02-.251-10.3-5.477-7.948-8.057-8.72-16.576-4.916-3.639 1.625-8.873.872-11.625 4.074-1.49 1.733-3.993 1.805-5.72 3.193-3.249 2.612-1.31 3.693-6.539 3.498 0 0-4.012-.28-4.012 4.45h3.362"/>
        <path fill="#fff" stroke="#000" stroke-linecap="round" stroke-linejoin="round" stroke-miterlimit="10" stroke-width="2" d="M236.993 64.094h67.579s7.16-3.894.019-8.958c-3.101-2.2-6.279-.1-9.515-1.091-4.035-1.237-4.692-4.955-7.227-7.898-2.675-3.104-6.697-5.42-10.377-6.963-7.455-3.128-15.963-3.4-23.56-.636-8.491 3.089-18.937 1.954-19.562 14.234-.001 0-6.796 7.02 2.643 11.312z"/>
        <path fill="#fff" d="M35.026 97.261h94.066c-.298-2.519-1.204-4.975-2.605-7.061-2.646-3.938-7.526-4.332-10.707-7.515-2.633-2.635-4.465-6.075-7.35-8.696-10.752-9.773-24.262-12.471-36.417-4.224-5.831 3.956-11.01 5.945-18.057 6.317-6.451.34-9.777 1.932-15.022 5.305-4.637 2.982-9.122 1.851-14.589 3.284-3.47.91-6.83 2.442-9.508 4.945-.736.688-5.086 7.645-4.948 7.645h15.76"/>
        <path stroke="#000" stroke-linecap="round" stroke-linejoin="round" stroke-miterlimit="10" stroke-width="2" d="M35.026 97.261h94.066c-.298-2.519-1.204-4.975-2.605-7.061-2.646-3.938-7.526-4.332-10.707-7.515-2.633-2.635-4.465-6.075-7.35-8.696-10.752-9.773-24.262-12.471-36.417-4.224-5.831 3.956-11.01 5.945-18.057 6.317-6.451.34-9.777 1.932-15.022 5.305-4.637 2.982-9.122 1.851-14.589 3.284-3.47.91-6.83 2.442-9.508 4.945-.736.688-5.086 7.645-4.948 7.645h15.76M.209 332.261h8.116l4.565-7.5 4.058 7.5 5.072-3.75 4.058 3.75h18.261l5.579-7.5 4.058 7.5 5.58-3.75 5.072 3.75H272.593l4.057-3.75 4.058 3.75 4.059-3.75 5.071 3.75h5.581l6.086-7.5 5.579 7.5h9.13"/>
        <path fill="#fff" d="M102.096 320.525h-7.333v19.646h7.333v-19.646z"/>
        <path fill="#fff" d="M329 333H-15v38h344v-38z"/>
    </g>
    <path fill="#fff" stroke="#000" stroke-miterlimit="10" stroke-width="2" d="M104.054 97.48c.125 1.667.465 3.303 1.056 4.851 1.642 4.306 5.518 6.879 9.737 8.353 7.568 2.643 15.602 2.909 23.533 3.089 9.913.225 20.247.485 30.242-.865 8.157-1.102 18.36-2.876 20.714-12.221 1.323-5.253.763-11.074-1.658-16.06-2.584-5.324-6.949-9.918-9.146-15.59-2.805-7.239-7.001-14.674-13.576-19.277-7.879-5.516-18.2-5.713-27.195-3.249-11.511 3.154-18.604 12.943-22.818 23.545-3.656 9.195-11.675 16.94-10.889 27.424z"/>
    <path fill="#000" d="M144.434 69.868c1.897 0 3.434-1.537 3.434-3.434 0-1.897-1.537-3.434-3.434-3.434-1.897 0-3.434 1.537-3.434 3.434 0 1.897 1.537 3.434 3.434 3.434zM163.892 69.868c1.897 0 3.434-1.537 3.434-3.434 0-1.897-1.537-3.434-3.434-3.434-1.897 0-3.434 1.537-3.434 3.434 0 1.897 1.537 3.434 3.434 3.434z"/>
    <path fill="#fff" stroke="#000" stroke-miterlimit="10" stroke-width="2" d="M211.053 212.318c.105 1.391.388 2.756.882 4.048 1.37 3.594 4.605 5.742 8.126 6.972 6.317 2.206 13.022 2.428 19.642 2.578 8.274.188 16.899.405 25.241-.722 6.808-.919 15.324-2.4 17.289-10.2 1.104-4.384.636-9.242-1.384-13.405-2.157-4.443-5.8-8.277-7.634-13.011-2.341-6.042-5.843-12.247-11.331-16.089-6.576-4.604-15.19-4.769-22.698-2.712-9.607 2.632-15.527 10.803-19.044 19.652-3.052 7.674-9.745 14.137-9.089 22.889z"/>
    <path fill="#000" d="M235.236 186.352c1.583 0 2.866-1.283 2.866-2.866 0-1.583-1.283-2.866-2.866-2.866-1.583 0-2.866 1.283-2.866 2.866 0 1.583 1.283 2.866 2.866 2.866zM251.476 186.352c1.582 0 2.866-1.283 2.866-2.866 0-1.583-1.284-2.866-2.866-2.866-1.583 0-2.867 1.283-2.867 2.866 0 1.583 1.284 2.866 2.867 2.866z"/>
    <path fill="#CCC" stroke="#000" stroke-width="2" d="M66.36 158.328l.036.002.036-.002c2.985-.107 21.221.077 32.417 19.704 6.217 10.898 8.77 19.65 9.776 25.645.503 2.999.619 5.312.612 6.862-.004.775-.038 1.36-.071 1.745-.016.193-.032.335-.043.427l-.013.099-.003.02v.001l-.001.001h0v.001l-.012.077v.099l-.001.038-.002.055c-.004.085-.011.216-.027.387-.03.341-.092.836-.217 1.435-.25 1.199-.75 2.791-1.743 4.377-1.945 3.108-5.896 6.372-14.142 6.372H66.079h0H66.055h0-.004 0-.005 0-.006 0-.006 0-.006 0-.002 0-.008 0-.002 0-.002 0-.002 0H66.003h0-.002 0H66h0-.002 0-.002 0-.004 0-.002 0-.002 0-.002 0-.002 0-.003 0-.003 0-.002 0-.001 0-.002 0-.001 0-.002 0-.002 0-.002 0-.002 0-.001 0-.002 0-.001 0-.001 0-.001 0-.002 0-.001 0-.001 0-.001 0-.001 0-.001 0-.001 0-.001 0-.001 0-.001 0-.001 0-.001 0-.001 0-.001 0-.001 0-.001 0-.001 0-.001 0-.001 0-.001 0H39.83c-8.247 0-12.198-3.264-14.144-6.372-.992-1.586-1.492-3.178-1.742-4.377-.125-.599-.187-1.094-.218-1.435-.015-.171-.022-.302-.026-.387l-.003-.093v-.021h0v-.078l-.013-.077v-.001h0v-.002l-.003-.021-.013-.098c-.011-.092-.027-.234-.044-.427-.032-.385-.067-.97-.07-1.745-.008-1.55.108-3.863.611-6.862 1.006-5.995 3.559-14.747 9.775-25.645 11.197-19.627 29.433-19.811 32.42-19.704z"/>
    <path fill="#000" d="M56.438 181.433c1.896 0 3.434-1.537 3.434-3.434 0-1.897-1.538-3.434-3.434-3.434-1.897 0-3.434 1.537-3.434 3.434 0 1.897 1.537 3.434 3.434 3.434zM75.896 181.433c1.897 0 3.434-1.537 3.434-3.434 0-1.897-1.537-3.434-3.434-3.434-1.897 0-3.434 1.537-3.434 3.434 0 1.897 1.537 3.434 3.434 3.434z"/>
    <path fill="#CCC" stroke="#000" stroke-width="2" d="M267.36 279.328l.036.002.036-.002c2.985-.107 21.222.077 32.417 19.704 6.217 10.898 8.77 19.65 9.776 25.645.503 2.999.619 5.312.612 6.862-.004.775-.038 1.36-.071 1.745-.016.193-.032.335-.043.427l-.013.099-.003.02v.001l-.001.001h0v.001l-.012.077v.099l-.001.038-.002.055c-.004.085-.011.216-.027.387-.03.341-.092.836-.217 1.435-.25 1.199-.75 2.791-1.743 4.377-1.945 3.108-5.896 6.372-14.142 6.372H266.996h0-.008 0-.005 0-.004 0-.003 0-.003 0-.002 0-.002 0-.002 0-.002 0-.002 0-.001 0-.002 0-.001 0-.001 0-.001 0-.002 0-.001 0-.001 0-.001 0-.001 0-.001 0-.001 0-.001 0-.001 0-.001 0-.001 0-.001 0-.001 0-.001 0-.001 0-.001 0-.001 0-.001 0-.001 0H240.831c-8.247 0-12.198-3.264-14.144-6.372-.992-1.586-1.492-3.178-1.742-4.377-.125-.599-.187-1.094-.218-1.435-.015-.171-.022-.302-.026-.387l-.003-.093v-.021h0v-.078l-.013-.077v-.001h0v-.002l-.003-.021-.013-.098c-.011-.092-.027-.234-.044-.427-.032-.385-.067-.97-.07-1.745-.008-1.55.109-3.863.611-6.862 1.006-5.995 3.559-14.747 9.775-25.645 11.197-19.627 29.433-19.811 32.419-19.704z"/>
    <path fill="#000" d="M257.438 302.433c1.896 0 3.434-1.537 3.434-3.434 0-1.897-1.538-3.434-3.434-3.434-1.897 0-3.434 1.537-3.434 3.434 0 1.897 1.537 3.434 3.434 3.434zM276.896 302.433c1.896 0 3.434-1.537 3.434-3.434 0-1.897-1.538-3.434-3.434-3.434-1.897 0-3.434 1.537-3.434 3.434 0 1.897 1.537 3.434 3.434 3.434z"/>
    <defs>
        <clipPath id="clip0">
            <path fill="#fff" d="M0 0H316V360H0z"/>
        </clipPath>
    </defs>
</svg>
