<svg xmlns="http://www.w3.org/2000/svg" width="316" height="584" fill="none" viewBox="0 0 316 584">
    <g clip-path="url(#clip0)">
        <path fill="#fff" stroke="#000" stroke-linecap="round" stroke-linejoin="round" stroke-miterlimit="10" stroke-width="2" d="M284.99 234.25H27.29c-.59 0-1.07-.48-1.07-1.07v-78.55c0-14.6 11.84-26.44 26.44-26.44H259.9c14.46 0 26.17 11.72 26.17 26.17v78.81c-.01.6-.49 1.08-1.08 1.08z"/>
        <path fill="#fff" stroke="#000" stroke-linecap="round" stroke-linejoin="round" stroke-miterlimit="10" stroke-width="2" d="M116.81 230.36c-4-1.29-6.19-5.58-4.9-9.57l20.39-63.08c1.29-4 5.58-6.19 9.57-4.9 4 1.29 6.19 5.58 4.9 9.57l-20.39 63.08c-1.29 4-5.58 6.2-9.57 4.9zm156.42.37c4-1.29 6.19-5.58 4.9-9.57l-20.39-63.08c-1.29-4-5.58-6.19-9.57-4.9-4 1.29-6.19 5.58-4.9 9.57l20.39 63.08c1.28 4 5.57 6.19 9.57 4.9z"/>
        <path fill="#fff" stroke="#000" stroke-linecap="round" stroke-linejoin="round" stroke-miterlimit="10" stroke-width="2" d="M290.2 160H107.06c-3.64 0-6.58-2.95-6.58-6.58 0-3.64 2.95-6.58 6.58-6.58H290.2c3.64 0 6.58 2.95 6.58 6.58.01 3.63-2.94 6.58-6.58 6.58zm9.66 61.39H15.17v107.09h284.69V221.39z"/>
        <path stroke="#000" stroke-linecap="round" stroke-linejoin="round" stroke-miterlimit="10" stroke-width="2" d="M42.59 322.27c-1.42 4.6-5.73 7.26-9.62 5.94-3.89-1.32-5.9-6.13-4.48-10.73l12.44-40.34c1.42-4.6 5.73-7.26 9.62-5.94 3.89 1.32 5.9 6.13 4.48 10.73l-12.44 40.34zm177.3 1.11c1.42 4.6 5.73 7.26 9.62 5.94 3.89-1.32 5.9-6.13 4.48-10.73l-12.44-40.34c-1.42-4.6-5.73-7.26-9.62-5.94-3.89 1.32-5.9 6.13-4.48 10.73l12.44 40.34z"/>
        <path fill="#fff" d="M3 488.39v-156.8c0-8.17 6.62-14.79 14.79-14.79h281.06c8.17 0 14.79 6.62 14.79 14.79"/>
        <path stroke="#000" stroke-linecap="round" stroke-linejoin="round" stroke-miterlimit="10" stroke-width="2" d="M3 483.39v-151.8c0-8.17 6.62-14.79 14.79-14.79h281.06c8.17 0 14.79 6.62 14.79 14.79v151.53"/>
        <path fill="#fff" d="M209.75 38.35h35.79c5.57 0 .66-9.16-.26-10.46-5.74-8.07-8.45-8.85-17.39-4.99-3.82 1.65-9.31.89-12.19 4.14-1.56 1.76-4.19 1.83-6 3.24-3.41 2.65-1.37 3.75-6.86 3.55 0 0-4.21-.28-4.21 4.52h3.53"/>
        <path stroke="#000" stroke-linecap="round" stroke-linejoin="round" stroke-miterlimit="10" stroke-width="2" d="M209.75 38.35h35.79c5.57 0 .66-9.16-.26-10.46-5.74-8.07-8.45-8.85-17.39-4.99-3.82 1.65-9.31.89-12.19 4.14-1.56 1.76-4.19 1.83-6 3.24-3.41 2.65-1.37 3.75-6.86 3.55 0 0-4.21-.28-4.21 4.52h3.53"/>
        <path fill="#fff" d="M231.78 77.6h70.88s7.51-3.95.02-9.09c-3.25-2.23-6.59-.1-9.98-1.11-4.23-1.26-4.92-5.03-7.58-8.02-2.81-3.15-7.03-5.5-10.89-7.07-7.82-3.17-16.74-3.45-24.71-.65-8.91 3.14-19.86 1.98-20.52 14.45 0 .01-7.12 7.13 2.78 11.49z"/>
        <path stroke="#000" stroke-linecap="round" stroke-linejoin="round" stroke-miterlimit="10" stroke-width="2" d="M231.78 77.6h70.88s7.51-3.95.02-9.09c-3.25-2.23-6.59-.1-9.98-1.11-4.23-1.26-4.92-5.03-7.58-8.02-2.81-3.15-7.03-5.5-10.89-7.07-7.82-3.17-16.74-3.45-24.71-.65-8.91 3.14-19.86 1.98-20.52 14.45 0 .01-7.12 7.13 2.78 11.49z"/>
        <path fill="#fff" d="M36.17 85.61h98.66c-.31-2.56-1.26-5.05-2.73-7.17-2.77-4-7.89-4.4-11.23-7.63-2.76-2.67-4.68-6.17-7.71-8.83-11.28-9.92-25.45-12.66-38.2-4.29-6.12 4.02-11.55 6.04-18.94 6.41-6.77.35-10.26 1.96-15.76 5.39-4.86 3.03-9.57 1.88-15.3 3.33-3.64.92-7.16 2.48-9.97 5.02-.77.7-5.33 7.76-5.19 7.76h16.53"/>
        <path stroke="#000" stroke-linecap="round" stroke-linejoin="round" stroke-miterlimit="10" stroke-width="2" d="M36.17 85.61h98.66c-.31-2.56-1.26-5.05-2.73-7.17-2.77-4-7.89-4.4-11.23-7.63-2.76-2.67-4.68-6.17-7.71-8.83-11.28-9.92-25.45-12.66-38.2-4.29-6.12 4.02-11.55 6.04-18.94 6.41-6.77.35-10.26 1.96-15.76 5.39-4.86 3.03-9.57 1.88-15.3 3.33-3.64.92-7.16 2.48-9.97 5.02-.77.7-5.33 7.76-5.19 7.76h16.53"/>
        <path fill="#fff" d="M306.13 235.86H10.52c-4.15 0-7.52-3.37-7.52-7.52 0-4.15 3.37-7.52 7.52-7.52h295.61c4.15 0 7.52 3.37 7.52 7.52 0 4.15-3.36 7.52-7.52 7.52zm-59.77 44.27H16.68c-3.64 0-6.58-2.95-6.58-6.58 0-3.64 2.95-6.58 6.58-6.58h229.68c3.64 0 6.58 2.95 6.58 6.58s-2.95 6.58-6.58 6.58zM150 450.15c-3.64-1.44-5.42-5.56-3.98-9.2l16.75-42.3c1.44-3.64 5.56-5.42 9.2-3.98 3.64 1.44 5.42 5.56 3.98 9.2l-16.75 42.3c-1.45 3.63-5.56 5.42-9.2 3.98zm130.88-1.55c3.64-1.44 5.42-5.56 3.98-9.2l-16.75-42.3c-1.44-3.64-5.56-5.42-9.2-3.98-3.64 1.44-5.42 5.56-3.98 9.2l16.75 42.3c1.44 3.64 5.56 5.42 9.2 3.98zm-8.17 34.84l-15.41-38.92c-1.44-3.64-5.56-5.42-9.2-3.98-3.64 1.44-5.42 5.56-3.98 9.2l13.28 33.57"/>
        <path stroke="#000" stroke-linecap="round" stroke-linejoin="round" stroke-miterlimit="10" stroke-width="2" d="M39.3 483.16l15.48-39.1c1.44-3.64 5.56-5.42 9.2-3.98 3.64 1.44 5.42 5.56 3.98 9.2l-12.37 31.25m217.12 2.91l-15.41-38.92c-1.44-3.64-5.56-5.42-9.2-3.98-3.64 1.44-5.42 5.56-3.98 9.2l13.28 33.57m48.73-247.45H10.52c-4.15 0-7.52-3.37-7.52-7.52 0-4.15 3.37-7.52 7.52-7.52h295.61c4.15 0 7.52 3.37 7.52 7.52 0 4.15-3.36 7.52-7.52 7.52zm-59.77 44.27H16.68c-3.64 0-6.58-2.95-6.58-6.58 0-3.64 2.95-6.58 6.58-6.58h229.68c3.64 0 6.58 2.95 6.58 6.58s-2.95 6.58-6.58 6.58zM150 450.15c-3.64-1.44-5.42-5.56-3.98-9.2l16.75-42.3c1.44-3.64 5.56-5.42 9.2-3.98 3.64 1.44 5.42 5.56 3.98 9.2l-16.75 42.3c-1.45 3.63-5.56 5.42-9.2 3.98zm130.88-1.55c3.64-1.44 5.42-5.56 3.98-9.2l-16.75-42.3c-1.44-3.64-5.56-5.42-9.2-3.98-3.64 1.44-5.42 5.56-3.98 9.2l16.75 42.3c1.44 3.64 5.56 5.42 9.2 3.98z"/>
        <path stroke="#000" stroke-linecap="round" stroke-linejoin="round" stroke-miterlimit="10" stroke-width="2" d="M-2.74 483.46h8.27l4.65-7.39 4.13 7.39 5.17-3.7 4.14 3.7h18.6l5.69-7.39 4.13 7.39 5.69-3.7 5.17 3.7h211.9l4.13-3.7 4.14 3.7 4.13-3.7 5.17 3.7h5.69l6.2-7.39 5.68 7.39h9.31"/>
        <path fill="#fff" stroke="#000" stroke-linecap="round" stroke-linejoin="round" stroke-miterlimit="10" stroke-width="2" d="M299.85 446.98c0 2.95-2.39 5.34-5.34 5.34H20.5c-2.95 0-5.34-2.39-5.34-5.34v-3.5c0-2.95 2.39-5.34 5.34-5.34h274.01c2.95 0 5.34 2.39 5.34 5.34v3.5zm2.81-46.66c0 2.95-2.39 5.34-5.34 5.34H136.31c-2.95 0-5.34-2.39-5.34-5.34v-3.5c0-2.95 2.39-5.34 5.34-5.34h161.01c2.95 0 5.34 2.39 5.34 5.34v3.5z"/>
        <path fill="#CCC" stroke="#000" stroke-width="2" d="M161.45 404.83c-8.1-14.2-21.28-14.32-23.42-14.25h-.08c-2.14-.08-15.32.05-23.42 14.25l-.87-.5.87.5c-4.52 7.93-6.38 14.29-7.1 18.63-.36 2.17-.45 3.85-.44 4.96 0 .56.03.98.05 1.25.01.14.02.24.03.3l.01.07v.01l.01.08v.15c0 .06.01.15.02.27.02.24.07.59.15 1.02.18.85.53 1.98 1.24 3.11 1.37 2.18 4.16 4.52 10.09 4.52h38.78c5.93 0 8.73-2.34 10.09-4.52.7-1.12 1.06-2.25 1.24-3.11.09-.43.13-.78.15-1.02.01-.12.02-.21.02-.27v-.15l.01-.08v-.01l.01-.07c.01-.06.02-.16.03-.3.02-.27.05-.69.05-1.25.01-1.12-.08-2.79-.44-4.96-.7-4.35-2.55-10.7-7.08-18.63zm0 0l.87-.5-.87.5z"/>
        <path fill="#000" d="M149.09 409.59c-1.34 0-2.42-1.08-2.42-2.42 0-1.34 1.09-2.42 2.42-2.42 1.33 0 2.42 1.08 2.42 2.42 0 1.34-1.08 2.42-2.42 2.42zm-13.72 0c-1.34 0-2.42-1.08-2.42-2.42 0-1.34 1.09-2.42 2.42-2.42 1.33 0 2.42 1.08 2.42 2.42 0 1.34-1.09 2.42-2.42 2.42z"/>
        <path fill="#CCC" stroke="#000" stroke-width="2" d="M231.45 538.83c-8.1-14.2-21.28-14.32-23.42-14.25h-.08c-2.14-.08-15.32.05-23.42 14.25l-.87-.5.87.5c-4.52 7.93-6.38 14.28-7.1 18.63-.36 2.17-.45 3.84-.44 4.96 0 .56.03.98.05 1.25.01.14.02.24.03.3l.01.07v.01l.01.08v.15c0 .06.01.15.02.27.02.24.07.59.15 1.02.18.85.53 1.98 1.24 3.11 1.37 2.18 4.16 4.53 10.09 4.53h38.78c5.93 0 8.73-2.34 10.09-4.53.7-1.12 1.06-2.25 1.24-3.11.09-.43.13-.78.15-1.02.01-.12.02-.21.02-.27v-.15l.01-.08v-.01l.01-.07c.01-.06.02-.16.03-.3.02-.27.05-.69.05-1.25.01-1.12-.08-2.79-.44-4.96-.7-4.35-2.55-10.7-7.08-18.63zm0 0l.87-.5-.87.5z"/>
        <path fill="#000" d="M214.09 543.59c-1.34 0-2.42-1.09-2.42-2.42 0-1.33 1.09-2.42 2.42-2.42 1.33 0 2.42 1.09 2.42 2.42 0 1.33-1.08 2.42-2.42 2.42zm-13.72 0c-1.34 0-2.42-1.09-2.42-2.42 0-1.33 1.09-2.42 2.42-2.42 1.33 0 2.42 1.09 2.42 2.42 0 1.33-1.09 2.42-2.42 2.42z"/>
        <path fill="#fff" stroke="#000" stroke-miterlimit="10" stroke-width="2" d="M69.04 210.04c.09 1.24.35 2.46.79 3.61 1.22 3.2 4.1 5.12 7.24 6.21 5.63 1.97 11.61 2.16 17.51 2.3 7.37.17 15.06.36 22.5-.64 6.07-.82 13.66-2.14 15.41-9.09.98-3.91.57-8.24-1.23-11.95-1.92-3.96-5.17-7.38-6.8-11.6-2.09-5.38-5.21-10.92-10.1-14.34-5.86-4.1-13.54-4.25-20.23-2.42-8.56 2.35-13.84 9.63-16.97 17.51-2.74 6.85-8.7 12.61-8.12 20.41z"/>
        <path fill="#000" d="M98.76 186.9c1.41 0 2.56-1.14 2.56-2.55s-1.14-2.55-2.56-2.55c-1.41 0-2.55 1.14-2.55 2.55-.01 1.4 1.13 2.55 2.55 2.55zm14.47 0c1.41 0 2.56-1.14 2.56-2.55s-1.14-2.55-2.56-2.55c-1.42 0-2.55 1.14-2.55 2.55 0 1.4 1.14 2.55 2.55 2.55z"/>
        <path fill="#fff" stroke="#000" stroke-miterlimit="10" stroke-width="2" d="M230.04 380.04c.09 1.24.35 2.46.79 3.61 1.22 3.2 4.1 5.12 7.24 6.21 5.63 1.97 11.61 2.16 17.51 2.3 7.37.17 15.06.36 22.5-.64 6.07-.82 13.66-2.14 15.41-9.09.98-3.91.57-8.24-1.23-11.95-1.92-3.96-5.17-7.38-6.8-11.6-2.09-5.39-5.21-10.92-10.1-14.34-5.86-4.1-13.54-4.25-20.23-2.42-8.56 2.35-13.84 9.63-16.97 17.51-2.74 6.85-8.71 12.61-8.12 20.41z"/>
        <path fill="#000" d="M254.76 356.9c1.41 0 2.56-1.14 2.56-2.55s-1.14-2.55-2.55-2.55-2.55 1.14-2.55 2.55c-.02 1.4 1.13 2.55 2.54 2.55zm14.47 0c1.41 0 2.55-1.14 2.55-2.55s-1.14-2.55-2.55-2.55-2.55 1.14-2.55 2.55c0 1.4 1.14 2.55 2.55 2.55z"/>
        <path fill="#fff" stroke="#000" stroke-miterlimit="10" stroke-width="2" d="M224.04 138.04c.09 1.24.35 2.46.79 3.61 1.22 3.2 4.1 5.12 7.24 6.21 5.63 1.97 11.61 2.16 17.51 2.3 7.37.17 15.06.36 22.5-.64 6.07-.82 13.66-2.14 15.41-9.09.98-3.91.57-8.24-1.23-11.95-1.92-3.96-5.17-7.38-6.8-11.6-2.09-5.39-5.21-10.92-10.1-14.34-5.86-4.1-13.54-4.25-20.23-2.42-8.56 2.35-13.84 9.63-16.97 17.51-2.74 6.85-8.71 12.61-8.12 20.41z"/>
        <path fill="#000" d="M246.48 115.08c1.34 0 2.42-1.08 2.42-2.42 0-1.34-1.08-2.42-2.42-2.42-1.34 0-2.42 1.08-2.42 2.42 0 1.34 1.08 2.42 2.42 2.42zm13.73 0c1.34 0 2.42-1.08 2.42-2.42 0-1.34-1.08-2.42-2.42-2.42-1.34 0-2.42 1.08-2.42 2.42 0 1.34 1.08 2.42 2.42 2.42z"/>
    </g>
    <defs>
        <clipPath id="clip0">
            <path fill="#fff" d="M0 0H316V584H0z"/>
        </clipPath>
    </defs>
</svg>
