<svg xmlns="http://www.w3.org/2000/svg" width="316" height="108" fill="none" viewBox="0 0 316 108">
    <g clip-path="url(#clip0)">
        <path fill="#56E556" d="M26.743.344c1.293-.235 2.639-.367 4.04-.386C50.829-.31 70.894.004 90.94 0c19.332-.003 38.665 0 57.997 0h145.756s22.307 1.023 22.307 22.504c0 9.43.006 18.86.001 28.292-.005 7.975 1.442 17.472-2.464 24.697-6.037 11.169-18.126 10.78-28.346 14.796-6.603 2.594-9.823 9.106-13.84 14.621-4.492 6.17-7.204-.257-9.835-4.486-4.665-7.498-10.63-13.141-19.653-13.141-6.592 0-13.186-.062-19.779-.065-13.804-.007-27.603.185-41.407.07-17.182-.143-34.353.08-51.533.138-16.925.057-33.854-.692-50.775-.22-16.664.469-32.993.41-49.632-1.087-8.843-.793-14.027-3.564-19.695-10.796-6.753-8.614-8.946-20.91-8.946-31.683C1.095 26.973 8.71 3.62 26.743.344z"/>
    </g>
    <defs>
        <clipPath id="clip0">
            <path fill="#fff" d="M0 0H316V108H0z" transform="translate(1)"/>
        </clipPath>
    </defs>
</svg>
