<svg xmlns="http://www.w3.org/2000/svg" width="96" height="48" fill="none" viewBox="0 0 96 48">
    <path fill="#fff" stroke="#000" stroke-width="2" d="M23.912 1H84.39s7.693.757 9.748 5.577c1.106 2.588.822 6.086.813 8.826-.03 5.607.166 11.328-.147 16.991-.108 1.994-.235 4.514-1.459 6.191-1.027 1.409-2.671 2.166-4.365 2.425-.978.153-1.938-.039-2.79.565-1.37.958-2.426 2.28-3.66 3.402-.646.594-1.34 1.121-2.123 1.524-.187.096-1.87.853-1.694.297.274-.824.871-3.163.382-3.968-.851-1.408-2.711-1.485-4.19-1.38-14.23 1.026-28.46.595-42.702.911-4.972.115-9.953.115-14.935.01-2.447-.048-4.914-.068-7.35-.23-1.948-.125-4.15-.135-5.932-1.026-1.87-.939-2.672-2.865-2.79-4.84-.303-5.193-.254-10.397.03-15.591.137-2.597.352-5.185.587-7.772.206-2.204.216-4.543 1.263-6.565C4.778 3.117 7.235 1 12.52 1h11.392z"/>
</svg>
