<svg id="레이어_1" data-name="레이어 1" xmlns="http://www.w3.org/2000/svg" viewBox="0 0 316 108"><defs><style>.cls-1{fill:#43ccff;}</style></defs><title>bubble_list1</title><path class="cls-1" d="M271.13,0H32.19A32.19,32.19,0,0,0,0,32.19V68.77A19.59,19.59,0,0,0,19.59,88.36H29.81s7.85.23,10.49.66a48.47,48.47,0,0,1,12.84,4.21c7.39,3.52,13.42,9.2,21,12.42a29.23,29.23,0,0,0,5.94,2.13c1.62.29,4.6.41,5.57-1.29s-1.42-5-1.42-5-6.42-13.14.71-13.14H275.39A40.61,40.61,0,0,0,316,47.75V44.87A44.87,44.87,0,0,0,271.13,0Z"/></svg>