<svg id="레이어_1" data-name="레이어 1" xmlns="http://www.w3.org/2000/svg" viewBox="0 0 316 108"><defs><style>.cls-1{fill:#43ccff;}</style></defs><title>bubble_list_3</title><path class="cls-1" d="M291.07,0H36.85C22.68,0,18.72,7.19,16,15.85,16,15.85,0,54.94,0,69A19.38,19.38,0,0,0,19.59,88.36H229.68v0h8.07c7.13,0,10.66,5.66,10.72,13.17,0,1.26-.38,3.34.57,5,1.3,2.28,5.12,1.3,7,.55a20.65,20.65,0,0,0,5.27-3.47c1.42-1.18,2.76-2.46,4.11-3.74a35.52,35.52,0,0,1,9.14-6.63,38.33,38.33,0,0,1,9.79-3.69c2.6-.64,6.74-1.24,6.74-1.24H301.3A14.7,14.7,0,0,0,316,73.66V24.93A24.93,24.93,0,0,0,291.07,0Z"/></svg>