<svg id="레이어_1" data-name="레이어 1" xmlns="http://www.w3.org/2000/svg" viewBox="0 0 316 124"><defs><style>.cls-1{fill:#ff0084;}</style></defs><title>대지 1</title><path class="cls-1" d="M262.57.43c15.13,0,30.95-2,42.08,7.4C315,16.55,316,23.69,316,37.88c0,5.94,0,25.88,0,31.82.05,9-.29,16.27-5.39,22.85a32.79,32.79,0,0,1-16.1,11.25,52.37,52.37,0,0,1-16.72,2.38H67.08c-23.25,0-3.08,17.71-10.49,17.71-10.26,0-16.89-8.17-24.62-12C22.4,107,.2,98.75.2,73.1Q.08,56.33.13,39.56V26.12S2.77.21,30.49.21c10.66,0,21.32,0,32,0,17.49-.05,35,0,52.48,0,19.17,0,38.35-.12,57.52,0,15.67.09,31.39-.43,47.05,0,7.58.22,16.93,0,22.74,0C249.4.22,255.8.43,262.57.43Z"/></svg>