<svg id="레이어_1" data-name="레이어 1" xmlns="http://www.w3.org/2000/svg" viewBox="0 0 316 108"><defs><style>.cls-1{fill:#43ccff;}</style></defs><title>bubble_list_2</title><path class="cls-1" d="M316,66.72c-1.51-11.78-12-46-12-46C301.77,11.38,294.72,0,283.27,0H41.3A41.3,41.3,0,0,0,0,41.3v6.05A41,41,0,0,0,36.67,88.13h0a52.36,52.36,0,0,1,6.69,1.42,62.41,62.41,0,0,1,9.78,3.68c7.39,3.52,13.42,9.2,21,12.42a29.23,29.23,0,0,0,5.94,2.13c1.62.29,4.6.41,5.57-1.29s-1.42-5-1.42-5-6.42-13.14.71-13.14H294.36C306.31,88.36,317.52,78.58,316,66.72Z"/></svg>