<svg xmlns="http://www.w3.org/2000/svg" width="60" height="60" fill="none" viewBox="0 0 60 60">
    <path fill="#040000" d="M49.963 31.556c-3.286-.421-5.608-3.427-5.186-6.714.421-3.287 3.427-5.61 6.713-5.188 3.286.421 5.608 3.427 5.186 6.714-.422 3.287-3.427 5.61-6.713 5.188zM9.592 31.42c-3.286-.422-5.608-3.429-5.186-6.715.421-3.287 3.427-5.61 6.713-5.188 3.286.421 5.608 3.427 5.186 6.714-.422 3.287-3.427 5.61-6.713 5.188z"/>
    <path stroke="#040000" stroke-linecap="round" stroke-miterlimit="10" stroke-width="4" d="M43.25 36.744c-4.048-.256-4.064 2.193-8.112 1.937-4.05-.255-4.034-2.704-8.084-2.959-4.05-.255-4.068 2.193-8.118 1.936M17.36 32.415s2.518 5.814-1.902 8.83M44.04 33.821s-2.52 4.404 1.676 7.273"/>
</svg>
