<svg xmlns="http://www.w3.org/2000/svg" width="60" height="60" fill="none" viewBox="0 0 60 60">
    <path fill="#000" d="M11.438 30c3.59 0 6.5-2.91 6.5-6.5s-2.91-6.5-6.5-6.5-6.5 2.91-6.5 6.5 2.91 6.5 6.5 6.5zM49.43 30c3.589 0 6.5-2.91 6.5-6.5s-2.911-6.5-6.5-6.5c-3.59 0-6.5 2.91-6.5 6.5s2.91 6.5 6.5 6.5z"/>
    <path stroke="#000" stroke-linecap="round" stroke-linejoin="round" stroke-miterlimit="10" stroke-width="4" d="M42.424 32.027H23.501c-.068 0 1.144 7.077 1.29 7.55.824 2.67 1.226 4.687 3.495 7.17 4.045 4.422 8.255-5.088 8.662-8.803.226-2.06.516-3.854.516-5.917M42.975 32.027l-6.063-6.431"/>
</svg>
