<svg xmlns="http://www.w3.org/2000/svg" width="60" height="60" fill="none" viewBox="0 0 60 60">
    <path stroke="#000" stroke-linecap="round" stroke-linejoin="round" stroke-miterlimit="10" stroke-width="4" d="M23.872 29.29l11.92-.364s.765 17.427-6.026 17.517c-6.791.088-5.894-17.153-5.894-17.153z"/>
    <path fill="#000" d="M11.68 30.554c3.258-.61 5.404-3.744 4.794-7.001-.609-3.257-3.744-5.404-7-4.794-3.258.61-5.404 3.744-4.795 7.001.61 3.257 3.744 5.404 7.002 4.794zM49.105 30.899c3.257-.61 5.403-3.744 4.794-7.002-.61-3.257-3.744-5.403-7.001-4.793-3.258.609-5.404 3.744-4.794 7 .61 3.258 3.744 5.404 7 4.795z"/>
</svg>
