<svg xmlns="http://www.w3.org/2000/svg" width="60" height="60" fill="none" viewBox="0 0 60 60">
    <path fill="#000" d="M49.607 30.433c-3.552.521-6.853-1.936-7.375-5.488-.521-3.551 1.935-6.853 5.487-7.375 3.552-.52 6.854 1.936 7.375 5.488.522 3.551-1.935 6.853-5.487 7.375zM14.117 29.578c-3.551.521-6.852-1.936-7.374-5.488-.521-3.551 1.935-6.853 5.486-7.374 3.55-.521 6.852 1.935 7.373 5.487.521 3.552-1.934 6.854-5.485 7.375z"/>
    <path stroke="#000" stroke-linecap="round" stroke-linejoin="round" stroke-miterlimit="10" stroke-width="4" d="M33.247 29.167l2.205 17.494-12.331-.494 2.698-17.296 10.994.439"/>
</svg>
