<svg xmlns="http://www.w3.org/2000/svg" width="110" height="110" fill="none" viewBox="0 0 110 110">
    <path fill="#69B70C" stroke="#211816" stroke-miterlimit="10" stroke-width="2" d="M74.648 74.593c-1.54-2.105-2.46-5.038-3.41-7.163-1.54-3.451-4.16-6.554-6.97-9.188-10.45-9.796-29.53-7.92-36.84 4.63-10.41 17.846-8.24 35.025-8.24 35.025s0 11.103 14.21 11.103h44.06c12.74 0 18.6-13.438 11.46-23.972-2.94-4.34-8.15-5.876-12.38-8.58-.72-.478-1.35-1.117-1.89-1.855z"/>
    <path fill="#000" d="M36.948 72.777c1.53 0 2.77-1.237 2.77-2.763 0-1.526-1.24-2.763-2.77-2.763s-2.77 1.237-2.77 2.763c0 1.526 1.24 2.763 2.77 2.763zM51.188 69.835c1.53 0 2.77-1.238 2.77-2.764 0-1.526-1.24-2.763-2.77-2.763s-2.77 1.237-2.77 2.763c0 1.526 1.24 2.764 2.77 2.764z"/>
    <path stroke="#000" stroke-linecap="round" stroke-linejoin="round" stroke-miterlimit="10" stroke-width="2" d="M43.488 71.68l.16 7.761 5.56-1.007-2.37-7.362-4.96.897"/>
</svg>
