<svg xmlns="http://www.w3.org/2000/svg" width="110" height="110" fill="none" viewBox="0 0 110 110">
    <path fill="#69B70C" stroke="#211816" stroke-miterlimit="10" stroke-width="2" d="M77.84 66.748c-1.88-2.583-3-6.191-4.16-8.794-1.88-4.242-5.07-8.05-8.49-11.287-12.74-12.03-36-9.729-44.92 5.678-12.69 21.92-10.04 43.017-10.04 43.017S10.23 109 27.55 109h53.73c15.53 0 22.67-16.503 13.97-29.448-3.59-5.327-9.94-7.216-15.09-10.533-.9-.573-1.66-1.357-2.32-2.271z"/>
    <path fill="#000" d="M31.87 64.527c1.867 0 3.38-1.521 3.38-3.397s-1.513-3.397-3.38-3.397-3.38 1.52-3.38 3.397c0 1.876 1.513 3.397 3.38 3.397zM49.24 60.909c1.867 0 3.38-1.521 3.38-3.397 0-1.877-1.513-3.398-3.38-3.398s-3.38 1.521-3.38 3.398c0 1.876 1.513 3.397 3.38 3.397z"/>
    <path stroke="#000" stroke-linecap="round" stroke-linejoin="round" stroke-miterlimit="10" stroke-width="2" d="M39.85 63.17l.2 9.538 6.77-1.236-2.89-9.046-6.04 1.096"/>
</svg>
