<svg xmlns="http://www.w3.org/2000/svg" width="110" height="110" fill="none" viewBox="0 0 110 110">
    <path fill="#69B70C" stroke="#000" stroke-miterlimit="10" stroke-width="2" d="M78.49 66.914c-1.88-2.572-3-6.166-4.16-8.76-1.88-4.224-5.07-8.018-8.49-11.241-12.74-11.983-36-9.69-44.92 5.656C8.23 74.403 10.88 95.415 10.88 95.415S10.88 109 28.2 109h53.73c15.53 0 22.671-16.438 13.97-29.332-3.59-5.306-9.94-7.188-15.09-10.491-.9-.57-1.66-1.352-2.32-2.263z"/>
    <path fill="#000" d="M32.52 64.702c1.867 0 3.38-1.515 3.38-3.384s-1.512-3.383-3.38-3.383c-1.866 0-3.38 1.514-3.38 3.383s1.514 3.384 3.38 3.384zM49.89 61.098c1.867 0 3.38-1.515 3.38-3.383 0-1.87-1.513-3.384-3.38-3.384-1.866 0-3.38 1.515-3.38 3.383 0 1.87 1.514 3.384 3.38 3.384z"/>
    <path stroke="#000" stroke-linecap="round" stroke-linejoin="round" stroke-miterlimit="10" stroke-width="2" d="M40.5 63.35l.2 9.49 6.77-1.22-2.89-9.01-6.04 1.091"/>
    <path fill="#EF0033" stroke="#000" stroke-miterlimit="10" stroke-width="1.5" d="M65.95 53.02c-1.66-.401-2.68-2.063-2.29-3.725L67.1 34.86c.4-1.661 2.06-2.682 3.72-2.292 1.66.4 2.68 2.062 2.29 3.724l-3.44 14.436c-.4 1.662-2.06 2.693-3.72 2.292zM71.96 54.46c-1.66-.4-2.68-2.062-2.29-3.723L73.11 36.3c.4-1.662 2.06-2.683 3.72-2.293 1.66.4 2.68 2.063 2.29 3.724l-3.44 14.436c-.4 1.662-2.07 2.683-3.72 2.293z"/>
    <path fill="#EF0033" stroke="#000" stroke-miterlimit="10" stroke-width="1.5" d="M77.96 55.892c-1.66-.4-2.68-2.062-2.29-3.724l3.44-14.435c.4-1.662 2.06-2.683 3.72-2.293 1.66.4 2.68 2.062 2.29 3.724L81.68 53.6c-.39 1.662-2.06 2.693-3.72 2.292zM89.35 58.615c-1.66-.4-2.68-2.062-2.29-3.724l3.44-14.435c.4-1.662 2.06-2.683 3.72-2.293 1.66.4 2.68 2.062 2.29 3.724l-3.44 14.436c-.4 1.662-2.06 2.683-3.72 2.292z"/>
    <path fill="#EF0033" stroke="#000" stroke-miterlimit="10" stroke-width="1.5" d="M95.35 60.047c-1.66-.4-2.68-2.063-2.29-3.724l3.44-14.436c.4-1.662 2.06-2.683 3.721-2.292 1.66.4 2.68 2.062 2.29 3.724l-3.44 14.435c-.39 1.662-2.06 2.693-3.72 2.293z"/>
    <path fill="#EF0033" stroke="#000" stroke-miterlimit="10" stroke-width="1.5" d="M101.361 61.488c-1.66-.4-2.68-2.062-2.29-3.724l3.44-14.435c.4-1.662 2.06-2.683 3.72-2.293 1.66.4 2.68 2.063 2.29 3.724l-3.44 14.436c-.4 1.662-2.06 2.683-3.72 2.292z"/>
    <path fill="#fff" stroke="#000" stroke-miterlimit="10" stroke-width="1.5" d="M77.22 84.783c-1.66-.4-2.68-2.062-2.29-3.724l10.98-46.02c.4-1.661 2.06-2.682 3.72-2.292 1.66.4 2.68 2.062 2.29 3.724l-10.98 46.02c-.4 1.662-2.07 2.683-3.72 2.292z"/>
    <path fill="#EF0033" stroke="#000" stroke-miterlimit="10" stroke-width="1.5" d="M91.251 39.478l-5.943-1.42-3.957 16.592 5.944 1.42 3.956-16.592z"/>
    <path fill="#EF0033" stroke="#000" stroke-linejoin="round" stroke-miterlimit="10" stroke-width="1.5" d="M95.12 10.453c.29-.1.58-.21.87-.32.15-.06.28-.05.35.12.59 1.341 1 2.733 1.14 4.195.03.25-.09.35-.3.37-1.11.13-2.22.27-3.33.37-1.18.1-2.36.03-3.51-.29-1.18-.32-2.14-.951-2.77-2.022-.43-.72-.65-1.522-.76-2.353-.19-1.441-.07-2.883.15-4.314.1-.641.24-1.282.34-1.912.04-.25.18-.31.39-.27 1.13.18 2.25.35 3.38.54.41.07.81.2 1.21.31.26.07.32.19.21.44-.45.992-.87 1.983-1.13 3.044-.14.56-.25 1.131-.14 1.712.1.54.42.84.96.93.53.091 1.05.01 1.56-.11.47-.12.92-.27 1.38-.41.01-.01.01-.02 0-.03zM89.64 24.859c.05.31.1.61.16.92.03.16 0 .28-.17.321-1.42.35-2.86.51-4.32.4-.26-.02-.32-.15-.31-.36.07-1.111.12-2.232.22-3.344.11-1.18.38-2.332.89-3.413.52-1.101 1.31-1.942 2.47-2.383.79-.3 1.61-.38 2.44-.34 1.45.07 2.85.43 4.21.9.61.211 1.21.461 1.83.671.24.08.27.23.2.43-.37 1.082-.73 2.163-1.12 3.234-.14.39-.34.761-.52 1.142-.12.25-.25.28-.47.13-.89-.62-1.8-1.202-2.8-1.642-.53-.24-1.07-.44-1.66-.43-.55.01-.9.26-1.08.78-.18.511-.19 1.032-.16 1.562.03.48.11.951.17 1.432-.01 0 0 0 .02-.01zM79.59 5.488c-.11-.29-.22-.581-.34-.861-.06-.15-.05-.28.1-.35 1.32-.631 2.69-1.082 4.15-1.272.25-.03.35.08.38.29.16 1.101.34 2.213.47 3.314.14 1.181.1 2.362-.18 3.524-.29 1.191-.89 2.162-1.93 2.833-.71.45-1.5.7-2.32.83-1.44.23-2.87.16-4.31-.02-.64-.08-1.28-.2-1.92-.29-.25-.03-.31-.17-.28-.38.14-1.131.28-2.263.44-3.394.06-.41.18-.81.27-1.221.06-.27.18-.33.44-.22 1 .42 2.01.81 3.07 1.04.57.12 1.14.211 1.72.08.53-.12.83-.44.9-.98.07-.53-.02-1.051-.16-1.562-.13-.46-.3-.91-.46-1.371-.02 0-.03 0-.04.01zM78.95 23.988c-.1.29-.19.59-.29.88-.05.15-.04.281.12.341 1.35.56 2.75.921 4.22 1.031.25.02.34-.1.36-.31.1-1.111.21-2.223.28-3.344.07-1.181-.03-2.362-.38-3.504-.35-1.17-1.01-2.112-2.09-2.723-.73-.41-1.54-.61-2.37-.7-1.45-.15-2.88.01-4.3.26-.64.11-1.27.27-1.91.39-.25.05-.3.19-.26.4.21 1.122.41 2.243.63 3.364.08.411.23.801.34 1.202.08.26.2.32.45.2.97-.48 1.96-.921 3.01-1.211.56-.15 1.12-.28 1.71-.18.54.09.85.39.96.93.1.531.04 1.052-.07 1.562-.1.47-.25.931-.38 1.392-.01.03-.02.02-.03.02zM12.77 50.547c0 .26 0 .52.01.77 0 .14-.04.23-.19.24-1.22.1-2.42.03-3.61-.26-.21-.05-.25-.17-.21-.34.21-.911.4-1.822.63-2.723.25-.961.63-1.862 1.19-2.683.58-.84 1.34-1.422 2.35-1.622.69-.14 1.37-.09 2.05.05 1.19.25 2.28.741 3.34 1.312.48.25.94.54 1.41.8.18.1.19.23.11.381-.45.841-.9 1.682-1.36 2.513-.17.3-.38.58-.58.87-.13.191-.24.201-.4.04-.65-.63-1.32-1.23-2.08-1.731-.4-.27-.82-.51-1.31-.58-.45-.07-.78.1-1 .49-.22.39-.3.82-.34 1.261-.04.4-.04.801-.06 1.201.03.01.04.01.05.01zM2.97 42.248c-.25-.04-.51-.09-.76-.13-.13-.02-.22-.08-.21-.23.12-1.212.39-2.393.88-3.515.09-.2.21-.21.37-.15.86.36 1.72.71 2.57 1.091.9.41 1.72.941 2.43 1.642.72.71 1.16 1.562 1.19 2.603.02.7-.15 1.371-.41 2.012-.45 1.121-1.13 2.122-1.87 3.074-.33.43-.69.83-1.03 1.25-.13.161-.26.151-.4.04-.75-.59-1.5-1.17-2.23-1.771-.27-.22-.5-.48-.75-.72-.16-.161-.15-.271.03-.411.73-.53 1.44-1.092 2.07-1.752.33-.35.64-.721.8-1.191.14-.43.04-.781-.31-1.072-.35-.28-.76-.44-1.18-.55-.39-.11-.78-.18-1.17-.26-.01.02-.01.03-.02.04zM20.97 39.685l.77-.03c.14-.01.23.03.25.18.13 1.211.11 2.423-.14 3.614-.04.21-.16.25-.33.22-.91-.18-1.83-.34-2.74-.55-.96-.22-1.88-.571-2.72-1.112-.85-.55-1.46-1.291-1.69-2.302-.16-.68-.13-1.372-.01-2.052.21-1.192.67-2.303 1.2-3.384.24-.48.51-.951.76-1.432.09-.19.22-.2.38-.12.85.42 1.7.841 2.55 1.282.31.16.59.37.88.55.19.12.21.23.05.4-.61.671-1.19 1.362-1.67 2.133-.25.41-.48.84-.54 1.331-.05.45.12.771.52.982.4.2.83.27 1.27.3.4.03.8.01 1.2.02.01-.01.01-.02.01-.03zM6.61 34.079c-.2-.16-.41-.31-.61-.47-.11-.08-.21-.11-.31 0-.81.91-1.49 1.911-1.98 3.033-.09.2-.01.3.14.37.85.38 1.69.78 2.55 1.141.91.38 1.86.62 2.86.671 1.02.05 1.94-.21 2.71-.891.53-.46.9-1.041 1.2-1.672.52-1.101.79-2.262.98-3.454.09-.53.14-1.07.22-1.611.03-.21-.06-.29-.24-.32-.94-.15-1.88-.3-2.82-.431-.34-.05-.69-.04-1.04-.06-.23-.01-.3.07-.28.3.11.901.19 1.802.12 2.703-.03.48-.09.961-.33 1.392-.22.4-.55.56-1 .49-.44-.06-.84-.26-1.21-.49-.34-.21-.66-.45-.99-.681.02-.01.03-.02.03-.02z"/>
</svg>
