<svg xmlns="http://www.w3.org/2000/svg" width="110" height="110" fill="none" viewBox="0 0 110 110">
    <path fill="#69B70C" stroke="#000" stroke-miterlimit="10" stroke-width="2" d="M73.84 67.198c-1.88-2.555-3-6.125-4.16-8.7-1.88-4.196-5.07-7.965-8.49-11.167-12.74-11.902-36-9.625-44.92 5.618C3.58 74.636 6.23 95.507 6.23 95.507S6.23 109 23.55 109h53.73c15.53 0 22.67-16.327 13.97-29.134-3.59-5.27-9.94-7.14-15.09-10.42-.9-.567-1.66-1.343-2.32-2.248z"/>
    <path fill="#000" d="M27.87 65c1.867 0 3.38-1.504 3.38-3.36 0-1.857-1.513-3.361-3.38-3.361s-3.38 1.504-3.38 3.36c0 1.857 1.513 3.361 3.38 3.361zM45.24 61.421c1.867 0 3.38-1.505 3.38-3.36 0-1.857-1.513-3.361-3.38-3.361s-3.38 1.504-3.38 3.36c0 1.856 1.513 3.361 3.38 3.361z"/>
    <path stroke="#000" stroke-linecap="round" stroke-linejoin="round" stroke-miterlimit="10" stroke-width="2" d="M35.85 63.658l.2 9.427 6.77-1.213-2.89-8.95-6.04 1.085"/>
    <path fill="#EF0033" stroke="#000" stroke-miterlimit="10" stroke-width="1.5" d="M61.3 53.397c-1.66-.398-2.68-2.048-2.29-3.699l3.44-14.338c.4-1.65 2.06-2.665 3.72-2.277 1.66.397 2.68 2.048 2.29 3.699L65.02 51.12c-.4 1.65-2.06 2.675-3.72 2.277zM67.31 54.829c-1.66-.398-2.68-2.049-2.29-3.7l3.44-14.337c.4-1.651 2.06-2.665 3.72-2.278 1.66.398 2.68 2.049 2.29 3.7l-3.44 14.338c-.4 1.65-2.07 2.665-3.72 2.277z"/>
    <path fill="#EF0033" stroke="#000" stroke-miterlimit="10" stroke-width="1.5" d="M73.31 56.25c-1.66-.397-2.68-2.048-2.29-3.698l3.44-14.339c.4-1.65 2.06-2.664 3.72-2.277 1.66.398 2.68 2.049 2.29 3.7l-3.44 14.338c-.39 1.65-2.06 2.674-3.72 2.277zM84.7 58.955c-1.66-.398-2.68-2.048-2.29-3.699l3.44-14.338c.4-1.65 2.06-2.665 3.72-2.277 1.66.398 2.68 2.048 2.29 3.699l-3.44 14.338c-.4 1.65-2.06 2.665-3.72 2.277z"/>
    <path fill="#EF0033" stroke="#000" stroke-miterlimit="10" stroke-width="1.5" d="M90.7 60.377c-1.66-.398-2.68-2.048-2.29-3.699l3.44-14.338c.4-1.65 2.06-2.665 3.72-2.277 1.66.398 2.68 2.048 2.29 3.699L94.42 58.1c-.39 1.65-2.06 2.675-3.72 2.277z"/>
    <path fill="#EF0033" stroke="#000" stroke-miterlimit="10" stroke-width="1.5" d="M96.71 61.809c-1.66-.398-2.68-2.048-2.29-3.699l3.44-14.338c.4-1.65 2.06-2.665 3.72-2.277 1.66.397 2.68 2.048 2.29 3.699l-3.44 14.338c-.4 1.65-2.06 2.665-3.72 2.277z"/>
    <path fill="#fff" stroke="#000" stroke-miterlimit="10" stroke-width="1.5" d="M72.57 84.948c-1.66-.397-2.68-2.048-2.29-3.699l10.98-45.71c.4-1.65 2.06-2.664 3.72-2.276 1.66.398 2.68 2.048 2.29 3.699l-10.98 45.71c-.4 1.65-2.07 2.664-3.72 2.276z"/>
    <path fill="#EF0033" stroke="#000" stroke-miterlimit="10" stroke-width="1.5" d="M86.595 39.94l-5.943-1.41-3.957 16.48 5.944 1.412 3.956-16.481z"/>
    <path stroke="#000" stroke-linecap="round" stroke-linejoin="round" stroke-miterlimit="10" stroke-width="1.5" d="M25.19 69.197c4.197 0 7.6-3.383 7.6-7.557s-3.403-7.557-7.6-7.557c-4.197 0-7.6 3.383-7.6 7.557s3.403 7.557 7.6 7.557zM48.21 64.901c4.197 0 7.6-3.383 7.6-7.557 0-4.173-3.403-7.557-7.6-7.557-4.197 0-7.6 3.384-7.6 7.557 0 4.174 3.403 7.557 7.6 7.557zM32.66 60.248s3.82-3.48 8.08-1.511"/>
</svg>
