<svg xmlns="http://www.w3.org/2000/svg" width="110" height="110" fill="none" viewBox="0 0 110 110">
    <path fill="#69B70C" stroke="#000" stroke-miterlimit="10" stroke-width="2" d="M78.84 67.198c-1.88-2.555-3-6.125-4.16-8.7-1.88-4.196-5.07-7.965-8.49-11.167-12.74-11.902-36-9.625-44.92 5.618C8.58 74.636 11.23 95.507 11.23 95.507S11.23 109 28.55 109h53.73c15.53 0 22.67-16.327 13.97-29.134-3.59-5.27-9.94-7.14-15.09-10.42-.9-.567-1.66-1.343-2.32-2.248z"/>
    <path fill="#000" d="M32.87 65c1.867 0 3.38-1.504 3.38-3.36 0-1.857-1.513-3.361-3.38-3.361s-3.38 1.504-3.38 3.36c0 1.857 1.513 3.361 3.38 3.361zM50.24 61.421c1.867 0 3.38-1.505 3.38-3.36 0-1.857-1.513-3.361-3.38-3.361s-3.38 1.504-3.38 3.36c0 1.856 1.513 3.361 3.38 3.361z"/>
    <path stroke="#000" stroke-linecap="round" stroke-linejoin="round" stroke-miterlimit="10" stroke-width="2" d="M40.85 63.658l.2 9.427 6.77-1.213-2.89-8.95-6.04 1.085"/>
    <path fill="#EF0033" stroke="#000" stroke-miterlimit="10" stroke-width="2" d="M66.3 53.397c-1.66-.398-2.68-2.048-2.29-3.699l3.44-14.338c.4-1.65 2.06-2.665 3.72-2.277 1.66.397 2.68 2.048 2.29 3.699L70.02 51.12c-.4 1.65-2.06 2.675-3.72 2.277zM72.31 54.829c-1.66-.398-2.68-2.049-2.29-3.7l3.44-14.337c.4-1.651 2.06-2.665 3.72-2.278 1.66.398 2.68 2.049 2.29 3.7l-3.44 14.338c-.4 1.65-2.07 2.665-3.72 2.277z"/>
    <path fill="#EF0033" stroke="#000" stroke-miterlimit="10" stroke-width="2" d="M78.31 56.25c-1.66-.397-2.68-2.048-2.29-3.698l3.44-14.339c.4-1.65 2.06-2.664 3.72-2.277 1.66.398 2.68 2.049 2.29 3.7l-3.44 14.338c-.39 1.65-2.06 2.674-3.72 2.277zM89.7 58.955c-1.66-.398-2.68-2.048-2.29-3.699l3.44-14.338c.4-1.65 2.06-2.665 3.72-2.277 1.66.398 2.68 2.048 2.29 3.699l-3.44 14.338c-.4 1.65-2.06 2.665-3.72 2.277z"/>
    <path fill="#EF0033" stroke="#000" stroke-miterlimit="10" stroke-width="2" d="M95.7 60.377c-1.66-.398-2.68-2.048-2.29-3.699l3.44-14.338c.4-1.65 2.06-2.665 3.72-2.277 1.66.398 2.68 2.048 2.29 3.699L99.42 58.1c-.39 1.65-2.06 2.675-3.72 2.277z"/>
    <path fill="#EF0033" stroke="#000" stroke-miterlimit="10" stroke-width="2" d="M101.71 61.809c-1.66-.398-2.68-2.048-2.29-3.699l3.44-14.338c.4-1.65 2.06-2.665 3.72-2.277 1.66.397 2.68 2.048 2.29 3.699l-3.44 14.338c-.4 1.65-2.06 2.665-3.72 2.277z"/>
    <path fill="#fff" stroke="#000" stroke-miterlimit="10" stroke-width="2" d="M77.57 84.948c-1.66-.397-2.68-2.048-2.29-3.699l10.98-45.71c.4-1.65 2.06-2.664 3.72-2.276 1.66.398 2.68 2.048 2.29 3.699l-10.98 45.71c-.4 1.65-2.07 2.664-3.72 2.276z"/>
    <path fill="#EF0033" stroke="#000" stroke-miterlimit="10" stroke-width="2" d="M91.595 39.94l-5.943-1.41-3.957 16.48 5.944 1.412 3.956-16.481z"/>
    <path fill="#fff" stroke="#000" stroke-linecap="round" stroke-linejoin="round" stroke-miterlimit="10" stroke-width="2" d="M53.008 24.994L51.892 34l6.502-7.131s5.945 3.565 8.917-2.817c0 0 4.19-.972 4.646-5.062 0 0 .934-5.625-5.944-4.693 0 0-3.53-9.006-10.581-.942 0 0-3.713-3.187-6.503.748 0 0-2.79 3.75 1.299 5.82 0 0-3.53 4.877 2.78 5.07zM36.69 23.86L38.315 37l-9.482-10.397s-8.663 5.203-13.005-4.105c0 0-6.767-1.014-6.767-7.392 0 0-1.358-8.209 8.663-6.837 0 0 5.15-13.14 15.441-1.372 0 0 5.42-4.649 9.482 1.1 0 0 4.062 5.475-1.896 8.48 0 0 5.14 7.1-4.063 7.383z"/>
</svg>
