<svg xmlns="http://www.w3.org/2000/svg" width="110" height="110" fill="none" viewBox="0 0 110 110">
    <path fill="#69B70C" stroke="#000" stroke-miterlimit="10" stroke-width="2" d="M78.84 67.198c-1.88-2.555-3-6.125-4.16-8.7-1.88-4.196-5.07-7.965-8.49-11.167-12.74-11.902-36-9.625-44.92 5.618C8.58 74.636 11.23 95.507 11.23 95.507S11.23 109 28.55 109h53.73c15.53 0 22.67-16.327 13.97-29.134-3.59-5.27-9.94-7.14-15.09-10.42-.9-.567-1.66-1.343-2.32-2.248z"/>
    <path fill="#000" d="M32.87 65c1.867 0 3.38-1.504 3.38-3.36 0-1.857-1.513-3.361-3.38-3.361s-3.38 1.504-3.38 3.36c0 1.857 1.513 3.361 3.38 3.361zM50.24 61.421c1.867 0 3.38-1.505 3.38-3.36 0-1.857-1.513-3.361-3.38-3.361s-3.38 1.504-3.38 3.36c0 1.856 1.513 3.361 3.38 3.361z"/>
    <path stroke="#000" stroke-linecap="round" stroke-linejoin="round" stroke-miterlimit="10" stroke-width="2" d="M40.85 63.658l.2 9.427 6.77-1.213-2.89-8.95-6.04 1.085"/>
    <path fill="#EF0033" stroke="#000" stroke-linejoin="round" stroke-miterlimit="10" stroke-width="2" d="M99.566 33.711c.284-.097.567-.205.85-.313.147-.058.274-.049.342.118.577 1.31.977 2.67 1.114 4.098.03.245-.088.343-.293.362-1.085.127-2.17.264-3.254.362-1.153.098-2.306.03-3.43-.284-1.153-.313-2.09-.929-2.706-1.975-.42-.705-.635-1.487-.743-2.3-.186-1.408-.068-2.816.147-4.215.097-.626.234-1.252.332-1.869.039-.244.176-.303.381-.264 1.104.176 2.199.343 3.303.528.4.069.791.196 1.182.304.254.068.313.186.205.43-.44.968-.85 1.937-1.104 2.974-.137.548-.244 1.105-.137 1.673.098.528.41.821.938.91.518.087 1.026.01 1.525-.108.459-.118.899-.264 1.348-.401.01-.01.01-.02 0-.03zM94.212 47.787c.048.304.097.597.156.9.03.157 0 .274-.166.313-1.388.343-2.795.5-4.221.392-.254-.02-.313-.147-.303-.353.068-1.085.117-2.18.215-3.267.107-1.154.37-2.279.87-3.335.507-1.076 1.28-1.898 2.413-2.328.772-.294 1.573-.372 2.384-.333 1.417.068 2.785.42 4.114.88.596.206 1.182.45 1.788.656.234.078.264.225.195.42-.361 1.057-.713 2.113-1.094 3.16-.137.381-.332.743-.508 1.115-.117.245-.244.274-.46.127-.869-.606-1.758-1.174-2.735-1.604-.518-.235-1.046-.43-1.622-.42-.538.01-.88.254-1.056.762-.176.5-.185 1.008-.156 1.526.03.47.107.93.166 1.4-.01 0 0 0 .02-.01zM84.391 28.86c-.107-.284-.215-.568-.332-.842-.058-.147-.049-.274.098-.342 1.29-.617 2.628-1.057 4.055-1.243.244-.03.342.079.371.284.157 1.076.332 2.162.46 3.238.136 1.154.097 2.308-.176 3.443-.284 1.164-.87 2.113-1.886 2.768-.694.44-1.466.685-2.267.812-1.407.225-2.805.157-4.212-.02-.625-.078-1.25-.195-1.876-.283-.244-.03-.303-.166-.273-.372.136-1.105.273-2.21.43-3.316.058-.4.175-.792.263-1.193.059-.264.176-.323.43-.215.978.41 1.964.792 3 1.017.557.117 1.114.205 1.68.078.519-.117.812-.43.88-.959.069-.518-.02-1.027-.156-1.526-.127-.45-.293-.89-.45-1.34-.02 0-.029 0-.039.01zM83.766 46.936c-.098.284-.186.578-.283.861-.05.147-.04.274.117.333 1.319.548 2.687.9 4.123 1.007.245.02.333-.098.352-.303.098-1.086.205-2.172.274-3.267.068-1.154-.03-2.309-.372-3.424-.342-1.144-.987-2.064-2.042-2.66-.713-.402-1.505-.597-2.316-.685-1.416-.147-2.814.01-4.201.254-.626.108-1.241.264-1.867.382-.244.049-.293.185-.254.39.206 1.096.401 2.192.616 3.288.078.4.225.782.332 1.173.078.255.196.313.44.196.948-.47 1.915-.9 2.941-1.184.547-.146 1.094-.273 1.67-.176.529.088.831.382.939.91.098.519.039 1.027-.068 1.526-.098.46-.245.91-.372 1.36-.01.03-.02.02-.029.02zM11.524 48.97c0 .254 0 .508.01.753 0 .137-.039.225-.186.235-1.192.098-2.364.03-3.527-.255-.205-.049-.244-.166-.205-.332.205-.89.39-1.78.616-2.66.244-.94.615-1.82 1.162-2.622.567-.822 1.31-1.39 2.297-1.585.674-.137 1.338-.088 2.003.049 1.162.244 2.228.724 3.263 1.281.47.245.919.528 1.378.783.176.098.186.225.108.372-.44.821-.88 1.643-1.33 2.455-.165.293-.37.567-.566.85-.127.187-.235.196-.39.04-.636-.616-1.29-1.203-2.033-1.692-.391-.265-.802-.5-1.28-.568-.44-.068-.763.098-.977.48-.216.381-.294.802-.333 1.232-.039.391-.039.783-.058 1.174.029.01.039.01.048.01zM1.949 40.86c-.245-.039-.499-.087-.743-.127-.127-.02-.215-.078-.205-.225.117-1.183.38-2.338.86-3.433.088-.196.205-.205.361-.147.84.352 1.68.695 2.511 1.067.88.4 1.681.919 2.375 1.604.703.694 1.133 1.526 1.163 2.543.02.685-.147 1.34-.401 1.966-.44 1.096-1.104 2.074-1.827 3.003-.323.42-.674.812-1.007 1.223-.127.156-.254.147-.39.04-.733-.578-1.466-1.145-2.18-1.732-.263-.216-.488-.47-.732-.705-.157-.156-.147-.264.029-.4.713-.52 1.407-1.067 2.023-1.712.322-.343.625-.705.781-1.165.137-.42.04-.762-.303-1.046-.342-.274-.742-.43-1.153-.538-.38-.108-.762-.176-1.143-.255-.01.02-.01.03-.02.04zM19.537 38.356l.752-.029c.137-.01.225.03.245.176.127 1.184.107 2.367-.137 3.532-.04.205-.156.244-.323.215-.889-.176-1.788-.333-2.677-.538-.938-.216-1.837-.558-2.658-1.086-.83-.538-1.426-1.262-1.651-2.25-.156-.665-.127-1.34-.01-2.005.205-1.164.655-2.25 1.173-3.307.234-.47.498-.929.742-1.398.088-.186.215-.196.372-.118.83.411 1.66.822 2.491 1.252.303.157.577.362.86.538.186.118.205.225.049.392-.596.655-1.163 1.33-1.632 2.083-.244.401-.469.822-.527 1.301-.05.44.117.753.508.959.39.195.81.264 1.24.293.392.03.782.01 1.173.02.01-.01.01-.02.01-.03zM5.505 32.879c-.195-.157-.4-.304-.596-.46-.107-.078-.205-.108-.303 0-.791.89-1.456 1.868-1.934 2.964-.088.195-.01.293.136.362.831.372 1.652.763 2.492 1.115.89.372 1.818.606 2.795.655.996.05 1.895-.205 2.648-.87.518-.45.88-1.018 1.172-1.634.508-1.076.772-2.21.958-3.375.088-.518.137-1.046.215-1.575.03-.205-.059-.283-.235-.313-.918-.146-1.837-.293-2.755-.42-.332-.05-.674-.04-1.016-.059-.225-.01-.294.069-.274.294.108.88.186 1.76.117 2.64-.029.47-.088.94-.322 1.36-.215.392-.538.548-.977.48-.43-.059-.821-.255-1.183-.48-.332-.205-.645-.44-.967-.665.02-.01.03-.02.03-.02z"/>
    <path fill="#fff" stroke="#000" stroke-linecap="round" stroke-linejoin="round" stroke-miterlimit="10" stroke-width="2" d="M53.008 24.994L51.892 34l6.502-7.131s5.945 3.565 8.917-2.817c0 0 4.19-.972 4.646-5.062 0 0 .934-5.625-5.944-4.693 0 0-3.53-9.006-10.581-.942 0 0-3.713-3.187-6.503.748 0 0-2.79 3.75 1.299 5.82 0 0-3.53 4.877 2.78 5.07zM36.69 23.86L38.315 37l-9.482-10.397s-8.663 5.203-13.005-4.105c0 0-6.767-1.014-6.767-7.392 0 0-1.358-8.209 8.663-6.837 0 0 5.15-13.14 15.441-1.372 0 0 5.42-4.649 9.482 1.1 0 0 4.062 5.475-1.896 8.48 0 0 5.14 7.1-4.063 7.383z"/>
</svg>
