<svg xmlns="http://www.w3.org/2000/svg" width="110" height="110" fill="none" viewBox="0 0 110 110">
    <path fill="#69B70C" stroke="#000" stroke-miterlimit="10" stroke-width="2" d="M81.804 67.029c-1.88-2.566-3-6.15-4.16-8.736-1.88-4.213-5.07-7.997-8.49-11.212-12.74-11.95-36-9.664-44.92 5.641-12.69 21.774-10.04 42.73-10.04 42.73s0 13.548 17.32 13.548h53.73c15.53 0 22.67-16.393 13.97-29.252-3.59-5.291-9.94-7.168-15.09-10.463-.9-.569-1.66-1.348-2.32-2.256z"/>
    <path fill="#000" d="M35.834 64.822c1.867 0 3.38-1.51 3.38-3.374s-1.513-3.375-3.38-3.375-3.38 1.511-3.38 3.375c0 1.863 1.513 3.374 3.38 3.374zM53.204 61.238c1.867 0 3.38-1.51 3.38-3.374s-1.513-3.375-3.38-3.375-3.38 1.511-3.38 3.375c0 1.863 1.513 3.374 3.38 3.374z"/>
    <path stroke="#000" stroke-linecap="round" stroke-linejoin="round" stroke-miterlimit="10" stroke-width="2" d="M43.814 63.475l.2 9.474 6.77-1.228-2.89-8.985-6.04 1.098"/>
    <path stroke="#000" stroke-linecap="round" stroke-linejoin="round" stroke-miterlimit="10" stroke-width="1.5" d="M33.154 69.045c4.197 0 7.6-3.397 7.6-7.587 0-4.19-3.403-7.588-7.6-7.588-4.197 0-7.6 3.397-7.6 7.588 0 4.19 3.403 7.587 7.6 7.587zM56.174 64.722c4.197 0 7.6-3.397 7.6-7.587 0-4.19-3.403-7.588-7.6-7.588-4.197 0-7.6 3.397-7.6 7.588 0 4.19 3.403 7.587 7.6 7.587zM40.624 60.05s3.82-3.494 8.08-1.517"/>
    <path fill="#fff" stroke="#000" stroke-linecap="round" stroke-linejoin="round" stroke-miterlimit="10" stroke-width="1.5" d="M51.774 25.466l-1.16 9.255 6.76-7.328s6.18 3.664 9.27-2.895c0 0 4.356-.998 4.83-5.201 0 0 .97-5.78-6.18-4.822 0 0-3.67-9.255-11-.969 0 0-3.86-3.274-6.76.769 0 0-2.9 3.853 1.35 5.98 0 0-3.67 5.012 2.89 5.212zM35.764 24.438l1.69 13.488-9.85-10.672s-9 5.341-13.51-4.213c0 0-7.03-1.041-7.03-7.588 0 0-1.41-8.426 9-7.018 0 0 5.35-13.488 16.04-1.408 0 0 5.63-4.772 9.85 1.128 0 0 4.22 5.62-1.97 8.706 0 0 5.34 7.288-4.22 7.577z"/>
</svg>
