<svg xmlns="http://www.w3.org/2000/svg" width="110" height="110" fill="none" viewBox="0 0 110 110">
    <path fill="#69B70C" stroke="#000" stroke-miterlimit="10" stroke-width="2" d="M81.804 67.033c-1.88-2.566-3-6.15-4.16-8.735-1.88-4.213-5.07-7.996-8.49-11.21-12.74-11.95-36-9.664-44.92 5.64-12.69 21.772-10.04 42.726-10.04 42.726s0 13.546 17.32 13.546h53.73c15.53 0 22.67-16.391 13.97-29.25-3.59-5.29-9.94-7.167-15.09-10.461-.9-.57-1.66-1.348-2.32-2.256z"/>
    <path fill="#000" d="M35.834 64.826c1.867 0 3.38-1.51 3.38-3.374 0-1.863-1.513-3.374-3.38-3.374s-3.38 1.51-3.38 3.374 1.513 3.374 3.38 3.374zM53.204 61.243c1.867 0 3.38-1.511 3.38-3.375 0-1.863-1.513-3.374-3.38-3.374s-3.38 1.511-3.38 3.374c0 1.864 1.513 3.375 3.38 3.375z"/>
    <path stroke="#000" stroke-linecap="round" stroke-linejoin="round" stroke-miterlimit="10" stroke-width="2" d="M43.814 63.479l.2 9.474 6.77-1.228-2.89-8.985-6.04 1.088"/>
    <path fill="#fff" stroke="#000" stroke-linecap="round" stroke-linejoin="round" stroke-miterlimit="10" stroke-width="1.5" d="M51.774 25.464l-1.16 9.254 6.76-7.327s6.18 3.664 9.27-2.895c0 0 4.83.004 4.83-5.2 0 0 .97-5.78-6.18-4.823 0 0-3.67-9.254-11-.968 0 0-3.86-3.274-6.76.769 0 0-2.9 3.853 1.35 5.98 0 .01-3.67 5.02 2.89 5.21zM35.764 24.436l1.69 13.487-9.85-10.672s-9 5.341-13.51-4.212c0 0-7.03-.539-7.03-7.587 0 0-1.41-8.426 9-7.018 0 0 5.35-13.487 16.04-1.408 0 0 5.63-4.771 9.85 1.128 0 0 4.22 5.62-1.97 8.705 0 0 5.34 7.298-4.22 7.577z"/>
</svg>
