<svg xmlns="http://www.w3.org/2000/svg" width="316" height="584" fill="none" viewBox="0 0 316 584">
    <path fill="#fff" stroke="#000" stroke-linecap="round" stroke-linejoin="round" stroke-miterlimit="10" stroke-width="1.5" d="M284.99 234.25H27.29c-.59 0-1.07-.48-1.07-1.07v-78.55c0-14.6 11.84-26.44 26.44-26.44H259.9c14.46 0 26.17 11.72 26.17 26.17v78.81c-.01.6-.49 1.08-1.08 1.08z"/>
    <path fill="#fff" stroke="#000" stroke-linecap="round" stroke-linejoin="round" stroke-miterlimit="10" stroke-width="1.5" d="M116.81 230.36c-4-1.29-6.19-5.58-4.9-9.57l20.39-63.08c1.29-4 5.58-6.19 9.57-4.9 4 1.29 6.19 5.58 4.9 9.57l-20.39 63.08c-1.29 4-5.58 6.2-9.57 4.9zM273.23 230.73c4-1.29 6.19-5.58 4.9-9.57l-20.39-63.08c-1.29-4-5.58-6.19-9.57-4.9-4 1.29-6.19 5.58-4.9 9.57l20.39 63.08c1.28 4 5.57 6.19 9.57 4.9z"/>
    <path fill="#fff" stroke="#000" stroke-linecap="round" stroke-linejoin="round" stroke-miterlimit="10" stroke-width="1.5" d="M290.2 160H107.06c-3.64 0-6.58-2.95-6.58-6.58 0-3.64 2.95-6.58 6.58-6.58H290.2c3.64 0 6.58 2.95 6.58 6.58.01 3.63-2.94 6.58-6.58 6.58zM299.86 221.39H15.17v107.09h284.69V221.39z"/>
    <path stroke="#000" stroke-linecap="round" stroke-linejoin="round" stroke-miterlimit="10" stroke-width="1.5" d="M42.59 322.27c-1.42 4.6-5.73 7.26-9.62 5.94-3.89-1.32-5.9-6.13-4.48-10.73l12.44-40.34c1.42-4.6 5.73-7.26 9.62-5.94 3.89 1.32 5.9 6.13 4.48 10.73l-12.44 40.34zM219.89 323.38c1.42 4.6 5.73 7.26 9.62 5.94 3.89-1.32 5.9-6.13 4.48-10.73l-12.44-40.34c-1.42-4.6-5.73-7.26-9.62-5.94-3.89 1.32-5.9 6.13-4.48 10.73l12.44 40.34z"/>
    <path fill="#fff" d="M313.65 488.39c0 8.17-6.62 14.79-14.79 14.79H17.8c-8.17.01-14.8-6.62-14.8-14.79v-156.8c0-8.17 6.62-14.79 14.79-14.79h281.06c8.17 0 14.79 6.62 14.79 14.79v156.8h.01z"/>
    <path stroke="#000" stroke-linecap="round" stroke-linejoin="round" stroke-miterlimit="10" stroke-width="1.5" d="M313.65 488.39c0 8.17-6.62 14.79-14.79 14.79H17.8c-8.17.01-14.8-6.62-14.8-14.79v-156.8c0-8.17 6.62-14.79 14.79-14.79h281.06c8.17 0 14.79 6.62 14.79 14.79v156.8h.01z"/>
    <path fill="#fff" d="M209.75 38.35h35.79c5.57 0 .66-9.16-.26-10.46-5.74-8.07-8.45-8.85-17.39-4.99-3.82 1.65-9.31.89-12.19 4.14-1.56 1.76-4.19 1.83-6 3.24-3.41 2.65-1.37 3.75-6.86 3.55 0 0-4.21-.28-4.21 4.52h3.53"/>
    <path stroke="#333" stroke-linecap="round" stroke-linejoin="round" stroke-miterlimit="10" stroke-width="1.5" d="M209.75 38.35h35.79c5.57 0 .66-9.16-.26-10.46-5.74-8.07-8.45-8.85-17.39-4.99-3.82 1.65-9.31.89-12.19 4.14-1.56 1.76-4.19 1.83-6 3.24-3.41 2.65-1.37 3.75-6.86 3.55 0 0-4.21-.28-4.21 4.52h3.53"/>
    <path fill="#fff" d="M231.78 77.6h70.88s7.51-3.95.02-9.09c-3.25-2.23-6.59-.1-9.98-1.11-4.23-1.26-4.92-5.03-7.58-8.02-2.81-3.15-7.03-5.5-10.89-7.07-7.82-3.17-16.74-3.45-24.71-.65-8.91 3.14-19.86 1.98-20.52 14.45 0 .01-7.12 7.13 2.78 11.49z"/>
    <path stroke="#333" stroke-linecap="round" stroke-linejoin="round" stroke-miterlimit="10" stroke-width="1.5" d="M231.78 77.6h70.88s7.51-3.95.02-9.09c-3.25-2.23-6.59-.1-9.98-1.11-4.23-1.26-4.92-5.03-7.58-8.02-2.81-3.15-7.03-5.5-10.89-7.07-7.82-3.17-16.74-3.45-24.71-.65-8.91 3.14-19.86 1.98-20.52 14.45 0 .01-7.12 7.13 2.78 11.49z"/>
    <path fill="#fff" d="M36.17 85.61h98.66c-.31-2.56-1.26-5.05-2.73-7.17-2.77-4-7.89-4.4-11.23-7.63-2.76-2.67-4.68-6.17-7.71-8.83-11.28-9.92-25.45-12.66-38.2-4.29-6.12 4.02-11.55 6.04-18.94 6.41-6.77.35-10.26 1.96-15.76 5.39-4.86 3.03-9.57 1.88-15.3 3.33-3.64.92-7.16 2.48-9.97 5.02-.77.7-5.33 7.76-5.19 7.76h16.53"/>
    <path stroke="#333" stroke-linecap="round" stroke-linejoin="round" stroke-miterlimit="10" stroke-width="1.5" d="M36.17 85.61h98.66c-.31-2.56-1.26-5.05-2.73-7.17-2.77-4-7.89-4.4-11.23-7.63-2.76-2.67-4.68-6.17-7.71-8.83-11.28-9.92-25.45-12.66-38.2-4.29-6.12 4.02-11.55 6.04-18.94 6.41-6.77.35-10.26 1.96-15.76 5.39-4.86 3.03-9.57 1.88-15.3 3.33-3.64.92-7.16 2.48-9.97 5.02-.77.7-5.33 7.76-5.19 7.76h16.53"/>
    <path fill="#fff" stroke="#000" stroke-linecap="round" stroke-linejoin="round" stroke-miterlimit="10" stroke-width="1.5" d="M306.13 235.86H10.52c-4.15 0-7.52-3.37-7.52-7.52 0-4.15 3.37-7.52 7.52-7.52h295.61c4.15 0 7.52 3.37 7.52 7.52 0 4.15-3.36 7.52-7.52 7.52zM246.36 280.13H16.68c-3.64 0-6.58-2.95-6.58-6.58 0-3.64 2.95-6.58 6.58-6.58h229.68c3.64 0 6.58 2.95 6.58 6.58s-2.95 6.58-6.58 6.58zM40.62 499.11c-3.64-1.44-5.42-5.56-3.98-9.2l17.97-45.39c1.44-3.64 5.56-5.42 9.2-3.98 3.64 1.44 5.42 5.56 3.98 9.2l-17.97 45.39c-1.44 3.63-5.56 5.42-9.2 3.98zM150 450.15c-3.64-1.44-5.42-5.56-3.98-9.2l16.75-42.3c1.44-3.64 5.56-5.42 9.2-3.98 3.64 1.44 5.42 5.56 3.98 9.2l-16.75 42.3c-1.45 3.63-5.56 5.42-9.2 3.98zM280.88 448.6c3.64-1.44 5.42-5.56 3.98-9.2l-16.75-42.3c-1.44-3.64-5.56-5.42-9.2-3.98-3.64 1.44-5.42 5.56-3.98 9.2l16.75 42.3c1.44 3.64 5.56 5.42 9.2 3.98zM271.29 499.11c3.64-1.44 5.42-5.56 3.98-9.2l-17.97-45.39c-1.44-3.64-5.56-5.42-9.2-3.98-3.64 1.44-5.42 5.56-3.98 9.2l17.97 45.39c1.44 3.63 5.56 5.42 9.2 3.98z"/>
    <path fill="#fff" d="M-4.29 483.15h9.25l4.64-7.08 4.13 7.08 5.16-3.54 4.13 3.54H41.6l5.68-7.08 4.13 7.08 5.68-3.54 5.16 3.54h211.62l4.13-3.54 4.13 3.54 4.13-3.54 5.16 3.54h5.68l6.19-7.08 5.68 7.08h10.28v26H-4.29v-26z"/>
    <path stroke="#000" stroke-linecap="round" stroke-linejoin="round" stroke-miterlimit="10" stroke-width="1.5" d="M-2.74 483.46h8.27l4.65-7.39 4.13 7.39 5.17-3.7 4.14 3.7h18.6l5.69-7.39 4.13 7.39 5.69-3.7 5.17 3.7h211.9l4.13-3.7 4.14 3.7 4.13-3.7 5.17 3.7h5.69l6.2-7.39 5.68 7.39h9.31"/>
    <path fill="#fff" d="M319.25 486.74H-2.74v99.8h321.99v-99.8z"/>
    <path fill="#fff" stroke="#000" stroke-linecap="round" stroke-linejoin="round" stroke-miterlimit="10" stroke-width="1.5" d="M299.85 446.98c0 2.95-2.39 5.34-5.34 5.34H20.5c-2.95 0-5.34-2.39-5.34-5.34v-3.5c0-2.95 2.39-5.34 5.34-5.34h274.01c2.95 0 5.34 2.39 5.34 5.34v3.5zM302.66 400.32c0 2.95-2.39 5.34-5.34 5.34H136.31c-2.95 0-5.34-2.39-5.34-5.34v-3.5c0-2.95 2.39-5.34 5.34-5.34h161.01c2.95 0 5.34 2.39 5.34 5.34v3.5z"/>
    <path fill="#CCC" stroke="#000" stroke-width="2" d="M161.357 94.828c-8.098-14.196-21.276-14.323-23.418-14.246l-.036.001-.036-.001c-2.141-.077-15.32.05-23.417 14.246l-.868-.496.868.496c-4.522 7.927-6.375 14.285-7.103 18.629-.365 2.173-.449 3.845-.443 4.962.002.559.027.978.05 1.252.012.137.023.238.031.302l.009.067.001.01v.001l.001.001h0v.001l.012.076v.089l.002.062c.003.058.008.15.019.269.021.24.065.591.153 1.017.179.853.534 1.983 1.237 3.106 1.367 2.184 4.161 4.525 10.094 4.525H157.293c5.933 0 8.727-2.341 10.094-4.525.704-1.123 1.059-2.253 1.237-3.106.089-.426.133-.777.154-1.017.011-.119.016-.211.018-.269l.002-.062v-.011h0v-.078l.013-.076v-.001h0v-.002l.002-.01.009-.068c.007-.063.019-.164.03-.301.024-.274.048-.693.051-1.252.005-1.117-.078-2.789-.443-4.962-.728-4.344-2.581-10.702-7.103-18.63zm0 0l.869-.496-.869.496z"/>
    <path fill="#000" d="M137.997 102.589c-1.339 0-2.423-1.085-2.423-2.423s1.084-2.423 2.423-2.423c1.338 0 2.422 1.085 2.422 2.423s-1.084 2.423-2.422 2.423zM124.268 102.589c-1.338 0-2.423-1.085-2.423-2.423s1.085-2.423 2.423-2.423 2.423 1.085 2.423 2.423-1.085 2.423-2.423 2.423z"/>
    <path fill="#CCC" stroke="#000" stroke-width="2" d="M161.454 404.828c-8.098-14.196-21.276-14.323-23.418-14.246l-.036.001-.036-.001c-2.141-.077-15.32.05-23.417 14.246l-.869-.496.869.496c-4.522 7.927-6.375 14.285-7.104 18.629-.364 2.173-.448 3.845-.443 4.962.003.559.028.978.051 1.252.012.137.023.238.031.302l.008.067.002.01v.002h0v.001l.013.076v.089l.002.062c.002.058.007.15.018.269.022.24.065.591.154 1.017.178.853.533 1.983 1.237 3.106 1.367 2.184 4.161 4.525 10.093 4.525H157.39c5.933 0 8.727-2.341 10.094-4.525.703-1.123 1.059-2.253 1.237-3.106.088-.426.132-.777.154-1.017.01-.119.016-.211.018-.269l.002-.062v-.011h0v-.078l.012-.076.001-.001h0v-.002l.001-.01.009-.068c.008-.063.019-.164.031-.301.023-.274.048-.693.051-1.252.005-1.117-.079-2.789-.443-4.962-.729-4.344-2.581-10.702-7.103-18.629zm0 0l.868-.496-.868.496z"/>
    <path fill="#000" d="M149.093 409.589c-1.338 0-2.423-1.085-2.423-2.423s1.085-2.423 2.423-2.423 2.423 1.085 2.423 2.423-1.085 2.423-2.423 2.423zM135.365 409.589c-1.338 0-2.423-1.085-2.423-2.423s1.085-2.423 2.423-2.423 2.423 1.085 2.423 2.423-1.085 2.423-2.423 2.423z"/>
    <path fill="#CCC" stroke="#000" stroke-width="2" d="M231.454 538.828c-8.098-14.196-21.276-14.323-23.418-14.246l-.036.001-.036-.001c-2.141-.077-15.32.05-23.417 14.246l-.869-.496.869.496c-4.522 7.927-6.375 14.285-7.104 18.629-.364 2.173-.448 3.845-.443 4.962.003.559.028.978.051 1.252.012.137.023.238.031.302l.008.067.002.01v.002h0v.001l.013.076v.089l.002.062c.002.058.007.15.018.269.022.24.065.591.154 1.017.178.853.533 1.983 1.237 3.106 1.367 2.184 4.161 4.525 10.093 4.525H227.39c5.933 0 8.727-2.341 10.094-4.525.703-1.123 1.059-2.253 1.237-3.106.088-.426.132-.777.154-1.017.01-.119.016-.211.018-.269l.002-.062v-.011h0v-.078l.012-.076.001-.001h0v-.002l.001-.01.009-.068c.008-.063.019-.164.031-.301.023-.274.048-.693.051-1.252.005-1.117-.079-2.789-.443-4.962-.729-4.344-2.581-10.702-7.103-18.629zm0 0l.868-.496-.868.496z"/>
    <path fill="#000" d="M214.093 543.589c-1.338 0-2.423-1.085-2.423-2.423s1.085-2.423 2.423-2.423 2.423 1.085 2.423 2.423-1.085 2.423-2.423 2.423zM200.365 543.589c-1.338 0-2.423-1.085-2.423-2.423s1.085-2.423 2.423-2.423 2.423 1.085 2.423 2.423-1.085 2.423-2.423 2.423z"/>
    <path fill="#fff" stroke="#000" stroke-miterlimit="10" stroke-width="2" d="M69.04 210.04c.093 1.24.346 2.457.786 3.608 1.221 3.203 4.104 5.117 7.243 6.214 5.63 1.966 11.606 2.164 17.506 2.298 7.374.167 15.061.361 22.497-.644 6.068-.819 13.658-2.139 15.409-9.091.984-3.907.567-8.238-1.234-11.947-1.922-3.96-5.169-7.378-6.803-11.597-2.087-5.385-5.208-10.916-10.099-14.34-5.862-4.103-13.539-4.25-20.23-2.417-8.563 2.346-13.84 9.628-16.975 17.515-2.72 6.84-8.685 12.601-8.1 20.401z"/>
    <path fill="#000" d="M98.756 186.897c1.411 0 2.555-1.144 2.555-2.555 0-1.41-1.144-2.554-2.555-2.554-1.41 0-2.554 1.144-2.554 2.554 0 1.411 1.143 2.555 2.554 2.555zM113.23 186.897c1.411 0 2.555-1.144 2.555-2.555 0-1.41-1.144-2.554-2.555-2.554-1.411 0-2.554 1.144-2.554 2.554 0 1.411 1.143 2.555 2.554 2.555z"/>
    <path fill="#fff" stroke="#000" stroke-miterlimit="10" stroke-width="2" d="M230.04 380.04c.093 1.24.346 2.457.786 3.608 1.221 3.203 4.104 5.117 7.243 6.214 5.63 1.966 11.606 2.164 17.506 2.298 7.374.167 15.061.361 22.497-.644 6.068-.819 13.658-2.139 15.409-9.091.984-3.907.567-8.238-1.234-11.947-1.922-3.96-5.169-7.378-6.803-11.597-2.087-5.385-5.208-10.916-10.099-14.34-5.862-4.103-13.539-4.25-20.231-2.417-8.563 2.346-13.839 9.628-16.974 17.515-2.719 6.84-8.685 12.601-8.1 20.401z"/>
    <path fill="#000" d="M254.756 356.897c1.411 0 2.555-1.144 2.555-2.555 0-1.41-1.144-2.554-2.555-2.554-1.411 0-2.554 1.144-2.554 2.554 0 1.411 1.143 2.555 2.554 2.555zM269.23 356.897c1.411 0 2.555-1.144 2.555-2.555 0-1.41-1.144-2.554-2.555-2.554-1.411 0-2.554 1.144-2.554 2.554 0 1.411 1.143 2.555 2.554 2.555z"/>
    <path fill="#fff" stroke="#000" stroke-miterlimit="10" stroke-width="2" d="M224.04 138.04c.093 1.24.346 2.457.786 3.608 1.221 3.203 4.104 5.117 7.243 6.214 5.63 1.966 11.606 2.164 17.506 2.298 7.374.167 15.061.361 22.497-.644 6.068-.819 13.658-2.139 15.409-9.091.984-3.907.567-8.238-1.234-11.947-1.922-3.96-5.169-7.378-6.803-11.597-2.087-5.385-5.208-10.916-10.099-14.34-5.862-4.103-13.539-4.25-20.231-2.417-8.562 2.346-13.839 9.628-16.974 17.515-2.719 6.84-8.685 12.601-8.1 20.401z"/>
    <path fill="#000" d="M246.48 115.078c1.339 0 2.423-1.085 2.423-2.423s-1.084-2.423-2.423-2.423c-1.338 0-2.422 1.085-2.422 2.423s1.084 2.423 2.422 2.423zM260.209 115.078c1.338 0 2.422-1.085 2.422-2.423s-1.084-2.423-2.422-2.423c-1.339 0-2.423 1.085-2.423 2.423s1.084 2.423 2.423 2.423z"/>
</svg>
