<svg xmlns="http://www.w3.org/2000/svg" width="110" height="110" fill="none" viewBox="0 0 110 110">
    <path fill="#FC5C00" stroke="#000" stroke-miterlimit="10" stroke-width="2" d="M50.707 39.625c-6.71.609-13.28 3.074-18.48 7.307-9.83 7.995-9.85 21.92-19.73 29.936-10.47 8.495-8.47 30.386 7.34 31.434 11.03.729 42.77.878 51.71.489 14.73-.639 20.02-4.462 22.81-11.05 2.36-5.58-2.27-22.58-6.15-31.025-4.41-9.592-8.46-16.16-13.19-20.034-6.79-5.56-15.7-7.836-24.31-7.057z"/>
    <path fill="#000" d="M42.187 63.582c1.856 0 3.36-1.502 3.36-3.354s-1.504-3.354-3.36-3.354c-1.855 0-3.36 1.502-3.36 3.354s1.505 3.354 3.36 3.354zM64.767 65.648c1.856 0 3.36-1.501 3.36-3.354 0-1.852-1.504-3.354-3.36-3.354-1.855 0-3.36 1.502-3.36 3.354 0 1.853 1.505 3.354 3.36 3.354z"/>
    <path stroke="#000" stroke-linecap="round" stroke-miterlimit="10" stroke-width="2" d="M45.527 65.948c2.34.21 2.17 2.196 4.51 2.405 2.35.21 2.52-1.777 4.87-1.577 2.35.21 2.17 2.196 4.51 2.406M60.967 66.886s-1.35 2.615.32 4.323M45.277 65.12s.84 2.814-1.12 4.202"/>
    <path fill="#fff" stroke="#000" stroke-linecap="round" stroke-linejoin="round" stroke-miterlimit="10" stroke-width="2" d="M48.587 38.038s3.9-20.274 20.12-16.59c0 0 13.09 2.445 8.38 23.068l-28.5-6.478z"/>
    <path fill="#fff" stroke="#000" stroke-linecap="round" stroke-linejoin="round" stroke-miterlimit="10" stroke-width="2" d="M76.517 49.138l-40.89-9.304c.79-3.444 4.23-5.61 7.68-4.821l34.64 7.876-1.43 6.249z"/>
    <path fill="#000" d="M66.207 38.397c-.13-.03-.2-.06-.22-.1-.02-.04-.02-.12.01-.24l1.67-7.306-4.5 6.618c-.07.1-.13.15-.18.17-.05.02-.12.02-.23-.01l-1.27-.29c-.11-.02-.18-.06-.22-.1-.04-.04-.06-.12-.08-.23l-1.19-7.915-1.67 7.307c-.03.12-.06.19-.1.22-.04.03-.12.03-.25 0l-1.43-.33c-.13-.03-.2-.06-.22-.1-.02-.04-.02-.12.01-.24l2.4-10.5c.05-.2.1-.32.15-.36.05-.04.18-.03.37.02l1.63.37c.09.02.15.05.19.09.04.039.07.109.09.219l1.48 9.243 5.36-7.686c.09-.14.23-.19.42-.15l1.59.36c.2.05.32.1.36.15.03.05.03.179-.02.389l-2.4 10.5c-.03.12-.06.19-.1.22-.04.03-.12.03-.24 0l-1.41-.32z"/>
    <path fill="#FFD817" stroke="#000" stroke-linecap="round" stroke-linejoin="round" stroke-miterlimit="10" stroke-width="2" d="M68.847 89.803c-8.79.02-12.33 4.82-12.33 4.82 2.35 1.936 4.21 1.7 4.21 1.7-.74 3.21-.22 4.652-.22 4.652 3.51.661 5.43-.741 5.43-.741-.07 3.24 2.42 5.689 2.42 5.689s5.09-4.336 5.01-11.409l-.15-4-4.37-.711z"/>
    <path stroke="#000" stroke-linecap="round" stroke-linejoin="round" stroke-miterlimit="10" stroke-width="2" d="M68.877 91.383s-3.72.623-6.56 2.183M69.827 92.875s-4.73 2.677-5.74 4.8M71.527 94.189s-2.33 2.864-2.71 6.232"/>
    <path fill="#FFD817" stroke="#000" stroke-linecap="round" stroke-linejoin="round" stroke-miterlimit="10" stroke-width="2" d="M88.157 72.447c.43-8.672 5.46-11.942 5.46-11.942 1.85 2.41 1.51 4.238 1.51 4.238 3.28-.583 4.71 0 4.71 0 .5 3.486-1.01 5.314-1.01 5.314 3.28.079 5.64 2.657 5.64 2.657s-4.63 4.82-11.78 4.406l-4.04-.336-.49-4.337z"/>
    <path stroke="#000" stroke-linecap="round" stroke-linejoin="round" stroke-miterlimit="10" stroke-width="2" d="M91.157 72.25l2.14-5.483M92.357 73.554s3.22-2.055 4.42-4.742M93.487 75.302s2.97-.681 4.23-2.054"/>
    <path fill="#FFD817" stroke="#000" stroke-linecap="round" stroke-linejoin="round" stroke-miterlimit="10" stroke-width="2" d="M68.877 91.383s-6.65-16.703 13.71-21.02c0 0 3.26-.553 6.32.721 1.71.711 3.35 1.986 4.33 4.248.46 1.076.78 2.37.88 3.931.67 10.718-14.39 16.21-15.65 16.289-1.26.069-5.88 1.402-9.59-4.169z"/>
    <path fill="#FC5C00" fill-rule="evenodd" d="M91.74 85.732c-.728 1.317-1.691 2.502-2.771 3.554-6.491-4.5-15.215-8.385-19.506-10.175.656-1.195 1.557-2.359 2.774-3.43 7.62 2.609 14.89 6.968 19.503 10.05z" clip-rule="evenodd"/>
    <path fill="#000" d="M91.74 85.732l.876.484c.251-.455.112-1.027-.32-1.316l-.556.832zm-2.771 3.554l-.57.822c.393.273.925.229 1.268-.105l-.698-.717zM69.463 79.111l-.877-.482c-.136.249-.16.544-.067.812.094.268.297.483.559.593l.385-.923zm2.774-3.43l.324-.945c-.34-.116-.715-.042-.984.195l.66.75zm18.628 9.567c-.67 1.214-1.568 2.322-2.594 3.322l1.396 1.433c1.134-1.106 2.163-2.367 2.949-3.787l-1.75-.968zm-21.787-5.214C73.36 81.82 82 85.67 88.399 90.108l1.14-1.643c-6.584-4.566-15.391-8.484-19.691-10.277l-.77 1.846zm1.261-.442c.602-1.094 1.43-2.166 2.558-3.16l-1.32-1.501c-1.306 1.148-2.28 2.403-2.99 3.698l1.752.963zM92.296 84.9c-4.642-3.102-11.996-7.515-19.735-10.164l-.648 1.892c7.5 2.567 14.687 6.872 19.272 9.935l1.111-1.663z"/>
    <path fill="#FC5C00" fill-rule="evenodd" d="M86 91.707c-1.53 1.057-3.084 1.894-4.41 2.51-4.69-2.843-9.898-5.307-13.648-6.954-.126-1.345-.116-2.907.21-4.53 6.765 2.32 13.253 6.018 17.848 8.974z" clip-rule="evenodd"/>
    <path fill="#000" d="M86 91.707l.568.823c.275-.19.437-.505.432-.84-.006-.334-.178-.643-.46-.824l-.54.84zm-4.41 2.51l-.518.856c.285.173.638.192.94.052l-.422-.907zm-13.648-6.954l-.996.093c.034.362.261.677.594.823l.402-.916zm.21-4.53l.324-.945c-.273-.094-.573-.065-.822.078-.25.144-.426.388-.483.67l.98.198zm17.28 8.15c-1.475 1.02-2.978 1.83-4.263 2.428l.843 1.814c1.367-.636 2.971-1.5 4.556-2.596l-1.137-1.645zM67.54 88.18c3.732 1.639 8.895 4.083 13.532 6.894l1.037-1.71c-4.744-2.876-9.997-5.36-13.765-7.016l-.804 1.832zm1.398-1.009c-.12-1.271-.109-2.733.194-4.24l-1.96-.393c-.35 1.738-.358 3.401-.226 4.819l1.992-.186zm17.603 3.696c-4.626-2.976-11.19-6.722-18.065-9.078l-.649 1.892c6.657 2.282 13.068 5.932 17.632 8.868l1.082-1.682z"/>
    <path fill="#FC5C00" fill-rule="evenodd" d="M81.94 70.573c-2.453.544-4.505 1.27-6.218 2.126 3.81 1.58 11.592 5.004 17.963 9.08.12-.762.162-1.554.11-2.377-.077-1.205-.285-2.25-.588-3.16-3.305-1.957-7.186-4.011-11.267-5.67z" clip-rule="evenodd"/>
    <path fill="#000" d="M75.722 72.699l-.447-.895c-.35.175-.567.539-.553.93.014.391.255.739.617.889l.383-.924zm6.218-2.126l.376-.927c-.188-.076-.395-.094-.593-.05l.217.977zm11.745 11.206l-.54.842c.285.182.642.208.95.07.307-.138.525-.422.578-.756l-.988-.156zm.11-2.377l.998-.062v-.002l-.998.064zm-.588-3.16l.95-.316c-.077-.228-.233-.422-.44-.544l-.51.86zM76.17 73.593c1.63-.814 3.602-1.515 5.987-2.044l-.433-1.953c-2.52.56-4.652 1.31-6.448 2.208l.894 1.79zm-.83.03c3.797 1.574 11.513 4.971 17.807 8.998l1.078-1.685c-6.448-4.125-14.297-7.576-18.12-9.16l-.765 1.847zm17.458 5.842c.047.749.01 1.468-.1 2.157l1.975.313c.133-.833.178-1.698.121-2.595l-1.996.125zm-.538-2.907c.273.821.466 1.782.538 2.908l1.996-.128c-.082-1.283-.305-2.414-.637-3.412l-1.898.632zm1.458-1.177c-3.335-1.974-7.261-4.053-11.4-5.735l-.754 1.853c4.023 1.634 7.858 3.663 11.135 5.604l1.019-1.721z"/>
</svg>
