<svg xmlns="http://www.w3.org/2000/svg" width="110" height="110" fill="none" viewBox="0 0 110 110">
    <path fill="#FC5C00" stroke="#000" stroke-miterlimit="10" stroke-width="2" d="M55.667 52.122c-5.5.498-10.89 2.524-15.16 5.995-8.06 6.555-8.08 17.968-16.18 24.543-8.58 6.963-6.95 24.911 6.02 25.769 9.05.598 35.08.718 42.41.399 12.08-.529 16.42-3.662 18.71-9.059 1.94-4.57-1.86-18.516-5.04-25.43-3.61-7.861-6.94-13.248-10.82-16.421-5.58-4.57-12.89-6.435-19.94-5.796z"/>
    <path fill="#000" d="M48.677 71.765c1.524 0 2.76-1.233 2.76-2.753s-1.236-2.754-2.76-2.754c-1.525 0-2.76 1.233-2.76 2.754 0 1.52 1.235 2.753 2.76 2.753zM67.197 73.451c1.524 0 2.76-1.233 2.76-2.753 0-1.521-1.236-2.754-2.76-2.754-1.525 0-2.76 1.233-2.76 2.754 0 1.52 1.235 2.753 2.76 2.753z"/>
    <path stroke="#000" stroke-linecap="round" stroke-miterlimit="10" stroke-width="2" d="M51.427 73.511c1.92.17 1.74 2.155 3.67 2.325 1.92.17 2.1-1.816 4.02-1.646 1.92.17 1.75 2.154 3.67 2.324M64.077 74.469s-1.11 2.145.26 3.541M51.207 73.022s.69 2.305-.92 3.442"/>
</svg>
