<svg xmlns="http://www.w3.org/2000/svg" width="110" height="110" fill="none" viewBox="0 0 110 110">
    <path fill="#FC5C00" stroke="#000" stroke-miterlimit="10" stroke-width="2" d="M50.707 39.625c-6.71.609-13.28 3.074-18.48 7.307-9.83 7.995-9.85 21.92-19.73 29.936-10.47 8.495-8.47 30.386 7.34 31.434 11.03.729 42.77.878 51.71.489 14.73-.639 20.02-4.462 22.81-11.05 2.36-5.58-2.27-22.58-6.15-31.025-4.41-9.592-8.46-16.16-13.19-20.034-6.79-5.56-15.7-7.836-24.31-7.057z"/>
    <path fill="#030000" d="M42.187 63.582c1.856 0 3.36-1.502 3.36-3.354s-1.504-3.354-3.36-3.354c-1.855 0-3.36 1.502-3.36 3.354s1.505 3.354 3.36 3.354zM64.767 65.648c1.856 0 3.36-1.501 3.36-3.354 0-1.852-1.504-3.354-3.36-3.354-1.855 0-3.36 1.502-3.36 3.354 0 1.853 1.505 3.354 3.36 3.354z"/>
    <path stroke="#000" stroke-linecap="round" stroke-miterlimit="10" stroke-width="2" d="M45.527 65.948c2.34.21 2.17 2.196 4.51 2.405 2.35.21 2.52-1.777 4.87-1.577 2.35.21 2.17 2.196 4.51 2.406M60.967 66.886s-1.35 2.615.32 4.323M45.277 65.12s.84 2.814-1.12 4.202"/>
    <path fill="#fff" stroke="#000" stroke-linecap="round" stroke-linejoin="round" stroke-miterlimit="10" stroke-width="1.5" d="M48.587 38.038s3.9-20.274 20.12-16.59c0 0 13.09 2.445 8.38 23.068l-28.5-6.478z"/>
    <path fill="#fff" stroke="#000" stroke-linecap="round" stroke-linejoin="round" stroke-miterlimit="10" stroke-width="1.5" d="M76.517 49.138l-40.89-9.304c.79-3.444 4.23-5.61 7.68-4.821l34.64 7.876-1.43 6.249z"/>
    <path fill="#030000" d="M66.207 38.397c-.13-.03-.2-.06-.22-.1-.02-.04-.02-.12.01-.24l1.67-7.306-4.5 6.618c-.07.1-.13.15-.18.17-.05.02-.12.02-.23-.01l-1.27-.29c-.11-.02-.18-.06-.22-.1-.04-.04-.06-.12-.08-.23l-1.19-7.915-1.67 7.307c-.03.12-.06.19-.1.22-.04.03-.12.03-.25 0l-1.43-.33c-.13-.03-.2-.06-.22-.1-.02-.04-.02-.12.01-.24l2.4-10.5c.05-.2.1-.32.15-.36.05-.04.18-.03.37.02l1.63.37c.09.02.15.05.19.09.04.039.07.109.09.219l1.48 9.243 5.36-7.686c.09-.14.23-.19.42-.15l1.59.36c.2.05.32.1.36.15.03.05.03.179-.02.389l-2.4 10.5c-.03.12-.06.19-.1.22-.04.03-.12.03-.24 0l-1.41-.32z"/>
    <path fill="#FFD817" stroke="#000" stroke-linecap="round" stroke-linejoin="round" stroke-miterlimit="10" stroke-width="1.5" d="M68.847 89.803c-8.79.02-12.33 4.82-12.33 4.82 2.35 1.936 4.21 1.7 4.21 1.7-.74 3.21-.22 4.652-.22 4.652 3.51.661 5.43-.741 5.43-.741-.07 3.24 2.42 5.689 2.42 5.689s5.09-4.336 5.01-11.409l-.15-4-4.37-.711z"/>
    <path stroke="#000" stroke-linecap="round" stroke-linejoin="round" stroke-miterlimit="10" stroke-width="1.5" d="M68.877 91.383s-3.72.623-6.56 2.183M69.827 92.875s-4.73 2.677-5.74 4.8M71.527 94.189s-2.33 2.864-2.71 6.232"/>
    <path fill="#FFD817" stroke="#000" stroke-linecap="round" stroke-linejoin="round" stroke-miterlimit="10" stroke-width="1.5" d="M88.157 72.447c.43-8.672 5.46-11.942 5.46-11.942 1.85 2.41 1.51 4.238 1.51 4.238 3.28-.583 4.71 0 4.71 0 .5 3.486-1.01 5.314-1.01 5.314 3.28.079 5.64 2.657 5.64 2.657s-4.63 4.82-11.78 4.406l-4.04-.336-.49-4.337z"/>
    <path stroke="#000" stroke-linecap="round" stroke-linejoin="round" stroke-miterlimit="10" stroke-width="1.5" d="M91.157 72.25l2.14-5.483M92.357 73.554s3.22-2.055 4.42-4.742M93.487 75.302s2.97-.681 4.23-2.054"/>
    <path fill="#FFD817" stroke="#000" stroke-linecap="round" stroke-linejoin="round" stroke-miterlimit="10" stroke-width="1.5" d="M68.877 91.383s-6.65-16.703 13.71-21.02c0 0 3.26-.553 6.32.721 1.71.711 3.35 1.986 4.33 4.248.46 1.076.78 2.37.88 3.931.67 10.718-14.39 16.21-15.65 16.289-1.26.069-5.88 1.402-9.59-4.169z"/>
    <path fill="#FC5C00" fill-rule="evenodd" d="M91.74 85.732c-.728 1.317-1.691 2.502-2.771 3.554-6.491-4.5-15.215-8.385-19.506-10.175.656-1.195 1.557-2.359 2.774-3.43 7.62 2.609 14.89 6.968 19.503 10.05z" clip-rule="evenodd"/>
    <path fill="#000" d="M91.74 85.732l.657.363c.188-.342.084-.77-.24-.987l-.417.624zm-2.771 3.554l-.428.617c.296.204.694.171.951-.08l-.523-.537zM69.463 79.111l-.657-.362c-.103.187-.121.408-.051.61.07.2.223.362.42.444l.288-.692zm2.774-3.43l.243-.709c-.255-.087-.536-.031-.738.147l.495.563zm18.847 9.688c-.685 1.24-1.6 2.367-2.639 3.38l1.047 1.075c1.12-1.093 2.134-2.335 2.905-3.73l-1.313-.725zm-21.91-5.566c4.285 1.787 12.946 5.647 19.367 10.1l.855-1.233c-6.56-4.55-15.347-8.459-19.644-10.252l-.578 1.385zm.946-.331c.615-1.12 1.461-2.215 2.612-3.227l-.99-1.126c-1.284 1.128-2.239 2.36-2.937 3.63l1.315.723zm22.037 5.636c-4.635-3.097-11.968-7.497-19.677-10.136l-.486 1.42c7.53 2.577 14.738 6.895 19.33 9.963l.833-1.247z"/>
    <path fill="#FC5C00" fill-rule="evenodd" d="M86 91.707c-1.53 1.057-3.084 1.894-4.41 2.51-4.69-2.843-9.898-5.307-13.648-6.954-.126-1.345-.116-2.907.21-4.53 6.765 2.32 13.253 6.018 17.848 8.974z" clip-rule="evenodd"/>
    <path fill="#000" d="M86 91.707l.426.617c.206-.143.328-.379.324-.63-.004-.25-.134-.482-.344-.618l-.406.63zm-4.41 2.51l-.389.642c.214.13.479.145.706.039l-.317-.68zm-13.648-6.954l-.747.07c.026.27.196.507.445.617l.302-.687zm.21-4.53l.243-.709c-.205-.07-.43-.048-.617.06-.187.107-.32.29-.362.502l.736.148zm17.421 8.357c-1.488 1.028-3.003 1.845-4.299 2.448l.633 1.36c1.356-.63 2.948-1.489 4.52-2.574l-.854-1.234zM67.64 87.95c3.737 1.64 8.912 4.09 13.561 6.91l.778-1.283c-4.73-2.868-9.972-5.348-13.736-7l-.603 1.373zm1.049-.757c-.12-1.29-.11-2.776.198-4.312l-1.47-.295c-.344 1.71-.352 3.347-.222 4.747l1.494-.14zm17.717 3.883c-4.618-2.97-11.164-6.704-18.011-9.052l-.487 1.42c6.684 2.29 13.115 5.953 17.686 8.894l.812-1.262z"/>
    <path fill="#FC5C00" fill-rule="evenodd" d="M81.94 70.573c-2.453.544-4.505 1.27-6.218 2.126 3.81 1.58 11.592 5.004 17.963 9.08.12-.762.162-1.554.11-2.377-.077-1.205-.285-2.25-.588-3.16-3.305-1.957-7.186-4.011-11.267-5.67z" clip-rule="evenodd"/>
    <path fill="#000" d="M75.722 72.699l-.336-.671c-.262.131-.424.404-.414.697.01.294.191.554.462.667l.288-.693zm6.218-2.126l.282-.695c-.14-.057-.296-.07-.444-.037l.162.732zm11.745 11.206l-.404.632c.213.136.48.156.711.052.231-.104.394-.317.434-.567l-.741-.117zm.11-2.377l.749-.047-.749.047zm-.588-3.16l.712-.237c-.057-.171-.174-.316-.33-.408l-.382.645zm-17.15-2.872c1.65-.825 3.643-1.533 6.045-2.065l-.325-1.465c-2.504.556-4.615 1.3-6.39 2.188l.67 1.342zm-.623.022c3.801 1.576 11.533 4.98 17.847 9.019l.808-1.264c-6.429-4.113-14.26-7.557-18.08-9.14l-.575 1.385zm17.613 6.057c.048.768.01 1.505-.103 2.212l1.482.235c.129-.815.173-1.662.118-2.54l-1.497.093zm-.551-2.97c.28.843.478 1.825.55 2.971l1.498-.096c-.081-1.263-.3-2.373-.625-3.349l-1.423.474zm1.094-.882c-3.328-1.97-7.243-4.043-11.368-5.72l-.564 1.39c4.036 1.64 7.883 3.676 11.167 5.62l.764-1.29z"/>
</svg>
