<svg xmlns="http://www.w3.org/2000/svg" width="110" height="110" fill="none" viewBox="0 0 110 110">
    <path fill="#FC5C00" stroke="#211816" stroke-miterlimit="10" stroke-width="2" d="M55.707 39.15c-6.71.613-13.28 3.095-18.48 7.356-9.83 8.05-9.85 22.071-19.73 30.142-10.47 8.553-8.47 30.594 7.34 31.649 11.03.734 42.77.885 51.71.493 14.73-.644 20.02-4.493 22.81-11.126 2.36-5.619-2.27-22.735-6.15-31.237-4.41-9.659-8.46-16.272-13.19-20.172-6.79-5.598-15.7-7.89-24.31-7.106z"/>
    <path fill="#030000" d="M47.187 63.28c1.856 0 3.36-1.511 3.36-3.376s-1.504-3.377-3.36-3.377c-1.855 0-3.36 1.512-3.36 3.377 0 1.865 1.505 3.377 3.36 3.377zM69.767 65.351c1.856 0 3.36-1.512 3.36-3.377 0-1.865-1.504-3.377-3.36-3.377-1.855 0-3.36 1.512-3.36 3.377 0 1.865 1.505 3.377 3.36 3.377z"/>
    <path stroke="#030000" stroke-linecap="round" stroke-miterlimit="10" stroke-width="2" d="M50.527 65.653c2.34.21 2.17 2.21 4.51 2.422 2.35.21 2.52-1.79 4.87-1.588 2.35.211 2.17 2.211 4.51 2.422M65.967 66.607s-1.35 2.634.32 4.352M50.277 64.829s.84 2.834-1.12 4.23"/>
</svg>
