<svg xmlns="http://www.w3.org/2000/svg" width="110" height="110" fill="none" viewBox="0 0 110 110">
    <path fill="#FC5C00" stroke="#000" stroke-miterlimit="10" stroke-width="2" d="M50.707 40.147c-6.71.605-13.28 3.052-18.48 7.252-9.83 7.936-9.85 21.756-19.73 29.711-10.47 8.43-8.47 30.157 7.34 31.197 11.03.723 42.77.872 51.71.486 14.73-.634 20.02-4.429 22.81-10.967 2.36-5.538-2.27-22.41-6.15-30.791-4.41-9.52-8.46-16.04-13.19-19.883-6.79-5.519-15.7-7.778-24.31-7.005z"/>
    <path fill="#030000" d="M42.187 63.924c1.856 0 3.36-1.49 3.36-3.329 0-1.838-1.504-3.328-3.36-3.328-1.855 0-3.36 1.49-3.36 3.328 0 1.839 1.505 3.33 3.36 3.33zM64.767 65.965c1.856 0 3.36-1.49 3.36-3.329 0-1.838-1.504-3.329-3.36-3.329-1.855 0-3.36 1.49-3.36 3.33 0 1.838 1.505 3.328 3.36 3.328z"/>
    <path stroke="#000" stroke-linecap="round" stroke-miterlimit="10" stroke-width="2" d="M45.527 66.272c2.34.208 2.17 2.18 4.51 2.387 2.35.208 2.52-1.763 4.87-1.565 2.35.208 2.17 2.18 4.51 2.388M60.967 67.203s-1.35 2.596.32 4.29M45.277 65.45s.84 2.793-1.12 4.17"/>
    <path fill="#FFD817" stroke="#000" stroke-linecap="round" stroke-linejoin="round" stroke-miterlimit="10" stroke-width="1.5" d="M68.847 89.67c-8.79.02-12.33 4.834-12.33 4.834 2.35 1.942 4.21 1.704 4.21 1.704-.74 3.22-.22 4.666-.22 4.666 3.51.664 5.43-.743 5.43-.743-.07 3.25 2.42 5.707 2.42 5.707s5.09-4.35 5.01-11.443l-.15-4.012-4.37-.714z"/>
    <path stroke="#000" stroke-linecap="round" stroke-linejoin="round" stroke-miterlimit="10" stroke-width="1.5" d="M68.877 91.255s-3.72.624-6.56 2.19M69.827 92.75s-4.73 2.686-5.74 4.816M71.527 94.068s-2.33 2.873-2.71 6.251"/>
    <path fill="#FFD817" stroke="#000" stroke-linecap="round" stroke-linejoin="round" stroke-miterlimit="10" stroke-width="1.5" d="M88.157 72.263c.43-8.698 5.46-11.977 5.46-11.977 1.85 2.417 1.51 4.25 1.51 4.25 3.28-.585 4.71 0 4.71 0 .5 3.497-1.01 5.33-1.01 5.33 3.28.079 5.64 2.665 5.64 2.665s-4.63 4.834-11.78 4.418l-4.04-.337-.49-4.349z"/>
    <path stroke="#000" stroke-linecap="round" stroke-linejoin="round" stroke-miterlimit="10" stroke-width="1.5" d="M91.157 72.065l2.14-5.498M92.357 73.373s3.22-2.061 4.42-4.756M93.487 75.126s2.97-.684 4.23-2.06"/>
    <path fill="#FFD817" stroke="#000" stroke-linecap="round" stroke-linejoin="round" stroke-miterlimit="10" stroke-width="1.5" d="M68.877 91.255s-6.65-16.753 13.71-21.082c0 0 3.26-.555 6.32.723 1.71.713 3.35 1.991 4.33 4.26.46 1.08.78 2.378.88 3.943.67 10.749-14.39 16.257-15.65 16.337-1.26.069-5.88 1.406-9.59-4.181z"/>
    <path fill="#FC5C00" fill-rule="evenodd" d="M91.74 85.586c-.728 1.32-1.691 2.51-2.771 3.565-6.491-4.514-15.215-8.41-19.506-10.206.656-1.198 1.557-2.365 2.774-3.438 7.62 2.615 14.89 6.987 19.503 10.079z" clip-rule="evenodd"/>
    <path fill="#000" d="M91.74 85.586l.657.362c.188-.34.084-.768-.24-.985l-.417.623zm-2.771 3.565l-.428.616c.295.205.695.172.952-.08l-.524-.536zM69.463 78.945l-.658-.36c-.102.187-.12.408-.05.608.07.2.222.362.418.444l.29-.692zm2.774-3.438l.243-.71c-.255-.087-.537-.031-.74.147l.497.563zm18.847 9.717c-.686 1.243-1.6 2.375-2.64 3.39l1.049 1.073c1.12-1.095 2.133-2.34 2.904-3.739l-1.313-.724zm-21.91-5.587c4.284 1.793 12.945 5.664 19.367 10.13l.856-1.232c-6.56-4.563-15.347-8.483-19.645-10.281l-.579 1.383zm.947-.331c.615-1.123 1.461-2.222 2.612-3.237l-.992-1.125c-1.284 1.132-2.238 2.368-2.936 3.641l1.316.72zm22.037 5.657c-4.635-3.106-11.968-7.52-19.678-10.166l-.487 1.419c7.53 2.585 14.738 6.916 19.33 9.993l.835-1.246z"/>
    <path fill="#FC5C00" fill-rule="evenodd" d="M86 91.579c-1.53 1.06-3.084 1.9-4.41 2.518-4.69-2.852-9.898-5.323-13.648-6.975-.126-1.349-.117-2.916.21-4.543 6.765 2.327 13.253 6.035 17.848 9z" clip-rule="evenodd"/>
    <path fill="#000" d="M86 91.579l.427.616c.205-.142.327-.378.322-.629-.004-.25-.132-.482-.343-.618l-.406.63zm-4.41 2.518l-.39.641c.215.13.48.145.707.039l-.317-.68zm-13.648-6.975l-.747.07c.025.27.196.507.445.616l.302-.686zm.21-4.543l.243-.709c-.204-.07-.43-.049-.617.059-.188.108-.32.29-.362.503l.735.147zm17.42 8.383c-1.488 1.032-3.004 1.851-4.299 2.456l.634 1.359c1.357-.633 2.948-1.493 4.52-2.582l-.855-1.233zM67.64 87.808c3.737 1.646 8.91 4.103 13.56 6.93l.78-1.282c-4.73-2.876-9.972-5.363-13.736-7.02l-.604 1.372zm1.049-.756c-.12-1.293-.11-2.785.198-4.325l-1.471-.295c-.343 1.714-.351 3.356-.22 4.76l1.493-.14zm17.717 3.896c-4.618-2.979-11.163-6.723-18.01-9.078l-.489 1.419c6.684 2.298 13.115 5.97 17.686 8.92l.813-1.26z"/>
    <path fill="#FC5C00" fill-rule="evenodd" d="M81.94 70.383c-2.453.545-4.505 1.274-6.218 2.132 3.81 1.585 11.592 5.019 17.963 9.107.12-.764.162-1.558.11-2.384-.077-1.208-.285-2.257-.588-3.17-3.305-1.962-7.186-4.022-11.267-5.685z" clip-rule="evenodd"/>
    <path fill="#000" d="M75.722 72.515l-.336-.67c-.262.131-.424.403-.414.697.01.293.191.553.462.666l.288-.693zm6.218-2.132l.283-.695c-.141-.057-.296-.07-.445-.037l.162.732zm11.745 11.239l-.405.63c.213.138.48.157.712.054.231-.104.394-.317.434-.567l-.741-.117zm.11-2.384l.749-.046v-.001l-.749.047zm-.588-3.17l.712-.236c-.057-.171-.173-.316-.329-.408l-.383.644zm-17.149-2.882c1.65-.828 3.643-1.537 6.045-2.071l-.325-1.464c-2.505.556-4.617 1.304-6.392 2.194l.672 1.34zm-.624.022c3.8 1.58 11.532 4.994 17.846 9.045l.81-1.263c-6.429-4.124-14.26-7.579-18.08-9.167l-.576 1.385zm17.613 6.077c.048.77.01 1.51-.103 2.22l1.482.234c.129-.818.173-1.667.118-2.547l-1.497.093zm-.552-2.98c.281.846.478 1.831.552 2.981l1.497-.096c-.081-1.266-.3-2.38-.625-3.358l-1.424.473zm1.095-.881c-3.327-1.976-7.242-4.055-11.367-5.736l-.566 1.39c4.037 1.644 7.883 3.685 11.167 5.635l.766-1.29z"/>
</svg>
