<svg xmlns="http://www.w3.org/2000/svg" width="110" height="110" fill="none" viewBox="0 0 110 110">
    <path fill="#FC5C00" stroke="#000" stroke-miterlimit="10" stroke-width="2" d="M54.86 39.146c-6.71.613-13.28 3.096-18.48 7.357-9.83 8.051-9.85 22.072-19.73 30.143-10.47 8.554-8.47 30.596 7.34 31.651 11.03.734 42.77.885 51.71.493 14.73-.644 20.02-4.493 22.81-11.127 2.36-5.618-2.27-22.735-6.15-31.239-4.41-9.659-8.46-16.272-13.19-20.172-6.79-5.588-15.7-7.88-24.31-7.106z"/>
    <path fill="#030000" d="M46.34 63.278c1.856 0 3.36-1.512 3.36-3.377 0-1.865-1.504-3.377-3.36-3.377-1.856 0-3.36 1.512-3.36 3.377 0 1.865 1.504 3.377 3.36 3.377zM68.92 65.349c1.856 0 3.36-1.512 3.36-3.377 0-1.865-1.504-3.377-3.36-3.377-1.856 0-3.36 1.512-3.36 3.377 0 1.865 1.504 3.377 3.36 3.377z"/>
    <path stroke="#000" stroke-linecap="round" stroke-miterlimit="10" stroke-width="2" d="M49.68 65.65c2.34.212 2.17 2.212 4.51 2.423 2.35.211 2.52-1.79 4.87-1.588 2.35.211 2.17 2.211 4.51 2.422M65.12 66.606s-1.35 2.633.32 4.352M49.43 64.826s.84 2.835-1.12 4.232"/>
    <path fill="#FFD817" stroke="#000" stroke-linecap="round" stroke-linejoin="round" stroke-miterlimit="10" stroke-width="1.5" d="M25.791 41.557l-4.046-.972-6.913 29.053 4.046.972 6.913-29.053z"/>
    <path fill="#fff" stroke="#000" stroke-linecap="round" stroke-linejoin="round" stroke-miterlimit="10" stroke-width="1.5" d="M23.43 96.638H6.91l-2.63-33.43h21.78l-2.63 33.43z"/>
    <path fill="#fff" stroke="#000" stroke-linecap="round" stroke-linejoin="round" stroke-miterlimit="10" stroke-width="1.5" d="M28.4 58.193H2v8.151h26.4v-8.15z"/>
    <path fill="#FFD817" stroke="#000" stroke-linecap="round" stroke-linejoin="round" stroke-miterlimit="10" stroke-width="1.5" d="M15.3 83.26c2.982 0 5.4-2.43 5.4-5.427 0-2.998-2.418-5.428-5.4-5.428s-5.4 2.43-5.4 5.428c0 2.997 2.418 5.427 5.4 5.427z"/>
    <path fill="#fff" stroke="#000" stroke-miterlimit="10" stroke-width="1.5" d="M92.6 93.06l-1.71-.251c-.96-.141-1.63-1.036-1.49-2l4.16-28.877c.14-.965 1.03-1.638 1.99-1.498l1.71.252c.96.14 1.63 1.035 1.49 2l-4.16 28.876c-.14.965-1.03 1.639-1.99 1.498z"/>
    <path fill="#FF9F00" stroke="#000" stroke-miterlimit="10" stroke-width="1.5" d="M96.36 70.093c6.633 0 12.01-5.404 12.01-12.071s-5.377-12.071-12.01-12.071-12.01 5.404-12.01 12.071 5.377 12.071 12.01 12.071z"/>
    <path stroke="#000" stroke-linecap="round" stroke-miterlimit="10" stroke-width="1.5" d="M104.01 59.248s.92-4.663-4.74-7.287c-5.29-2.452-11.75 2.463-9.27 8.433 1.05 2.523 4.15 4.905 7.02 4.212 3.28-.784 4.13-4.312 2.28-6.423-1.78-2.03-4.04-1.789-5.19-.332"/>
</svg>
