<svg xmlns="http://www.w3.org/2000/svg" width="110" height="110" fill="none" viewBox="0 0 110 110">
    <path fill="#FC5C00" stroke="#000" stroke-miterlimit="10" stroke-width="2" d="M50.707 39.617c-6.71.609-13.28 3.075-18.48 7.308-9.83 7.996-9.85 21.923-19.73 29.94-10.47 8.495-8.47 30.389 7.34 31.437 11.03.729 42.77.878 51.71.489 14.73-.639 20.02-4.463 22.81-11.051 2.36-5.581-2.27-22.583-6.15-31.028-4.41-9.594-8.46-16.163-13.19-20.037-6.79-5.55-15.7-7.827-24.31-7.058z"/>
    <path fill="#030000" d="M42.187 63.587c1.856 0 3.36-1.502 3.36-3.355 0-1.852-1.504-3.354-3.36-3.354-1.855 0-3.36 1.502-3.36 3.354 0 1.853 1.505 3.355 3.36 3.355zM64.767 65.643c1.856 0 3.36-1.502 3.36-3.354 0-1.853-1.504-3.354-3.36-3.354-1.855 0-3.36 1.501-3.36 3.354 0 1.852 1.505 3.354 3.36 3.354z"/>
    <path stroke="#000" stroke-linecap="round" stroke-miterlimit="10" stroke-width="2" d="M45.527 65.943c2.34.21 2.17 2.196 4.51 2.406 2.35.21 2.52-1.777 4.87-1.578 2.35.21 2.17 2.197 4.51 2.406M60.967 66.891s-1.35 2.616.32 4.323M45.277 65.124s.84 2.816-1.12 4.203"/>
    <path fill="#fff" stroke="#000" stroke-linecap="round" stroke-linejoin="round" stroke-miterlimit="10" stroke-width="1.5" d="M48.587 38.04s3.9-20.276 20.12-16.593c0 0 13.09 2.446 8.38 23.072l-28.5-6.48z"/>
    <path fill="#fff" stroke="#000" stroke-linecap="round" stroke-linejoin="round" stroke-miterlimit="10" stroke-width="1.5" d="M76.517 49.14l-40.89-9.303c.79-3.445 4.23-5.611 7.68-4.822l34.64 7.876-1.43 6.25z"/>
    <path fill="#030000" d="M66.207 38.4c-.13-.03-.2-.06-.22-.1-.02-.04-.02-.12.01-.24l1.67-7.308-4.5 6.619c-.07.1-.13.15-.18.17-.05.02-.12.02-.23-.01l-1.27-.29c-.11-.02-.18-.06-.22-.1-.04-.04-.06-.12-.08-.23l-1.19-7.916-1.67 7.308c-.03.12-.06.19-.1.22-.04.03-.12.03-.25 0l-1.43-.33c-.13-.03-.2-.06-.22-.1-.02-.04-.02-.12.01-.24l2.4-10.502c.05-.2.1-.32.15-.36.05-.03.18-.03.37.02l1.63.37c.09.02.15.05.19.09.04.04.07.11.09.22l1.48 9.244 5.36-7.687c.09-.14.23-.19.42-.15l1.59.36c.2.05.32.1.36.15.03.05.03.179-.02.389l-2.4 10.502c-.03.12-.06.19-.1.22-.04.03-.12.03-.24 0l-1.41-.32z"/>
    <path fill="#fff" stroke="#000" stroke-miterlimit="10" stroke-width="1.5" d="M88.447 93.167l-1.71-.25c-.96-.14-1.63-1.028-1.49-1.986l4.16-28.682c.14-.959 1.03-1.627 1.99-1.488l1.71.25c.96.14 1.63 1.028 1.49 1.987l-4.16 28.682c-.14.958-1.03 1.627-1.99 1.487z"/>
    <path fill="#FF9F00" stroke="#000" stroke-miterlimit="10" stroke-width="1.5" d="M92.207 70.356c6.633 0 12.01-5.369 12.01-11.99 0-6.622-5.377-11.99-12.01-11.99s-12.01 5.368-12.01 11.99c0 6.621 5.377 11.99 12.01 11.99z"/>
    <path stroke="#000" stroke-linecap="round" stroke-miterlimit="10" stroke-width="1.5" d="M99.857 59.583s.92-4.632-4.74-7.237c-5.29-2.436-11.75 2.445-9.27 8.376 1.05 2.505 4.15 4.871 7.02 4.182 3.28-.778 4.13-4.282 2.28-6.379-1.78-2.017-4.04-1.777-5.19-.33"/>
</svg>
