<svg xmlns="http://www.w3.org/2000/svg" width="110" height="110" fill="none" viewBox="0 0 110 110">
    <path fill="#FC5C00" stroke="#000" stroke-miterlimit="10" stroke-width="2" d="M50.707 40.147c-6.71.605-13.28 3.052-18.48 7.252-9.83 7.936-9.85 21.756-19.73 29.711-10.47 8.43-8.47 30.157 7.34 31.197 11.03.723 42.77.872 51.71.486 14.73-.634 20.02-4.429 22.81-10.967 2.36-5.538-2.27-22.41-6.15-30.791-4.41-9.52-8.46-16.04-13.19-19.883-6.79-5.519-15.7-7.778-24.31-7.005z"/>
    <path fill="#000" d="M42.187 63.924c1.856 0 3.36-1.49 3.36-3.329 0-1.838-1.504-3.328-3.36-3.328-1.855 0-3.36 1.49-3.36 3.328 0 1.839 1.505 3.33 3.36 3.33zM64.767 65.965c1.856 0 3.36-1.49 3.36-3.329 0-1.838-1.504-3.329-3.36-3.329-1.855 0-3.36 1.49-3.36 3.33 0 1.838 1.505 3.328 3.36 3.328z"/>
    <path stroke="#000" stroke-linecap="round" stroke-miterlimit="10" stroke-width="2" d="M45.527 66.272c2.34.208 2.17 2.18 4.51 2.387 2.35.208 2.52-1.763 4.87-1.565 2.35.208 2.17 2.18 4.51 2.388M60.967 67.203s-1.35 2.596.32 4.29M45.277 65.45s.84 2.793-1.12 4.17"/>
    <path fill="#FFD817" stroke="#000" stroke-linecap="round" stroke-linejoin="round" stroke-miterlimit="10" stroke-width="2" d="M68.847 89.67c-8.79.02-12.33 4.834-12.33 4.834 2.35 1.942 4.21 1.704 4.21 1.704-.74 3.22-.22 4.666-.22 4.666 3.51.664 5.43-.743 5.43-.743-.07 3.25 2.42 5.707 2.42 5.707s5.09-4.35 5.01-11.443l-.15-4.012-4.37-.714z"/>
    <path stroke="#000" stroke-linecap="round" stroke-linejoin="round" stroke-miterlimit="10" stroke-width="2" d="M68.877 91.255s-3.72.624-6.56 2.19M69.827 92.75s-4.73 2.686-5.74 4.816M71.527 94.068s-2.33 2.873-2.71 6.251"/>
    <path fill="#FFD817" stroke="#000" stroke-linecap="round" stroke-linejoin="round" stroke-miterlimit="10" stroke-width="2" d="M88.157 72.263c.43-8.698 5.46-11.977 5.46-11.977 1.85 2.417 1.51 4.25 1.51 4.25 3.28-.585 4.71 0 4.71 0 .5 3.497-1.01 5.33-1.01 5.33 3.28.079 5.64 2.665 5.64 2.665s-4.63 4.834-11.78 4.418l-4.04-.337-.49-4.349z"/>
    <path stroke="#000" stroke-linecap="round" stroke-linejoin="round" stroke-miterlimit="10" stroke-width="2" d="M91.157 72.065l2.14-5.498M92.357 73.373s3.22-2.061 4.42-4.756M93.487 75.126s2.97-.684 4.23-2.06"/>
    <path fill="#FFD817" stroke="#000" stroke-linecap="round" stroke-linejoin="round" stroke-miterlimit="10" stroke-width="2" d="M68.877 91.255s-6.65-16.753 13.71-21.082c0 0 3.26-.555 6.32.723 1.71.713 3.35 1.991 4.33 4.26.46 1.08.78 2.378.88 3.943.67 10.749-14.39 16.257-15.65 16.337-1.26.069-5.88 1.406-9.59-4.181z"/>
    <path fill="#FC5C00" fill-rule="evenodd" d="M91.74 85.586c-.728 1.32-1.691 2.51-2.771 3.565-6.491-4.514-15.215-8.41-19.506-10.206.656-1.198 1.557-2.365 2.774-3.438 7.62 2.615 14.89 6.987 19.503 10.079z" clip-rule="evenodd"/>
    <path fill="#000" d="M91.74 85.586l.876.483c.25-.455.112-1.025-.319-1.314l-.557.831zm-2.771 3.565l-.571.821c.394.274.927.23 1.27-.106l-.7-.715zM69.463 78.945l-.877-.48c-.136.249-.16.543-.067.81.094.268.296.484.558.593l.386-.922zm2.774-3.438l.325-.946c-.34-.117-.717-.042-.987.196l.662.75zm18.628 9.596c-.671 1.218-1.57 2.33-2.595 3.333l1.398 1.43c1.134-1.108 2.163-2.373 2.948-3.797l-1.751-.966zm-21.788-5.235C73.36 81.66 82 85.522 88.397 89.972l1.143-1.642c-6.584-4.579-15.391-8.508-19.691-10.307l-.772 1.845zm1.263-.442c.601-1.098 1.43-2.174 2.558-3.17l-1.323-1.5c-1.305 1.152-2.278 2.41-2.99 3.709l1.755.96zm21.957 5.33c-4.642-3.112-11.996-7.538-19.735-10.195l-.65 1.891c7.5 2.575 14.687 6.892 19.272 9.965l1.113-1.662z"/>
    <path fill="#FC5C00" fill-rule="evenodd" d="M86 91.579c-1.53 1.06-3.084 1.9-4.41 2.518-4.69-2.852-9.898-5.323-13.648-6.975-.126-1.349-.117-2.916.21-4.543 6.765 2.327 13.253 6.035 17.848 9z" clip-rule="evenodd"/>
    <path fill="#000" d="M86 91.579l.57.822c.274-.19.435-.505.43-.839-.006-.334-.178-.643-.458-.824l-.542.84zm-4.41 2.518l-.52.855c.286.173.64.193.943.052l-.423-.907zm-13.648-6.975l-.996.093c.034.361.26.676.593.822l.403-.915zm.21-4.543l.325-.945c-.273-.094-.573-.066-.823.078-.25.144-.426.388-.483.67l.98.197zm17.278 8.178c-1.475 1.022-2.978 1.834-4.263 2.434l.846 1.813c1.366-.638 2.971-1.505 4.556-2.603l-1.139-1.644zm-17.891-2.72c3.732 1.644 8.895 4.095 13.531 6.915l1.04-1.71c-4.744-2.884-9.997-5.375-13.765-7.035l-.806 1.83zm1.399-1.008c-.12-1.275-.109-2.742.194-4.253l-1.961-.393c-.35 1.743-.357 3.41-.225 4.832l1.992-.186zm17.604 3.71c-4.626-2.985-11.19-6.742-18.065-9.105l-.65 1.891c6.656 2.289 13.067 5.95 17.63 8.894l1.085-1.68z"/>
    <path fill="#FC5C00" fill-rule="evenodd" d="M81.94 70.383c-2.453.545-4.505 1.274-6.218 2.132 3.81 1.585 11.592 5.019 17.963 9.107.12-.764.162-1.558.11-2.384-.077-1.208-.285-2.257-.588-3.17-3.305-1.962-7.186-4.022-11.267-5.685z" clip-rule="evenodd"/>
    <path fill="#000" d="M75.722 72.515l-.448-.894c-.35.175-.565.538-.552.93.014.39.255.737.616.888l.384-.924zm6.218-2.132l.378-.926c-.189-.077-.396-.094-.595-.05l.217.976zm11.745 11.239l-.54.841c.284.183.641.21.95.07.307-.137.525-.422.578-.755l-.988-.156zm.11-2.384l.998-.062v-.002l-.998.064zm-.588-3.17l.95-.314c-.076-.229-.232-.422-.44-.545l-.51.86zM76.17 73.41c1.63-.817 3.603-1.52 5.987-2.05l-.434-1.952c-2.521.56-4.653 1.314-6.45 2.214l.897 1.788zm-.832.03c3.798 1.579 11.513 4.986 17.807 9.024l1.08-1.683c-6.448-4.137-14.296-7.599-18.12-9.188l-.767 1.847zm17.46 5.862c.046.751.008 1.472-.1 2.164l1.975.313c.132-.835.177-1.703.12-2.602l-1.996.124zm-.54-2.918c.273.825.467 1.789.54 2.92l1.995-.129c-.082-1.286-.305-2.42-.637-3.42l-1.898.63zm1.46-1.174c-3.334-1.98-7.26-4.065-11.4-5.752l-.755 1.852c4.022 1.639 7.857 3.673 11.134 5.62l1.02-1.72z"/>
</svg>
