<svg xmlns="http://www.w3.org/2000/svg" width="110" height="110" fill="none" viewBox="0 0 110 110">
    <path fill="#3BE3FF" stroke="#000" stroke-miterlimit="10" stroke-width="2" d="M83.25 68.624C73.7 52.092 58.11 51.922 55.51 52.012c-1.71-.06-9.04-.01-16.58 4.74C34.78 52.7 30 50.884 28.18 52.71c-1.18 1.177-.84 3.571.64 6.245-3.78-.668-6.84-.06-7.53 1.746-.84 2.195 2.08 5.397 6.69 7.562-.07.12-.15.23-.22.36-10.45 18.078-8.64 29.132-8.64 29.132S19.12 109 33.38 109H77.6c14.26 0 14.26-11.244 14.26-11.244s1.83-11.054-8.61-29.132z"/>
    <path fill="#000" d="M48.83 71.397c1.59 0 2.88-1.286 2.88-2.873 0-1.587-1.29-2.874-2.88-2.874-1.59 0-2.88 1.287-2.88 2.874 0 1.587 1.29 2.873 2.88 2.873zM65.31 71.397c1.59 0 2.88-1.286 2.88-2.873 0-1.587-1.29-2.874-2.88-2.874-1.59 0-2.88 1.287-2.88 2.874 0 1.587 1.29 2.873 2.88 2.873z"/>
    <path stroke="#000" stroke-linecap="round" stroke-linejoin="round" stroke-miterlimit="10" stroke-width="2" d="M62.27 72.395h-8.85c-.03 0 .53 3.302.6 3.522.39 1.247.57 2.185 1.63 3.342 1.89 2.065 3.86-2.374 4.05-4.1.11-.958.24-1.796.24-2.764M62.53 72.395l-2.83-3.003"/>
</svg>
