<svg xmlns="http://www.w3.org/2000/svg" width="110" height="110" fill="none" viewBox="0 0 110 110">
    <path fill="#3BE3FF" stroke="#000" stroke-miterlimit="10" stroke-width="2" d="M83.611 59.787C72.076 39.64 53.237 39.43 50.096 39.55c-2.071-.07-10.921-.01-20.028 5.775-5.015-4.938-10.782-7.142-12.992-4.928-1.417 1.427-1.01 4.36.773 7.61-4.569-.807-8.265-.069-9.097 2.125-1.021 2.673 2.517 6.583 8.086 9.217-.09.15-.178.289-.258.438C3.956 81.82 6.146 95.296 6.146 95.296S6.145 109 23.38 109h53.443c17.234 0 17.234-13.704 17.234-13.704s2.17-13.476-10.445-35.509z"/>
    <path fill="#000" d="M42.03 63.159c1.92 0 3.478-1.568 3.478-3.501 0-1.934-1.558-3.501-3.479-3.501-1.92 0-3.478 1.567-3.478 3.5 0 1.934 1.557 3.502 3.478 3.502zM61.938 63.159c1.921 0 3.478-1.568 3.478-3.501 0-1.934-1.557-3.501-3.478-3.501-1.92 0-3.478 1.567-3.478 3.5 0 1.934 1.557 3.502 3.478 3.502z"/>
    <path stroke="#000" stroke-linecap="round" stroke-linejoin="round" stroke-miterlimit="10" stroke-width="2" d="M58.272 64.385H47.589c-.04 0 .644 4.02.733 4.29.466 1.516.694 2.663 1.972 4.069 2.29 2.513 4.658-2.893 4.895-4.997.13-1.167.288-2.195.288-3.362M58.579 64.385l-3.43-3.66"/>
    <path fill="#606060" stroke="#000" stroke-linecap="round" stroke-linejoin="round" stroke-miterlimit="10" stroke-width="1.5" d="M32.952 28.568V43.29h.01c.148 2.574 7.957 4.648 17.59 4.648 9.622 0 17.431-2.074 17.59-4.648h.01V28.568h-35.2z"/>
    <path fill="#606060" stroke="#000" stroke-linecap="round" stroke-linejoin="round" stroke-miterlimit="10" stroke-width="1.5" d="M50.234 30.603l28.521-3.262L50.462 24 22.16 27.212l11.426 1.376 16.648 2.015z"/>
    <path stroke="#000" stroke-linecap="round" stroke-linejoin="round" stroke-miterlimit="10" stroke-width="1.5" d="M27.442 28.01v6.074"/>
    <path fill="#606060" stroke="#000" stroke-linecap="round" stroke-linejoin="round" stroke-miterlimit="10" stroke-width="1.5" d="M27.442 37.884c1.023 0 1.853-.835 1.853-1.865s-.83-1.865-1.853-1.865c-1.024 0-1.854.835-1.854 1.865s.83 1.865 1.854 1.865z"/>
    <path fill="#008593" stroke="#231815" stroke-linecap="round" stroke-linejoin="round" stroke-miterlimit="10" stroke-width="1.5" d="M76.727 72.638h25.26l-4.05 30.386h-17.16l-4.05-30.386z"/>
    <path fill="#fff" stroke="#231815" stroke-linecap="round" stroke-linejoin="round" stroke-miterlimit="10" stroke-width=".5" d="M78.737 83.659h21.24l-1.19 7.619h-18.8l-1.25-7.62z"/>
    <path stroke="#231815" stroke-linecap="round" stroke-linejoin="round" stroke-miterlimit="10" stroke-width="1.5" d="M78.697 83.115h21.05M79.457 91.72h19.87"/>
    <path fill="#fff" stroke="#231815" stroke-miterlimit="10" stroke-width="1.5" d="M102.007 67.354c-.02 0-.04.01-.06.01h-25.08c-.02 0-.04-.01-.06-.01-1.43 0-2.6 1.167-2.6 2.617 0 1.449 1.16 2.617 2.6 2.617.02 0 .04-.01.06-.01h25.08c.02 0 .04.01.06.01 1.44 0 2.6-1.168 2.6-2.617 0-1.45-1.16-2.617-2.6-2.617z"/>
</svg>
