<svg xmlns="http://www.w3.org/2000/svg" width="110" height="110" fill="none" viewBox="0 0 110 110">
    <path fill="#3BE3FF" stroke="#000" stroke-miterlimit="10" stroke-width="2" d="M88.317 59.408c-11.64-20.304-30.65-20.515-33.82-20.394-2.09-.07-11.02-.01-20.21 5.82-5.06-4.976-10.88-7.197-13.11-4.966-1.43 1.438-1.02 4.393.78 7.67-4.61-.815-8.34-.071-9.18 2.14-1.03 2.694 2.54 6.634 8.16 9.287-.09.151-.18.292-.26.443C7.937 81.61 10.147 95.19 10.147 95.19s0 13.81 17.39 13.81h53.93c17.39 0 17.39-13.81 17.39-13.81s2.19-13.58-10.54-35.782z"/>
    <path fill="#3BE3FF" stroke="#000" stroke-miterlimit="10" stroke-width="2" d="M88.317 59.408c-11.64-20.304-30.65-20.515-33.82-20.394-2.09-.07-11.02-.01-20.21 5.82-5.06-4.976-10.88-7.197-13.11-4.966-1.43 1.438-1.02 4.393.78 7.67-4.61-.815-8.34-.071-9.18 2.14-1.03 2.694 2.54 6.634 8.16 9.287-.09.151-.18.292-.26.443C7.937 81.61 10.147 95.19 10.147 95.19s0 13.81 17.39 13.81h53.93c17.39 0 17.39-13.81 17.39-13.81s2.19-13.58-10.54-35.782z"/>
    <path fill="#000" d="M45.357 62.805c1.938 0 3.51-1.58 3.51-3.528 0-1.949-1.572-3.528-3.51-3.528-1.939 0-3.51 1.58-3.51 3.528s1.571 3.528 3.51 3.528zM65.447 62.805c1.938 0 3.51-1.58 3.51-3.528 0-1.949-1.572-3.528-3.51-3.528-1.939 0-3.51 1.58-3.51 3.528s1.571 3.528 3.51 3.528z"/>
    <path stroke="#000" stroke-linecap="round" stroke-linejoin="round" stroke-miterlimit="10" stroke-width="2" d="M61.746 64.041h-10.78c-.04 0 .65 4.05.74 4.322.47 1.528.7 2.684 1.99 4.101 2.31 2.533 4.7-2.915 4.94-5.035.13-1.177.29-2.212.29-3.388M62.057 64.041l-3.46-3.689"/>
</svg>
