<svg xmlns="http://www.w3.org/2000/svg" width="110" height="110" fill="none" viewBox="0 0 110 110">
    <path fill="#3BE3FF" stroke="#000" stroke-miterlimit="10" stroke-width="2" d="M88.94 59.74C77.3 39.572 58.29 39.363 55.12 39.483c-2.09-.07-11.02-.01-20.21 5.78-5.06-4.942-10.88-7.148-13.11-4.932-1.43 1.428-1.02 4.363.78 7.618-4.61-.809-8.34-.07-9.18 2.126-1.03 2.676 2.54 6.59 8.16 9.225-.09.15-.18.29-.26.44C8.56 81.794 10.77 95.282 10.77 95.282S10.77 109 28.16 109h53.93c17.39 0 17.39-13.718 17.39-13.718s2.19-13.488-10.54-35.542z"/>
    <path fill="#000" d="M46.98 63.124c1.939 0 3.51-1.569 3.51-3.504 0-1.936-1.571-3.505-3.51-3.505-1.938 0-3.51 1.57-3.51 3.505 0 1.935 1.572 3.504 3.51 3.504zM67.07 63.124c1.939 0 3.51-1.569 3.51-3.504 0-1.936-1.571-3.505-3.51-3.505-1.938 0-3.51 1.57-3.51 3.505 0 1.935 1.572 3.504 3.51 3.504z"/>
    <path stroke="#000" stroke-linecap="round" stroke-linejoin="round" stroke-miterlimit="10" stroke-width="2" d="M63.37 64.342H52.59c-.04 0 .65 4.024.74 4.293.47 1.518.7 2.666 1.99 4.074 2.31 2.516 4.7-2.896 4.94-5.002.13-1.168.29-2.197.29-3.365M63.68 64.342l-3.46-3.654"/>
    <path fill="#606060" stroke="#000" stroke-linecap="round" stroke-linejoin="round" stroke-miterlimit="10" stroke-width="2" d="M37.952 28.568V43.29h.01c.148 2.574 7.957 4.648 17.59 4.648 9.622 0 17.431-2.074 17.59-4.648h.01V28.568h-35.2z"/>
    <path fill="#606060" stroke="#000" stroke-linecap="round" stroke-linejoin="round" stroke-miterlimit="10" stroke-width="2" d="M55.234 30.603l28.521-3.262L55.462 24 27.16 27.212l11.426 1.376 16.648 2.015z"/>
    <path stroke="#000" stroke-linecap="round" stroke-linejoin="round" stroke-miterlimit="10" stroke-width="2" d="M32.442 28.01v6.074"/>
    <path fill="#606060" stroke="#000" stroke-linecap="round" stroke-linejoin="round" stroke-miterlimit="10" stroke-width="2" d="M32.442 37.884c1.023 0 1.853-.835 1.853-1.865s-.83-1.865-1.853-1.865c-1.024 0-1.854.835-1.854 1.865s.83 1.865 1.854 1.865z"/>
    <path fill="#008593" stroke="#000" stroke-linecap="round" stroke-linejoin="round" stroke-miterlimit="10" stroke-width="2" d="M81.727 72.638h25.26l-4.05 30.386h-17.16l-4.05-30.386z"/>
    <path fill="#fff" stroke="#000" stroke-linecap="round" stroke-linejoin="round" stroke-miterlimit="10" stroke-width="2" d="M83.737 83.659h21.24l-1.19 7.619h-18.8l-1.25-7.62z"/>
    <path stroke="#000" stroke-linecap="round" stroke-linejoin="round" stroke-miterlimit="10" stroke-width="2" d="M83.697 83.115h21.05M84.457 91.72h19.87"/>
    <path fill="#fff" stroke="#000" stroke-miterlimit="10" stroke-width="2" d="M107.007 67.354c-.02 0-.04.01-.06.01h-25.08c-.02 0-.04-.01-.06-.01-1.43 0-2.6 1.167-2.6 2.617 0 1.449 1.16 2.617 2.6 2.617.02 0 .04-.01.06-.01h25.08c.02 0 .04.01.06.01 1.44 0 2.6-1.168 2.6-2.617 0-1.45-1.16-2.617-2.6-2.617z"/>
</svg>
