<svg xmlns="http://www.w3.org/2000/svg" width="110" height="110" fill="none" viewBox="0 0 110 110">
    <path fill="#760DE9" stroke="#211816" stroke-miterlimit="10" stroke-width="2" d="M19.398 83.955s-4.22 17.191 14.82 22.339c19.04 5.159 41.33 1.756 46.26-.489 5.02-2.294 12.52-7.064 11.41-19.605-1.53-17.31-21-29.014-35.57-33.184-14.57-4.17-9.7 5.497-18.4 10.965-8.86 5.567-15.71 10.526-18.52 19.974z"/>
    <path fill="#000" d="M52.218 72.561c1.491 0 2.7-1.206 2.7-2.694 0-1.487-1.209-2.693-2.7-2.693s-2.7 1.206-2.7 2.693c0 1.488 1.209 2.694 2.7 2.694zM67.678 72.561c1.491 0 2.7-1.206 2.7-2.694 0-1.487-1.209-2.693-2.7-2.693s-2.7 1.206-2.7 2.693c0 1.488 1.209 2.694 2.7 2.694z"/>
    <path stroke="#000" stroke-linecap="round" stroke-linejoin="round" stroke-miterlimit="10" stroke-width="2" d="M59.708 71.693s3.36.25 3.36 1.986c0 0-.19 1.816-3.36 1.816 0 0 3.36.668 3.36 2.324 0 0-.32 1.656-3.36 1.656"/>
</svg>
