<svg xmlns="http://www.w3.org/2000/svg" width="110" height="110" fill="none" viewBox="0 0 110 110">
    <path fill="#760DE9" stroke="#000" stroke-miterlimit="10" stroke-width="2" d="M11.02 78.468s-5.14 20.95 18.07 27.234c23.21 6.285 50.39 2.145 56.4-.598 6.12-2.794 15.27-8.61 13.91-23.893-1.87-21.099-25.6-35.364-43.36-40.452-17.76-5.088-11.82 6.704-22.43 13.368-10.8 6.783-19.16 12.819-22.59 24.34z"/>
    <path fill="#000" d="M51.04 64.571c1.817 0 3.29-1.469 3.29-3.282 0-1.812-1.473-3.282-3.29-3.282s-3.29 1.47-3.29 3.282c0 1.813 1.473 3.282 3.29 3.282zM69.89 64.571c1.817 0 3.29-1.469 3.29-3.282 0-1.812-1.473-3.282-3.29-3.282s-3.29 1.47-3.29 3.282c0 1.813 1.473 3.282 3.29 3.282z"/>
    <path stroke="#000" stroke-linecap="round" stroke-linejoin="round" stroke-miterlimit="10" stroke-width="2" d="M60.17 63.524s4.09.3 4.09 2.424c0 0-.24 2.215-4.09 2.215 0 0 4.09.808 4.09 2.833 0 0-.39 2.015-4.09 2.015"/>
    <path fill="#000" stroke="#000" stroke-miterlimit="10" stroke-width="2" d="M18.638 76.747l2.29-.648-2.835-9.962-2.29.649 2.835 9.961z"/>
    <path fill="#0061FA" stroke="#000" stroke-miterlimit="10" stroke-width="2" d="M23.23 91.327l1.5-.43c1.12-.319 1.77-1.476 1.45-2.593l-3.73-13.118c-.32-1.118-1.48-1.766-2.6-1.447l-1.5.429c-1.12.32-1.77 1.476-1.45 2.594l3.73 13.118c.32 1.117 1.48 1.766 2.6 1.447z"/>
    <path fill="#fff" stroke="#000" stroke-miterlimit="10" stroke-width="2" d="M14.86 70.387c7.102 0 12.86-5.743 12.86-12.829 0-7.085-5.758-12.829-12.86-12.829C7.758 44.73 2 50.473 2 57.56c0 7.085 5.758 12.828 12.86 12.828z"/>
    <path stroke="#000" stroke-linecap="round" stroke-miterlimit="10" stroke-width="2" d="M8.61 50.416S4.82 53.678 5.94 60.58"/>
    <path fill="#fff" stroke="#000" stroke-linecap="round" stroke-linejoin="round" stroke-miterlimit="10" stroke-width="2" d="M70.94 3h29.16c4.37 0 7.92 3.541 7.92 7.9v16.62c0 4.36-3.55 7.902-7.92 7.902H80.9l-5.92 6.265v-6.265h-4.03c-4.37 0-7.92-3.542-7.92-7.901V10.9C63.02 6.53 66.57 3 70.94 3z"/>
    <path fill="#000" d="M82.75 27.69c0-1.845 1.34-3.332 3.19-3.332 1.88 0 3.22 1.487 3.22 3.332 0 1.876-1.34 3.362-3.22 3.362-1.86-.01-3.19-1.486-3.19-3.362zm.66-15.482l-.18-4.789h5.43l-.18 4.789-.79 10.235H84.2l-.79-10.235z"/>
</svg>
