<svg xmlns="http://www.w3.org/2000/svg" width="110" height="110" fill="none" viewBox="0 0 110 110">
    <path fill="#760DE9" stroke="#000" stroke-miterlimit="10" stroke-width="2" d="M10.96 78.468s-5.14 20.95 18.07 27.234c23.21 6.285 50.39 2.145 56.4-.598 6.12-2.794 15.27-8.61 13.91-23.893-1.87-21.099-25.6-35.364-43.36-40.452-17.76-5.088-11.82 6.704-22.43 13.368-10.8 6.783-19.16 12.819-22.59 24.34z"/>
    <path fill="#000" d="M50.98 64.582c1.817 0 3.29-1.47 3.29-3.283 0-1.812-1.473-3.282-3.29-3.282s-3.29 1.47-3.29 3.282c0 1.813 1.473 3.283 3.29 3.283zM69.83 64.582c1.817 0 3.29-1.47 3.29-3.283 0-1.812-1.473-3.282-3.29-3.282s-3.29 1.47-3.29 3.282c0 1.813 1.473 3.283 3.29 3.283z"/>
    <path stroke="#000" stroke-linecap="round" stroke-linejoin="round" stroke-miterlimit="10" stroke-width="2" d="M60.11 63.524s4.09.3 4.09 2.424c0 0-.24 2.215-4.09 2.215 0 0 4.09.808 4.09 2.833 0 0-.39 2.015-4.09 2.015"/>
    <path fill="#FFD817" stroke="#000" stroke-linecap="round" stroke-linejoin="round" stroke-miterlimit="10" stroke-width="2" d="M39.08 3.16H9.92C5.55 3.16 2 6.7 2 11.06v16.62c0 4.36 3.55 7.902 7.92 7.902h19.2l5.92 6.264v-6.264h4.03c4.37 0 7.92-3.542 7.92-7.901V11.06C47 6.69 43.45 3.16 39.08 3.16z"/>
    <path fill="#000" d="M26.15 13.674c0-1.297-.92-1.985-2.13-1.985s-2.07.618-2.99 1.536l-2.91-2.663c1.63-1.866 3.88-3.103 6.55-3.103 3.68 0 6.55 1.746 6.55 5.856 0 4.11-5.07 5.327-4.69 9.228h-4.59c-.71-4.55 4.21-6.445 4.21-8.869zM21.08 27.66c0-1.805 1.31-3.252 3.14-3.252 1.81 0 3.14 1.447 3.14 3.252 0 1.836-1.33 3.282-3.14 3.282-1.83.01-3.14-1.446-3.14-3.282z"/>
    <path fill="#fff" stroke="#000" stroke-linecap="round" stroke-linejoin="round" stroke-miterlimit="10" stroke-width="2" d="M70.88 3h29.16c4.37 0 7.92 3.541 7.92 7.9v16.62c0 4.36-3.55 7.902-7.92 7.902h-19.2l-5.92 6.265v-6.265h-4.03c-4.37 0-7.92-3.542-7.92-7.901V10.9C62.96 6.54 66.51 3 70.88 3z"/>
    <path fill="#000" d="M82.69 27.69c0-1.845 1.34-3.332 3.19-3.332 1.88 0 3.22 1.487 3.22 3.332 0 1.876-1.34 3.362-3.22 3.362-1.86 0-3.19-1.486-3.19-3.362zm.66-15.472l-.18-4.789h5.43l-.18 4.789-.79 10.235h-3.49l-.79-10.235z"/>
</svg>
