<svg xmlns="http://www.w3.org/2000/svg" width="110" height="110" fill="none" viewBox="0 0 110 110">
    <path fill="#760DE9" stroke="#000" stroke-miterlimit="10" stroke-width="2" d="M15.02 78.24s-5.14 21.106 18.07 27.437c23.21 6.332 50.39 2.161 56.4-.603 6.12-2.814 15.27-8.673 13.91-24.07-1.87-21.257-25.6-35.63-43.36-40.755-17.76-5.126-11.82 6.754-22.43 13.467-10.8 6.835-19.16 12.915-22.59 24.524z"/>
    <path fill="#000" d="M55.04 64.24c1.817 0 3.29-1.481 3.29-3.307 0-1.827-1.473-3.307-3.29-3.307s-3.29 1.48-3.29 3.307c0 1.826 1.473 3.306 3.29 3.306zM73.89 64.24c1.817 0 3.29-1.481 3.29-3.307 0-1.827-1.473-3.307-3.29-3.307s-3.29 1.48-3.29 3.307c0 1.826 1.473 3.306 3.29 3.306z"/>
    <path stroke="#000" stroke-linecap="round" stroke-linejoin="round" stroke-miterlimit="10" stroke-width="2" d="M64.17 63.184s4.09.302 4.09 2.442c0 0-.24 2.231-4.09 2.231 0 0 4.09.815 4.09 2.855 0 0-.39 2.03-4.09 2.03"/>
    <path fill="#0061FA" stroke="#000" stroke-linecap="round" stroke-linejoin="round" stroke-miterlimit="10" stroke-width="1.5" d="M60.28 84.541l-6.24 8.151 8.47 2.815 2.09-10.03-4.32-.936zM69.77 84.451l6.24 8.151-8.47 2.814-2.09-10.03 4.32-.935z"/>
    <path fill="#0061FA" stroke="#000" stroke-miterlimit="10" stroke-width="1.5" d="M63.17 80.33s-11.41-5.376-13.37 2.513c0 0-1.6 8.774 13.9 2.684l-.53-5.197zM66.69 80.21s11.41-5.377 13.37 2.513c0 0 1.6 8.774-13.9 2.683l.53-5.196z"/>
    <path fill="#0061FA" stroke="#000" stroke-miterlimit="10" stroke-width="1.5" d="M64.78 87.255c-1.57 0-2.85-1.286-2.85-2.864v-2.865c0-1.578 1.28-2.864 2.85-2.864s2.85 1.286 2.85 2.864v2.865c0 1.578-1.28 2.864-2.85 2.864z"/>
    <path stroke="#000" stroke-linecap="round" stroke-linejoin="round" stroke-miterlimit="10" stroke-width="1.5" d="M67.99 83.064s3.25-.854 7.8-.09M61.79 82.752s-3.56-.452-7.66.362"/>
    <path fill="#000" stroke="#000" stroke-miterlimit="10" stroke-width="1.5" d="M22.642 76.503l2.29-.653-2.835-10.036-2.29.653 2.835 10.036z"/>
    <path fill="#0061FA" stroke="#000" stroke-miterlimit="10" stroke-width="1.5" d="M27.23 91.195l1.5-.432c1.12-.322 1.77-1.488 1.45-2.613l-3.73-13.217c-.32-1.125-1.48-1.779-2.6-1.457l-1.5.432c-1.12.322-1.77 1.488-1.45 2.613l3.73 13.217c.32 1.125 1.48 1.779 2.6 1.457z"/>
    <path fill="#fff" stroke="#000" stroke-miterlimit="10" stroke-width="1.5" d="M18.86 70.099c7.102 0 12.86-5.787 12.86-12.925 0-7.138-5.758-12.925-12.86-12.925C11.758 44.249 6 50.036 6 57.174c0 7.138 5.758 12.925 12.86 12.925z"/>
    <path stroke="#000" stroke-linecap="round" stroke-miterlimit="10" stroke-width="1.5" d="M12.61 49.978s-3.79 3.286-2.67 10.241"/>
</svg>
