<svg xmlns="http://www.w3.org/2000/svg" width="110" height="110" fill="none" viewBox="0 0 110 110">
    <path fill="#760DE9" stroke="#000" stroke-miterlimit="10" stroke-width="2" d="M10.484 78.24s-5.14 21.106 18.07 27.437c23.21 6.332 50.39 2.161 56.4-.603 6.12-2.814 15.27-8.673 13.91-24.07-1.87-21.257-25.6-35.63-43.36-40.755-17.76-5.126-11.82 6.754-22.43 13.467-10.8 6.835-19.16 12.915-22.59 24.524z"/>
    <path fill="#000" d="M50.504 64.24c1.817 0 3.29-1.481 3.29-3.307 0-1.827-1.473-3.307-3.29-3.307s-3.29 1.48-3.29 3.307c0 1.826 1.473 3.306 3.29 3.306zM69.354 64.24c1.817 0 3.29-1.481 3.29-3.307 0-1.827-1.473-3.307-3.29-3.307s-3.29 1.48-3.29 3.307c0 1.826 1.473 3.306 3.29 3.306z"/>
    <path stroke="#000" stroke-linecap="round" stroke-linejoin="round" stroke-miterlimit="10" stroke-width="2" d="M59.634 63.174s4.09.301 4.09 2.442c0 0-.24 2.231-4.09 2.231 0 0 4.09.815 4.09 2.855 0 0-.39 2.03-4.09 2.03"/>
</svg>
