<svg xmlns="http://www.w3.org/2000/svg" width="110" height="110" fill="none" viewBox="0 0 110 110">
    <path fill="#760DE9" stroke="#000" stroke-miterlimit="10" stroke-width="2" d="M14.96 78.422s-5.14 20.98 18.07 27.275c23.21 6.295 50.39 2.148 56.4-.599 6.12-2.798 15.27-8.622 13.91-23.929-1.87-21.13-25.6-35.417-43.36-40.513-17.76-5.095-11.82 6.714-22.43 13.388-10.8 6.794-19.16 12.838-22.59 24.378z"/>
    <path fill="#000" d="M54.98 64.514c1.817 0 3.29-1.471 3.29-3.287 0-1.815-1.473-3.287-3.29-3.287s-3.29 1.472-3.29 3.287c0 1.816 1.473 3.288 3.29 3.288zM73.83 64.514c1.817 0 3.29-1.471 3.29-3.287 0-1.815-1.473-3.287-3.29-3.287s-3.29 1.472-3.29 3.287c0 1.816 1.473 3.288 3.29 3.288z"/>
    <path stroke="#000" stroke-linecap="round" stroke-linejoin="round" stroke-miterlimit="10" stroke-width="2" d="M64.11 63.456s4.09.3 4.09 2.427c0 0-.24 2.218-4.09 2.218 0 0 4.09.81 4.09 2.838 0 0-.39 2.018-4.09 2.018"/>
    <path fill="#FFD817" stroke="#000" stroke-linecap="round" stroke-linejoin="round" stroke-miterlimit="10" stroke-width="1.5" d="M43.08 3H13.92C9.55 3 6 6.547 6 10.913v16.645c0 4.366 3.55 7.913 7.92 7.913h19.2l5.92 6.274V35.47h4.03c4.37 0 7.92-3.547 7.92-7.913V10.913C51 6.537 47.45 3 43.08 3z"/>
    <path fill="#030000" d="M30.15 13.53c0-1.298-.92-1.988-2.13-1.988s-2.07.62-2.99 1.539l-2.91-2.668c1.63-1.868 3.88-3.107 6.55-3.107 3.68 0 6.55 1.749 6.55 5.865s-5.07 5.335-4.69 9.242h-4.59c-.71-4.556 4.21-6.455 4.21-8.883zm-5.07 14.008c0-1.808 1.31-3.257 3.14-3.257 1.81 0 3.14 1.449 3.14 3.257 0 1.838-1.33 3.287-3.14 3.287-1.83 0-3.14-1.449-3.14-3.287z"/>
</svg>
