<svg xmlns="http://www.w3.org/2000/svg" width="110" height="110" fill="none" viewBox="0 0 110 110">
    <path fill="#FFD817" stroke="#000" stroke-miterlimit="10" stroke-width="2" d="M28.551 107.387c11.36 5.608 25.41-5.072 36.25-6.806 16.55-2.635 32.25 2.804 39.68-5.181 9.09-9.769-4.88-25.293-6.88-35.993-1.17-6.261 4.24-20.974-7.34-26.234-9.87-4.488-23.73 5.26-35.24 6.558-9.87 1.12-19.75-1.278-29.33 1.625-6.56 1.991-12.98 7.787-12.93 14.92.06 8.372 7.92 15.119 7.82 23.649-.1 8.005-2.09 20.349 5.44 25.927.84.604 1.68 1.119 2.53 1.535z"/>
    <path stroke="#000" stroke-linecap="round" stroke-linejoin="round" stroke-miterlimit="10" stroke-width="2" d="M57.221 60.645l6.35.03s.22 9.63-3.39 9.54c-3.62-.078-2.96-9.57-2.96-9.57z"/>
    <path fill="#000" d="M49.251 61.051c1.861 0 3.37-1.494 3.37-3.338s-1.509-3.339-3.37-3.339c-1.861 0-3.37 1.495-3.37 3.339 0 1.844 1.509 3.338 3.37 3.338zM71.271 61.388c1.861 0 3.37-1.494 3.37-3.338s-1.509-3.34-3.37-3.34c-1.861 0-3.37 1.496-3.37 3.34 0 1.844 1.509 3.338 3.37 3.338z"/>
    <path fill="#fff" stroke="#000" stroke-linecap="round" stroke-linejoin="round" stroke-miterlimit="10" stroke-width="2" d="M10.831 76.26l-1.37-5.232-4.96 1.278 1.35 5.182c0-.01 5.02-1.318 4.98-1.229zM28.191 70.999l-3.09-3.993-10.49 2.695-.66 4.943c0 .01 14.22-3.695 14.24-3.645z"/>
    <path fill="#fff" stroke="#000" stroke-linecap="round" stroke-linejoin="round" stroke-miterlimit="10" stroke-width="2" d="M38.268 66.65L3 75.697 9.217 99.49l35.268-9.044-6.217-23.796z"/>
    <path fill="#FC5C00" stroke="#000" stroke-linecap="round" stroke-linejoin="round" stroke-miterlimit="10" stroke-width="2" d="M39.43 71.113L4.162 80.158 8.074 95.13l35.268-9.045-3.912-14.972z"/>
    <path fill="#fff" stroke="#000" stroke-linecap="round" stroke-linejoin="round" stroke-miterlimit="10" stroke-width="2" d="M23.921 91.397c4.623 0 8.37-3.712 8.37-8.292s-3.747-8.292-8.37-8.292c-4.623 0-8.37 3.712-8.37 8.292s3.747 8.292 8.37 8.292z"/>
    <path fill="#606060" stroke="#000" stroke-linecap="round" stroke-linejoin="round" stroke-miterlimit="10" stroke-width="2" d="M23.911 88.485c3.004 0 5.44-2.413 5.44-5.39s-2.436-5.39-5.44-5.39c-3.004 0-5.44 2.413-5.44 5.39s2.436 5.39 5.44 5.39z"/>
</svg>
