<svg xmlns="http://www.w3.org/2000/svg" width="110" height="110" fill="none" viewBox="0 0 110 110">
    <path fill="#FFD817" stroke="#000" stroke-miterlimit="10" stroke-width="2" d="M28.713 107.387c11.36 5.608 25.41-5.072 36.25-6.806 16.55-2.635 32.25 2.804 39.68-5.181 9.09-9.769-4.88-25.293-6.88-35.993-1.17-6.261 4.24-20.974-7.34-26.234-9.87-4.488-23.73 5.26-35.24 6.558-9.87 1.12-19.75-1.278-29.33 1.625-6.56 1.991-12.98 7.787-12.93 14.92.06 8.372 7.92 15.119 7.82 23.649-.1 8.005-2.09 20.349 5.44 25.927.84.604 1.68 1.119 2.53 1.535z"/>
    <path stroke="#000" stroke-linecap="round" stroke-linejoin="round" stroke-miterlimit="10" stroke-width="2" d="M57.383 60.914l6.35.03s.22 9.72-3.39 9.63c-3.62-.08-2.96-9.66-2.96-9.66z"/>
    <path fill="#000" d="M49.413 61.324c1.861 0 3.37-1.51 3.37-3.37 0-1.861-1.509-3.37-3.37-3.37-1.861 0-3.37 1.508-3.37 3.37 0 1.86 1.509 3.37 3.37 3.37zM71.433 61.654c1.861 0 3.37-1.509 3.37-3.37 0-1.861-1.509-3.37-3.37-3.37-1.861 0-3.37 1.509-3.37 3.37 0 1.861 1.509 3.37 3.37 3.37z"/>
    <path fill="#FF9F00" stroke="#000" stroke-miterlimit="10" stroke-width="2" d="M105.043 44.964c1.17-.82 1.93-2.12 1.93-3.6 0-2.49-2.15-4.51-4.79-4.51-.59 0-1.16.11-1.68.3 0-.07.02-.14.02-.21 0-2.49-2.15-4.51-4.79-4.51-2.65 0-4.79 2.02-4.79 4.51 0 .08.02.16.03.24-.55-.21-1.15-.33-1.78-.33-2.65 0-4.79 2.02-4.79 4.51 0 1.48.77 2.78 1.93 3.6-1.17.82-1.93 2.12-1.93 3.6 0 2.49 2.15 4.51 4.79 4.51.63 0 1.22-.12 1.77-.33 0 .05-.02.1-.02.15 0 2.49 2.15 4.51 4.79 4.51 2.65 0 4.79-2.02 4.79-4.51 0-.04-.01-.08-.01-.12.52.18 1.08.3 1.67.3 2.65 0 4.79-2.02 4.79-4.51.01-1.47-.76-2.77-1.93-3.6z"/>
    <path fill="#fff" stroke="#000" stroke-miterlimit="10" stroke-width="2" d="M95.683 48.243c1.833 0 3.32-1.486 3.32-3.32 0-1.833-1.487-3.32-3.32-3.32-1.834 0-3.32 1.487-3.32 3.32 0 1.834 1.486 3.32 3.32 3.32z"/>
    <path fill="#fff" d="M11.483 77.694c2.94 2.85 7.12 2.58 15 17.15 1.82 3.36 2.39 7.38 5.49 9.75 1.2.92 2.29-.14 2.8-.4.68-.34 1.09-.86 1.21-1.4.6-2.6-2.04-5.47-3.63-7.5-2.4-3.07-4.71-5.82-6.04-9.6-.63-1.8-1.07-3.03-1.43-5.31-.23-1.44-.31-3.08-.03-4.53.28-1.45.74-2.6.48-4.13"/>
    <path stroke="#000" stroke-miterlimit="10" stroke-width="2" d="M11.483 77.694c2.94 2.85 7.12 2.58 15 17.15 1.82 3.36 2.39 7.38 5.49 9.75 1.2.92 2.29-.14 2.8-.4.68-.34 1.09-.86 1.21-1.4.6-2.6-2.04-5.47-3.63-7.5-2.4-3.07-4.71-5.82-6.04-9.6-.63-1.8-1.07-3.03-1.43-5.31-.23-1.44-.31-3.08-.03-4.53.28-1.45.74-2.6.48-4.13"/>
    <path fill="#FC5C00" stroke="#000" stroke-linecap="round" stroke-linejoin="round" stroke-miterlimit="10" stroke-width="2" d="M11.483 77.694c2.94 2.85 7.12 2.58 15 17.15 1.82 3.36 2.39 7.38 5.49 9.75 1.2.92 2.29-.14 2.8-.4.68-.34 1.09-.86 1.21-1.4.6-2.6-2.04-5.47-3.63-7.5-2.4-3.07-4.71-5.82-6.04-9.6-.63-1.8-1.07-3.03-1.43-5.31-.23-1.44-.31-3.08-.03-4.53.28-1.45.74-2.6.48-4.13l-13.85 5.97z"/>
    <path stroke="#000" stroke-linecap="round" stroke-miterlimit="10" stroke-width="2" d="M10.843 75.464l13.38-5.7"/>
    <path fill="#fff" stroke="#000" stroke-linecap="round" stroke-linejoin="round" stroke-miterlimit="10" stroke-width="2" d="M20.883 61.854s3.7 8.87 4.45 9.88l-13.86 5.96c-1.35-1.35-6.55-13.16-6.55-13.16l5.57-6.25 7 .49 3.39 3.08z"/>
    <path fill="#69B70C" stroke="#000" stroke-linecap="round" stroke-linejoin="round" stroke-miterlimit="10" stroke-width="2" d="M20.883 61.854c-1.83 1.6-4.04.38-5.12-.8-1.08-1.18-3.99-2.67-5.21 2.25-1.22 4.92-5.63 1.22-5.63 1.22s-2.01-4.9-1.92-5.57c.09-.67 12.85-6.21 16.23-5.78 0 0-1.13 1.74-.56 3.52.57 1.78 2.21 5.16 2.21 5.16z"/>
    <path fill="#fff" d="M14.513 74.134s-3.48-3.39-3.62-7.41l3.62 7.41z"/>
    <path stroke="#000" stroke-linecap="round" stroke-linejoin="round" stroke-miterlimit="10" stroke-width="2" d="M14.513 74.134s-3.48-3.39-3.62-7.41"/>
    <path fill="#fff" d="M14.803 70.774s-1.63-2.55-1.15-5.01l1.15 5.01z"/>
    <path stroke="#000" stroke-linecap="round" stroke-linejoin="round" stroke-miterlimit="10" stroke-width="2" d="M14.803 70.774s-1.63-2.55-1.15-5.01"/>
</svg>
