<svg xmlns="http://www.w3.org/2000/svg" width="110" height="110" fill="none" viewBox="0 0 110 110">
    <path fill="#FFD817" stroke="#000" stroke-miterlimit="10" stroke-width="2" d="M24.272 106.528c8.48 6.036 21.24-.878 30.25-.888 13.75-.02 25.76 6.435 32.82.868 8.63-6.804-.66-21.26-.89-30.25-.13-5.258 6.16-16.561-2.53-22.338-7.41-4.929-19.91 1.237-29.4.818-8.14-.36-15.83-3.582-23.97-2.444-5.57.778-11.53 4.679-12.42 10.505-1.04 6.834 4.45 13.36 3.25 20.293-1.12 6.515-4.34 16.332 1.04 21.849.6.619 1.22 1.138 1.85 1.587z"/>
    <path stroke="#000" stroke-linecap="round" stroke-linejoin="round" stroke-miterlimit="10" stroke-width="2" d="M53.572 72.088l5.14.838s-1.07 7.882-3.99 7.353c-2.91-.529-1.15-8.191-1.15-8.191z"/>
    <path fill="#000" d="M47.502 71.43c1.53 0 2.77-1.238 2.77-2.764 0-1.527-1.24-2.764-2.77-2.764s-2.77 1.237-2.77 2.764c0 1.526 1.24 2.763 2.77 2.763zM65.292 74.542c1.53 0 2.77-1.237 2.77-2.764 0-1.526-1.24-2.763-2.77-2.763s-2.77 1.237-2.77 2.763c0 1.527 1.24 2.764 2.77 2.764z"/>
</svg>
