<svg xmlns="http://www.w3.org/2000/svg" width="110" height="110" fill="none" viewBox="0 0 110 110">
    <path fill="#FFD817" stroke="#000" stroke-miterlimit="10" stroke-width="2" d="M18.641 106.004c10.33 7.312 25.9-1.06 36.88-1.07 16.76-.03 31.41 7.788 40.01 1.06 10.52-8.234-.81-25.741-1.08-36.62-.16-6.362 7.51-20.055-3.09-27.05-9.03-5.965-24.27 1.496-35.84.99-9.93-.435-19.3-4.34-29.22-2.962-6.8.941-14.05 5.668-15.14 12.722-1.27 8.274 5.43 16.17 3.97 24.573-1.37 7.887-5.29 19.777 1.26 26.455.73.723 1.48 1.357 2.25 1.902z"/>
    <path stroke="#000" stroke-linecap="round" stroke-linejoin="round" stroke-miterlimit="10" stroke-width="2" d="M54.371 64.3l6.26 1.011s-1.3 9.542-4.86 8.898c-3.55-.635-1.4-9.909-1.4-9.909z"/>
    <path fill="#000" d="M46.961 63.498c1.861 0 3.37-1.495 3.37-3.34 0-1.843-1.509-3.338-3.37-3.338-1.861 0-3.37 1.495-3.37 3.339 0 1.844 1.509 3.339 3.37 3.339zM68.661 67.263c1.861 0 3.37-1.495 3.37-3.34 0-1.843-1.509-3.338-3.37-3.338-1.861 0-3.37 1.495-3.37 3.339 0 1.844 1.509 3.339 3.37 3.339z"/>
</svg>
