<svg xmlns="http://www.w3.org/2000/svg" width="110" height="110" fill="none" viewBox="0 0 110 110">
    <path fill="#FFD817" stroke="#000" stroke-miterlimit="10" stroke-width="2" d="M28.713 107.387c11.36 5.608 25.41-5.072 36.25-6.806 16.55-2.635 32.25 2.804 39.68-5.181 9.09-9.769-4.88-25.293-6.88-35.993-1.17-6.261 4.24-20.974-7.34-26.234-9.87-4.488-23.73 5.26-35.24 6.558-9.87 1.12-19.75-1.278-29.33 1.625-6.56 1.991-12.98 7.787-12.93 14.92.06 8.372 7.92 15.119 7.82 23.649-.1 8.005-2.09 20.349 5.44 25.927.84.604 1.68 1.119 2.53 1.535z"/>
    <path stroke="#000" stroke-linecap="round" stroke-linejoin="round" stroke-miterlimit="10" stroke-width="2" d="M57.383 60.645l6.35.03s.22 9.63-3.39 9.54c-3.62-.079-2.96-9.57-2.96-9.57z"/>
    <path fill="#000" d="M49.413 61.051c1.861 0 3.37-1.494 3.37-3.338s-1.509-3.339-3.37-3.339c-1.861 0-3.37 1.495-3.37 3.339 0 1.844 1.509 3.338 3.37 3.338zM71.433 61.378c1.861 0 3.37-1.494 3.37-3.338s-1.509-3.34-3.37-3.34c-1.861 0-3.37 1.496-3.37 3.34 0 1.844 1.509 3.338 3.37 3.338z"/>
    <path fill="#fff" d="M11.483 75.694c2.94 2.85 7.12 2.58 15 17.15 1.82 3.36 2.39 7.38 5.49 9.75 1.2.92 2.29-.14 2.8-.4.68-.34 1.09-.86 1.21-1.4.6-2.6-2.04-5.47-3.63-7.5-2.4-3.07-4.71-5.82-6.04-9.6-.63-1.8-1.07-3.03-1.43-5.31-.23-1.44-.31-3.08-.03-4.53.28-1.45.74-2.6.48-4.13"/>
    <path stroke="#000" stroke-miterlimit="10" stroke-width="2" d="M11.483 75.694c2.94 2.85 7.12 2.58 15 17.15 1.82 3.36 2.39 7.38 5.49 9.75 1.2.92 2.29-.14 2.8-.4.68-.34 1.09-.86 1.21-1.4.6-2.6-2.04-5.47-3.63-7.5-2.4-3.07-4.71-5.82-6.04-9.6-.63-1.8-1.07-3.03-1.43-5.31-.23-1.44-.31-3.08-.03-4.53.28-1.45.74-2.6.48-4.13"/>
    <path fill="#FC5C00" stroke="#000" stroke-linecap="round" stroke-linejoin="round" stroke-miterlimit="10" stroke-width="2" d="M11.483 75.694c2.94 2.85 7.12 2.58 15 17.15 1.82 3.36 2.39 7.38 5.49 9.75 1.2.92 2.29-.14 2.8-.4.68-.34 1.09-.86 1.21-1.4.6-2.6-2.04-5.47-3.63-7.5-2.4-3.07-4.71-5.82-6.04-9.6-.63-1.8-1.07-3.03-1.43-5.31-.23-1.44-.31-3.08-.03-4.53.28-1.45.74-2.6.48-4.13l-13.85 5.97z"/>
    <path stroke="#000" stroke-linecap="round" stroke-miterlimit="10" stroke-width="2" d="M10.843 73.464l13.38-5.7"/>
    <path fill="#fff" stroke="#000" stroke-linecap="round" stroke-linejoin="round" stroke-miterlimit="10" stroke-width="2" d="M20.883 59.854s3.7 8.87 4.45 9.88l-13.86 5.96c-1.35-1.35-6.55-13.16-6.55-13.16l5.57-6.25 7 .49 3.39 3.08z"/>
    <path fill="#69B70C" stroke="#000" stroke-linecap="round" stroke-linejoin="round" stroke-miterlimit="10" stroke-width="2" d="M20.883 59.854c-1.83 1.6-4.04.38-5.12-.8-1.08-1.17-3.99-2.67-5.21 2.25-1.22 4.92-5.63 1.22-5.63 1.22s-2.01-4.9-1.92-5.57c.09-.67 12.85-6.21 16.23-5.78 0 0-1.13 1.74-.56 3.52.57 1.78 2.21 5.16 2.21 5.16z"/>
    <path fill="#fff" d="M14.513 72.134s-3.48-3.39-3.62-7.41l3.62 7.41z"/>
    <path stroke="#000" stroke-linecap="round" stroke-linejoin="round" stroke-miterlimit="10" stroke-width="2" d="M14.513 72.134s-3.48-3.39-3.62-7.41"/>
    <path fill="#fff" d="M14.803 68.774s-1.63-2.55-1.15-5.01l1.15 5.01z"/>
    <path stroke="#000" stroke-linecap="round" stroke-linejoin="round" stroke-miterlimit="10" stroke-width="2" d="M14.803 68.774s-1.63-2.55-1.15-5.01"/>
    <path fill="#606060" stroke="#000" stroke-linecap="round" stroke-linejoin="round" stroke-miterlimit="10" stroke-width="2" d="M91.263 79.832c-.03-3.22-2.92-5.832-6.48-5.832-3.56 0-6.45 2.603-6.48 5.832v15.724c.02 3.229 2.91 5.841 6.48 5.841 3.57 0 6.46-2.612 6.48-5.841V79.832z"/>
    <path stroke="#000" stroke-linecap="round" stroke-linejoin="round" stroke-miterlimit="10" stroke-width="2" d="M75.523 91.388v5.66s-.39 7.811 9.34 7.811 9.18-7.7 9.18-7.7v-5.772M84.783 105.138v4.049M81 109.188h8"/>
</svg>
