<svg xmlns="http://www.w3.org/2000/svg" width="110" height="110" fill="none" viewBox="0 0 110 110">
    <path fill="#FFD817" stroke="#000" stroke-miterlimit="10" stroke-width="2" d="M28.557 107.387c11.36 5.608 25.41-5.072 36.25-6.806 16.55-2.635 32.25 2.804 39.68-5.181 9.09-9.769-4.88-25.293-6.88-35.993-1.17-6.261 4.24-20.974-7.34-26.234-9.87-4.488-23.73 5.26-35.24 6.558-9.87 1.12-19.75-1.278-29.33 1.625-6.56 1.991-12.98 7.787-12.93 14.92.06 8.372 7.92 15.119 7.82 23.649-.1 8.005-2.09 20.349 5.44 25.927.84.614 1.68 1.119 2.53 1.535z"/>
    <path stroke="#000" stroke-linecap="round" stroke-linejoin="round" stroke-miterlimit="10" stroke-width="2" d="M57.227 59.772l6.35.03s.22 9.672-3.39 9.583c-3.62-.08-2.96-9.613-2.96-9.613z"/>
    <path fill="#000" d="M49.257 60.18c1.861 0 3.37-1.501 3.37-3.353 0-1.852-1.509-3.354-3.37-3.354-1.861 0-3.37 1.502-3.37 3.354s1.509 3.353 3.37 3.353zM71.277 60.519c1.861 0 3.37-1.502 3.37-3.354s-1.509-3.353-3.37-3.353c-1.861 0-3.37 1.5-3.37 3.353 0 1.852 1.509 3.354 3.37 3.354z"/>
    <path fill="#606060" stroke="#000" stroke-linecap="round" stroke-linejoin="round" stroke-miterlimit="10" stroke-width="2" d="M91.107 79.445c-.03-3.274-2.92-5.93-6.48-5.93-3.56 0-6.45 2.646-6.48 5.93v15.992c.02 3.283 2.91 5.94 6.48 5.94 3.57 0 6.46-2.657 6.48-5.94V79.445z"/>
    <path stroke="#000" stroke-linecap="round" stroke-linejoin="round" stroke-miterlimit="10" stroke-width="2" d="M75.367 91.207v5.729s-.39 7.902 9.34 7.902 9.18-7.792 9.18-7.792v-5.839M84.627 105.12v4M80.5 109.177h8"/>
    <path fill="#fff" stroke="#000" stroke-linecap="round" stroke-linejoin="round" stroke-miterlimit="10" stroke-width="2" d="M10.837 75.455l-1.37-5.254-4.96 1.284 1.35 5.204c0-.01 5.02-1.323 4.98-1.234zM28.197 70.17l-3.09-4.01-10.49 2.707-.66 4.966c0 .01 14.22-3.712 14.24-3.662z"/>
    <path fill="#fff" stroke="#000" stroke-linecap="round" stroke-linejoin="round" stroke-miterlimit="10" stroke-width="2" d="M38.268 65.807L3 74.892l6.217 23.9 35.268-9.084-6.217-23.9z"/>
    <path fill="#FC5C00" stroke="#000" stroke-linecap="round" stroke-linejoin="round" stroke-miterlimit="10" stroke-width="2" d="M39.43 70.29L4.162 79.373l3.912 15.038 35.268-9.085L39.43 70.29z"/>
    <path fill="#fff" stroke="#000" stroke-linecap="round" stroke-linejoin="round" stroke-miterlimit="10" stroke-width="2" d="M23.927 90.66c4.623 0 8.37-3.729 8.37-8.329 0-4.6-3.747-8.329-8.37-8.329-4.622 0-8.37 3.729-8.37 8.329 0 4.6 3.748 8.329 8.37 8.329z"/>
    <path fill="#606060" stroke="#000" stroke-linecap="round" stroke-linejoin="round" stroke-miterlimit="10" stroke-width="2" d="M23.917 87.734c3.005 0 5.44-2.423 5.44-5.413s-2.435-5.413-5.44-5.413c-3.004 0-5.44 2.423-5.44 5.413s2.436 5.413 5.44 5.413z"/>
</svg>
