<svg xmlns="http://www.w3.org/2000/svg" width="110" height="110" fill="none" viewBox="0 0 110 110">
    <path fill="#FF9F00" stroke="#211816" stroke-miterlimit="10" stroke-width="2" d="M83.26 68.624c-.42-.728-.86-1.417-1.31-2.085 1.37-1.457 2.21-3.413 2.21-5.569 0-4.5-3.66-8.153-8.17-8.153-2.41 0-4.56 1.048-6.06 2.695-6.73-3.513-12.87-3.553-14.42-3.503-1.53-.05-7.58-.01-14.25 3.413-1.5-1.826-3.78-3.004-6.33-3.004-4.51 0-8.17 3.653-8.17 8.153 0 2.265.93 4.311 2.42 5.788-.48.719-.96 1.457-1.42 2.255-10.45 18.083-8.64 29.14-8.64 29.14S19.12 109 33.38 109H77.6c14.26 0 14.26-11.246 14.26-11.246s1.85-11.047-8.6-29.13z"/>
    <path stroke="#000" stroke-linecap="round" stroke-linejoin="round" stroke-miterlimit="10" stroke-width="2" d="M50.72 67.067s-2.02 2.705-6.49 3.962M60.22 67.067s2.11 2.705 6.79 3.962M52.28 71.668l6.63-.1s.46 8.403-3.32 8.403-3.31-8.303-3.31-8.303z"/>
</svg>
