<svg xmlns="http://www.w3.org/2000/svg" width="110" height="110" fill="none" viewBox="0 0 110 110">
    <path fill="#FF9F00" stroke="#211816" stroke-miterlimit="10" stroke-width="2" d="M88.327 59.407c-.52-.894-1.05-1.738-1.59-2.563 1.67-1.789 2.7-4.191 2.7-6.834 0-5.529-4.46-10.011-9.96-10.011-2.93 0-5.56 1.286-7.39 3.316-8.21-4.322-15.69-4.362-17.58-4.301-1.87-.07-9.25-.02-17.37 4.19-1.83-2.25-4.6-3.688-7.72-3.688-5.5 0-9.96 4.483-9.96 10.011 0 2.784 1.13 5.297 2.95 7.116-.59.885-1.17 1.8-1.73 2.764-12.74 22.204-10.53 35.783-10.53 35.783s0 13.81 17.39 13.81h53.93c17.39 0 17.39-13.81 17.39-13.81s2.21-13.58-10.53-35.783z"/>
    <path stroke="#000" stroke-linecap="round" stroke-linejoin="round" stroke-miterlimit="10" stroke-width="2" d="M48.647 57.487s-2.46 3.317-7.92 4.865M60.237 57.487s2.58 3.317 8.28 4.865M50.557 63.147l8.09-.121s.56 10.322-4.04 10.322-4.05-10.201-4.05-10.201z"/>
</svg>
