<svg xmlns="http://www.w3.org/2000/svg" width="110" height="110" fill="none" viewBox="0 0 110 110">
    <path fill="#FF9F00" stroke="#000" stroke-miterlimit="10" stroke-width="2" d="M89.327 59.812c-.52-.887-1.05-1.724-1.59-2.542 1.67-1.774 2.7-4.157 2.7-6.779 0-5.483-4.46-9.929-9.96-9.929-2.93 0-5.56 1.276-7.39 3.29-8.21-4.287-15.69-4.327-17.58-4.267-1.87-.07-9.25-.02-17.37 4.157-1.83-2.233-4.6-3.658-7.72-3.658-5.5 0-9.96 4.446-9.96 9.929 0 2.761 1.13 5.254 2.95 7.058-.59.877-1.17 1.784-1.73 2.741-12.74 22.022-10.53 35.49-10.53 35.49s0 13.698 17.39 13.698h53.93c17.39 0 17.39-13.698 17.39-13.698s2.21-13.468-10.53-35.49z"/>
    <path stroke="#000" stroke-linecap="round" stroke-linejoin="round" stroke-miterlimit="10" stroke-width="2" d="M49.647 57.919s-2.46 3.29-7.92 4.825M61.237 57.919s2.58 3.29 8.28 4.825M51.557 63.53l8.09-.119s.56 10.238-4.04 10.238-4.05-10.118-4.05-10.118z"/>
    <path fill="#FFD817" stroke="#000" stroke-linecap="round" stroke-linejoin="round" stroke-miterlimit="10" stroke-width="2" d="M73.537 41.53c-17.23-30.755-49.75-17.457-49.75-17.457 8.89 3.6 13.34 17.735 13.34 17.735l36.41-.279z"/>
    <path fill="#fff" stroke="#000" stroke-linecap="round" stroke-linejoin="round" stroke-miterlimit="10" stroke-width="2" d="M74.077 47.41h-37.46c-1.43 0-2.58-1.155-2.58-2.571v-3.16c0-1.426 1.16-2.572 2.58-2.572h37.46c1.43 0 2.58 1.156 2.58 2.572v3.16c0 1.416-1.15 2.572-2.58 2.572zM24.337 28.779c2.761 0 5-2.232 5-4.985s-2.239-4.984-5-4.984c-2.762 0-5 2.232-5 4.984 0 2.753 2.238 4.985 5 4.985z"/>
    <path fill="#FC5C00" stroke="#000" stroke-miterlimit="10" stroke-width="2" d="M35.467 76.521c3.545 0 6.42-2.865 6.42-6.4s-2.875-6.4-6.42-6.4c-3.546 0-6.42 2.865-6.42 6.4s2.874 6.4 6.42 6.4zM76.457 75.454c3.545 0 6.42-2.865 6.42-6.4s-2.875-6.4-6.42-6.4c-3.546 0-6.42 2.865-6.42 6.4s2.874 6.4 6.42 6.4z"/>
</svg>
