<svg xmlns="http://www.w3.org/2000/svg" width="110" height="110" fill="none" viewBox="0 0 110 110">
    <path fill="#FF9F00" stroke="#000" stroke-miterlimit="10" stroke-width="2" d="M88.327 59.371c-.52-.895-1.05-1.74-1.59-2.565 1.67-1.79 2.7-4.194 2.7-6.84 0-5.532-4.46-10.018-9.96-10.018-2.93 0-5.56 1.287-7.39 3.32-8.21-4.326-15.69-4.366-17.58-4.306-1.87-.07-9.25-.02-17.37 4.195-1.83-2.253-4.6-3.692-7.72-3.692-5.5 0-9.96 4.486-9.96 10.018 0 2.787 1.13 5.301 2.95 7.122-.59.885-1.17 1.8-1.73 2.766-12.74 22.22-10.53 35.809-10.53 35.809s0 13.82 17.39 13.82h53.93c17.39 0 17.39-13.82 17.39-13.82s2.21-13.59-10.53-35.809z"/>
    <path stroke="#000" stroke-linecap="round" stroke-linejoin="round" stroke-miterlimit="10" stroke-width="2" d="M48.647 57.46s-2.46 3.32-7.92 4.868M60.237 57.46s2.58 3.32 8.28 4.868M50.557 63.123l8.09-.121s.56 10.33-4.04 10.33-4.05-10.21-4.05-10.21z"/>
    <path fill="#FC5C00" stroke="#000" stroke-miterlimit="10" stroke-width="1.5" d="M34.467 76.23c3.545 0 6.42-2.892 6.42-6.458 0-3.567-2.875-6.458-6.42-6.458-3.546 0-6.42 2.891-6.42 6.458 0 3.566 2.874 6.457 6.42 6.457zM75.457 75.153c3.545 0 6.42-2.891 6.42-6.458 0-3.566-2.875-6.457-6.42-6.457-3.546 0-6.42 2.89-6.42 6.457 0 3.567 2.874 6.458 6.42 6.458z"/>
    <path fill="#FFD817" stroke="#000" stroke-linecap="round" stroke-linejoin="round" stroke-miterlimit="10" stroke-width="1.5" d="M72.537 40.923c-17.23-31.03-49.75-17.612-49.75-17.612 8.89 3.631 13.34 17.894 13.34 17.894l36.41-.282z"/>
    <path fill="#fff" stroke="#000" stroke-linecap="round" stroke-linejoin="round" stroke-miterlimit="10" stroke-width="1.5" d="M73.077 46.858h-37.46c-1.43 0-2.58-1.167-2.58-2.595v-3.189c0-1.438 1.16-2.595 2.58-2.595h37.46c1.43 0 2.58 1.167 2.58 2.595v3.189c0 1.428-1.15 2.595-2.58 2.595zM23.337 28.059c2.761 0 5-2.252 5-5.03 0-2.777-2.239-5.029-5-5.029-2.762 0-5 2.252-5 5.03 0 2.777 2.238 5.029 5 5.029z"/>
</svg>
