<svg xmlns="http://www.w3.org/2000/svg" width="110" height="110" fill="none" viewBox="0 0 110 110">
    <path fill="#FF9F00" stroke="#000" stroke-miterlimit="10" stroke-width="2" d="M85.327 59.812c-.52-.887-1.05-1.724-1.59-2.542 1.67-1.774 2.7-4.157 2.7-6.779 0-5.483-4.46-9.929-9.96-9.929-2.93 0-5.56 1.276-7.39 3.29-8.21-4.287-15.69-4.327-17.58-4.267-1.87-.07-9.25-.02-17.37 4.157-1.83-2.233-4.6-3.658-7.72-3.658-5.5 0-9.96 4.446-9.96 9.929 0 2.761 1.13 5.254 2.95 7.058-.59.877-1.17 1.784-1.73 2.741-12.74 22.022-10.53 35.49-10.53 35.49S7.147 109 24.537 109h53.93c17.39 0 17.39-13.698 17.39-13.698s2.21-13.468-10.53-35.49z"/>
    <path stroke="#000" stroke-linecap="round" stroke-linejoin="round" stroke-miterlimit="10" stroke-width="2" d="M45.647 57.919s-2.46 3.29-7.92 4.825M57.237 57.919s2.58 3.29 8.28 4.825M47.557 63.53l8.09-.119s.56 10.238-4.04 10.238-4.05-10.118-4.05-10.118z"/>
    <path fill="#FFD817" stroke="#000" stroke-linecap="round" stroke-linejoin="round" stroke-miterlimit="10" stroke-width="2" d="M88.567 6.07l3.63 7.336c.28.559.82.957 1.44 1.047l8.12 1.177c1.57.229 2.2 2.153 1.06 3.25l-5.88 5.712c-.45.438-.66 1.067-.55 1.685l1.39 8.065c.27 1.555-1.37 2.751-2.78 2.013l-7.27-3.808c-.56-.289-1.22-.289-1.78 0l-7.27 3.808c-1.4.738-3.04-.448-2.78-2.013l1.39-8.065c.11-.619-.1-1.247-.55-1.685l-5.88-5.712c-1.14-1.107-.51-3.031 1.06-3.25l8.12-1.177c.62-.09 1.16-.478 1.44-1.047l3.63-7.337c.73-1.425 2.76-1.425 3.46 0z"/>
    <path fill="#FC5C00" stroke="#000" stroke-miterlimit="10" stroke-width="2" d="M31.467 76.52c3.545 0 6.42-2.865 6.42-6.4 0-3.534-2.875-6.4-6.42-6.4-3.546 0-6.42 2.866-6.42 6.4 0 3.535 2.874 6.4 6.42 6.4zM72.457 75.454c3.545 0 6.42-2.865 6.42-6.4s-2.875-6.4-6.42-6.4c-3.546 0-6.42 2.865-6.42 6.4s2.874 6.4 6.42 6.4z"/>
</svg>
