<svg xmlns="http://www.w3.org/2000/svg" width="110" height="110" fill="none" viewBox="0 0 110 110">
    <path fill="#FF9F00" stroke="#000" stroke-miterlimit="10" stroke-width="2" d="M93.504 59.407c-.52-.894-1.05-1.738-1.59-2.563 1.67-1.789 2.7-4.191 2.7-6.834 0-5.529-4.46-10.011-9.96-10.011-2.93 0-5.56 1.286-7.39 3.316-8.21-4.322-15.69-4.362-17.58-4.301-1.87-.07-9.25-.02-17.37 4.19-1.83-2.25-4.6-3.688-7.72-3.688-5.5 0-9.96 4.483-9.96 10.011 0 2.784 1.13 5.297 2.95 7.116-.59.885-1.17 1.8-1.73 2.764-12.74 22.204-10.53 35.783-10.53 35.783s0 13.81 17.39 13.81h53.93c17.39 0 17.39-13.81 17.39-13.81s2.21-13.58-10.53-35.783z"/>
    <path stroke="#000" stroke-linecap="round" stroke-linejoin="round" stroke-miterlimit="10" stroke-width="2" d="M53.824 57.488s-2.46 3.317-7.92 4.865M65.414 57.488s2.58 3.317 8.28 4.865M55.734 63.146l8.09-.12s.56 10.322-4.04 10.322-4.05-10.202-4.05-10.202z"/>
    <path fill="#FFD817" stroke="#000" stroke-linecap="round" stroke-linejoin="round" stroke-miterlimit="10" stroke-width="2" d="M10.184 76.353s21.28 1.77 32.91 3.438c11.63 1.659 13.05 2.985 13.05 2.985s1.53.995-.02 3.086c-1.55 2.09-3.52 13.6-2.33 17.971 1.2 4.383-9.49 2.433-9.49 2.433s-30.94-3.568-37.53-6.262c0 0-1.88-1.035.22-5.016 2.1-3.98 1.78-16.091 1.78-16.091s-.12-2.131 1.41-2.544z"/>
    <path stroke="#000" stroke-linecap="round" stroke-linejoin="round" stroke-miterlimit="10" stroke-width="2" d="M44.944 88.003s-8.88 6.332-21.17 7.116"/>
    <path fill="#FC5C00" stroke="#000" stroke-miterlimit="10" stroke-width="2" d="M39.644 76.253c3.546 0 6.42-2.889 6.42-6.453 0-3.563-2.874-6.453-6.42-6.453s-6.42 2.89-6.42 6.453c0 3.564 2.874 6.453 6.42 6.453zM80.634 75.178c3.546 0 6.42-2.89 6.42-6.453 0-3.564-2.874-6.453-6.42-6.453s-6.42 2.889-6.42 6.453c0 3.564 2.874 6.453 6.42 6.453z"/>
</svg>
