<svg xmlns="http://www.w3.org/2000/svg" width="316" height="108" fill="none" viewBox="0 0 316 108">
    <g clip-path="url(#clip0)">
        <path fill="#FFD817" d="M262.464 1.674c15.063 0 30.82-1.674 41.902 6.326 10.329 7.456 11.304 25.518 11.277 37.648-.012 5.078-.037 10.158-.001 15.236.055 7.646-.285 13.903-5.369 19.529-4.446 4.919-9.777 7.795-16.031 9.61-5.359 1.557-11.095 2.033-16.646 2.033H62.391s-3.311 0-2.893 4.726l3.867 5.502c6.739 5.832-3.058 5.372-6.44 4.455-13.08-3.546-23.59-13.41-37.291-15.109C14 90.933 8.186 89.693 4.407 84.898c-4.659-5.914-3.141-14.041-3.202-21.112-.08-9.554-.082-19.109-.068-28.662.003-2.121.002-4.241 0-6.362 0 0 2.64-27.274 30.234-27.274 10.615 0 21.23.015 31.845-.011 17.418-.042 34.837-.011 52.256-.011 19.091 0 38.187-.102 57.279-.009 15.603.077 31.25-.373 46.848.008 7.544.185 16.859.035 22.638.035 7.112 0 13.485.174 20.227.174z"/>
    </g>
    <defs>
        <clipPath id="clip0">
            <path fill="#fff" d="M0 0H315.918V108H0z" transform="skewX(.044)"/>
        </clipPath>
    </defs>
</svg>
