<svg xmlns="http://www.w3.org/2000/svg" width="316" height="108" fill="none" viewBox="0 0 316 108">
    <path fill="#FFD817" d="M53.76.134S.004-5.225.004 51.755c0 0-1.024 29.923 30.205 37.881 0 0 14.106 2.09 18.201 6.864 0 0 12.479 9.065 24.283 11.012 1.273.21 3.74 1.321 4.186-.746.391-1.809-2.12-3.436-3.195-4.438-2.033-1.896-5.018-4.976-5.216-7.985-.394-5.956 22.013-3.322 25.337-3.279 13.097.17 26.178-.04 39.273.166 13.587.215 27.187-.124 40.776-.04 13.356.081 26.719.132 40.074.062 6.456-.033 12.926-.14 19.381-.045.105.002.211.021.315.021H279.7s32.425 1.415 35.837-21.576c1.954-13.166-2.586-26.398-7.779-38.202-3.426-7.788-6.213-16.37-12.019-22.678C288.394.79 278.206 0 268.098 0 246.938 0 53.76.134 53.76.134z"/>
</svg>
