<svg id="레이어_1" data-name="레이어 1" xmlns="http://www.w3.org/2000/svg" viewBox="0 0 328 108"><defs><style>.cls-1{fill:#ffac40;}</style></defs><title>대지 1</title><path class="cls-1" d="M317.34,7.42c11.07,8,10.38,26.1,10.34,38.23,0,5.08-.05,10.16,0,15.23.06,7.65-.3,13.91-5.59,19.53-4.62,4.92-10.15,7.8-16.65,9.61a64.47,64.47,0,0,1-17.28,2H64.7c-2.74,0-6,4.39,1,10.22s-3.18,5.38-6.69,4.46c-13.58-3.55-24.49-13.41-38.71-15.11-5.85-.7-11.88-1.94-15.8-6.73C-.32,79,1.2,71.76,1.2,63.79s0-32.56,0-35S3.92,1.49,32.57,1.49q16.53,0,33.06,0c18.09,0,36.17,0,54.26,0,19.82,0,120.65.2,131.65.2S304-2.22,317.34,7.42Z"/></svg>