<svg id="레이어_1" data-name="레이어 1" xmlns="http://www.w3.org/2000/svg" viewBox="0 0 328 108"><defs><style>.cls-1{fill:#ffac40;}</style></defs><title>대지 1</title><path class="cls-1" d="M52.78.16C38,.31,26.23,2.19,16.93,16.28S-14.91,89.9,18,89.9l169.75-.05c17.29-.14,74.63-1.71,83.27,0,8.86,1.77,8.06,10.63,14.71,16,0,0,3,2.77,5,0,4.94-6.79,3-15,11.75-16.08,7.45-.89,22.84-.26,23.62-10.21.64-8.11,1.57-13.15,1.8-21.29.36-12.89-1-25.43-2.49-38.21C324.2,9.2,322.1,0,309.23,0l-27.7,0-47.6.08-59.09.1Q146,.27,117.08.31C98.9.36,73.72.28,55.54.16Q54.16.14,52.78.16Z"/></svg>