<svg xmlns="http://www.w3.org/2000/svg" width="316" height="108" fill="none" viewBox="0 0 316 108">
    <path fill="#FFD817" d="M50.848.163c-14.197.149-27.112 2.6-34.98 16.89-7.785 14.144-31.157 72.223 1.458 72.849 30.822.592 61.61.776 92.436.478 9.021-.088 18.044-.177 27.066-.222 14.677-.074 29.356-.303 44.032-.303 16.657-.144 33.315-.263 49.971-.434 8.407-.086 16.917-1.283 25.245.447 8.539 1.774 12.771 10.628 19.178 16.033 0 0 2.913 2.772 4.857.003 4.765-6.792 8.96-15.039 17.399-16.084 7.173-.888 15.925-.264 16.683-10.212.617-8.104 1.51-13.15 1.731-21.288.348-12.892-1.007-25.435-2.397-38.208C312.339 9.201 310.316 0 297.917 0c-7.497 0-19.193.02-26.69.031l-45.858.078c-18.974.034-37.948.063-56.922.101-18.55.037-37.102.046-55.653.1C95.281.358 71.027.284 53.512.16c-.892-.006-1.78-.006-2.664.003z"/>
</svg>
