<svg xmlns="http://www.w3.org/2000/svg" width="85" height="24" fill="none" viewBox="0 0 85 24">
    <g clip-path="url(#clip0)">
        <path fill="#000" d="M11.04 17.06c-.17.257-.401.467-.674.608-.274.142-.578.212-.886.202-.73.09-1.39.05-1.71-.39-1.479-2.021-2.816-4.143-4-6.35.48 2.75.82 5.19 1.1 8 .044.192.045.391.005.584-.04.192-.121.374-.238.533-.116.158-.266.29-.438.385-.172.095-.363.153-.559.168-1 .16-1.4-.35-1.58-1.16-.61-2.76-1.51-8.75-2-12.75-.08-.65 0-1 .56-1.11.681-.166 1.379-.26 2.08-.28.203-.022.408.008.596.089.187.08.35.208.474.371 1.6 2.54 3.8 5.9 5.33 8.32.92-2.68 2.22-6.45 3.16-9.3.102-.313.32-.574.61-.73.634-.158 1.287-.232 1.94-.22.13-.022.264-.015.392.02.128.036.246.098.347.184.1.086.182.192.237.313.056.12.084.25.084.383.49 4 1 10 1.15 12.87.038.186.033.378-.014.562-.047.184-.134.354-.257.5-.122.145-.275.26-.448.338-.173.078-.361.115-.551.11-.194.034-.393.024-.583-.027-.19-.052-.366-.144-.516-.27-.15-.127-.272-.285-.355-.464-.083-.178-.126-.372-.126-.569-.31-2.67-.61-5.09-.86-7.79-.612 2.335-1.37 4.63-2.27 6.87zM17.89 12.52c-.044-1 .114-2 .465-2.938.352-.938.89-1.795 1.58-2.52.692-.724 1.523-1.302 2.443-1.698.92-.395 1.91-.601 2.912-.604 4.42-.26 7.39 2.91 7.39 7.76.03.987-.14 1.969-.499 2.888-.358.92-.899 1.757-1.589 2.463-.69.706-1.515 1.265-2.426 1.645-.91.38-1.889.571-2.876.564-4.08.1-7.4-2.68-7.4-7.56zm11.47-.12c0-3.06-1.9-4.71-4.07-4.62-2.37.08-4.06 1.95-4.06 4.74s1.86 4.69 4 4.62c2.34-.1 4.13-1.93 4.13-4.74zM36.05 18.29c-.021.189-.084.37-.183.533-.099.162-.232.3-.39.406-.158.106-.337.176-.525.205-.187.03-.38.018-.562-.034-.187-.024-.367-.087-.528-.186-.161-.099-.3-.23-.406-.386-.107-.156-.18-.332-.213-.518-.034-.186-.028-.377.017-.56.33-3.84 1.14-9.43 1.63-12.75.12-.6.48-.84 1.45-.72s1.5.26 1.81.92c1.25 2.71 3.21 7.47 4.42 10 .32-2.65.81-6.8 1.13-8.75.13-.7.42-1.22 1.69-1.06 1.42.17 1.55.76 1.47 1.43-.47 3.8-1.37 9.66-2 12.56-.049.198-.136.384-.258.548-.12.163-.273.302-.448.407-.174.105-.368.174-.57.204-.2.03-.406.02-.604-.029-.309-.013-.608-.114-.86-.291-.254-.177-.452-.423-.57-.709-1-1.74-2.95-6.44-4.13-9.37-.35 2.51-.94 6.52-1.37 8.15zM54.72 11.4c1.88-.28 5.06-.65 6.69-.73.25 0 .35.08.43.38.144.658.234 1.327.27 2 .23 4.45-2.4 6.77-6.65 7.08-4.75.33-7.8-2.1-8.06-7.15-.23-4.27 2.54-7.6 7.3-8.13 2.25-.26 4.82.52 5.81 1.81.208.325.31.707.29 1.093-.02.385-.16.755-.4 1.057-.133.156-.299.281-.485.367-.187.086-.39.13-.595.13-.205 0-.408-.044-.595-.13-.186-.086-.352-.211-.485-.367-.432-.438-.959-.77-1.54-.972-.58-.2-1.2-.265-1.81-.188-2.76.21-4.35 2.25-4.2 5 .17 3.25 2 4.65 4.52 4.51 2.52-.14 4.17-1.76 3.68-3.54-1.18.17-3 .3-3.82.35-.55 0-.81-.27-.92-1.18-.11-.91.1-1.35.58-1.44l-.01.05zM64.57 19.48c-.271-.028-.534-.11-.772-.244-.238-.133-.446-.313-.612-.53-.165-.215-.285-.463-.352-.728-.066-.264-.078-.539-.034-.808.18-2.81.78-8.34 1.2-11.76.08-.67.47-1.19 1.89-1 1.42.19 1.66.72 1.56 1.47-.42 3.45-.83 6.79-1.31 10.18 0 .38.1.58.6.63 1.27.07 3.71.24 5.17.36.38.07.72.48.74 1.18 0 .93-.43 1.45-.88 1.47-2.3.01-5.72-.04-7.2-.22zM76.49 19.89c-.273.015-.546-.028-.8-.128s-.484-.252-.674-.449c-.19-.196-.335-.431-.426-.69-.09-.257-.125-.531-.1-.803-.13-2.87-.13-8.5 0-12.1 0-.37.16-.57.44-.59 2.73-.12 6-.21 8.93-.12.61 0 .87.34.87 1.28s-.32 1.49-.84 1.53l-6 .24c0 .94-.07 2.28-.09 3.22 1.63 0 4.16.1 5.48.16.45 0 .78.49.78 1.27s-.29 1.32-.82 1.34c-1.81.1-3.79.14-5.6.14v2.14c0 .39.25.53.67.53h5.62c.51 0 .76.37.8 1.12.06 1-.27 1.38-.84 1.47-2.35.22-5.83.44-7.4.44z"/>
    </g>
    <defs>
        <clipPath id="clip0">
            <path fill="#fff" d="M0 0H84.78V16.79H0z" transform="translate(0 4)"/>
        </clipPath>
    </defs>
</svg>
