<svg xmlns="http://www.w3.org/2000/svg" width="110" height="110" fill="none" viewBox="0 0 110 110">
    <path fill="#FF0084" stroke="#000" stroke-miterlimit="10" stroke-width="2" d="M99.831 73.959c-.81 10.543-6.28 21.317-13.73 26.724-6.51 4.724-16.92 8.473-30.23 8.312-10.29-.131-24.14-1.206-33.77-11.568-6.68-7.186-9.91-13.77-10.9-25.418-1.08-12.633 2.02-25.699 13.45-31.116 13.73-6.513 20.66 5.87 31.29 5.87 11.17 0 21.51-12.483 33.27-5.056 8.92 5.628 11.51 20.563 10.62 32.252z"/>
    <path stroke="#000" stroke-linecap="round" stroke-linejoin="round" stroke-miterlimit="10" stroke-width="2" d="M38.201 59.074l9.4-1.758-9.4 3.517 9.4-1.759-9.4 4.03 9.4-2.27M73.591 59.135l-9.59-1.79 9.59 3.569-9.59-1.78 9.59 4.091-9.59-2.312M49.011 63.848s2.78 2.473 6.85.432c0 0 3.87 2.201 7.39-.432"/>
</svg>
