<svg xmlns="http://www.w3.org/2000/svg" width="110" height="110" fill="none" viewBox="0 0 110 110">
    <path fill="#FF0084" stroke="#000" stroke-miterlimit="10" stroke-width="2" d="M94.831 73.96c-.81 10.542-6.28 21.316-13.73 26.723-6.51 4.724-16.92 8.473-30.23 8.312-10.29-.131-24.14-1.206-33.77-11.568-6.68-7.186-9.91-13.77-10.9-25.418-1.08-12.633 2.02-25.699 13.45-31.116 13.73-6.513 20.66 5.87 31.29 5.87 11.17 0 21.51-12.483 33.27-5.056 8.92 5.628 11.51 20.563 10.62 32.252z"/>
    <path stroke="#000" stroke-linecap="round" stroke-linejoin="round" stroke-miterlimit="10" stroke-width="2" d="M33.201 59.074l9.4-1.749-9.4 3.508 9.4-1.759-9.4 4.03 9.4-2.27M68.591 59.135l-9.59-1.79 9.59 3.568-9.59-1.778 9.59 4.09-9.59-2.312M44.011 63.848s2.78 2.473 6.85.432c0 0 3.87 2.201 7.39-.432"/>
    <path fill="#F8D74D" stroke="#000" stroke-linecap="round" stroke-linejoin="round" stroke-miterlimit="10" stroke-width="1.5" d="M84.991 82.431l6.95 21.458s.8.804 1.55-.141c.75-.944 6.66-21.508 6.66-21.508l-5.54-5.658-9.34 2.03-.28 3.82z"/>
    <path stroke="#000" stroke-linecap="round" stroke-linejoin="round" stroke-miterlimit="10" stroke-width="1.5" d="M88.841 93.517l5.82 5.84M85.371 82.522l11.12 11.035M92.311 81.718l5.96 5.81"/>
    <path fill="#fff" d="M92.391 81.195c.65.724 1.93 1.096 2.69 1.096 1.1 0 2.06-.603 2.58-1.498.52.895 1.48 1.498 2.58 1.498 1.66 0 3-1.347 3-3.015 0-1.267-.77-2.342-1.87-2.794.83-1.458 1.31-3.146 1.31-4.945 0-5.518-4.45-10-9.95-10-5.5 0-9.95 4.472-9.95 10 0 1.749.45 3.387 1.23 4.814-1.3.332-2.27 1.508-2.27 2.915 0 1.668 1.34 3.015 3 3.015 1.1 0 2.06-.603 2.58-1.498.52.895 1.48 1.498 2.58 1.498.78 0 1.89-.483 2.45-1.096"/>
    <path stroke="#000" stroke-linecap="round" stroke-linejoin="round" stroke-miterlimit="10" stroke-width="1.5" d="M92.391 81.195c.65.724 1.93 1.096 2.69 1.096 1.1 0 2.06-.603 2.58-1.498.52.895 1.48 1.498 2.58 1.498 1.66 0 3-1.347 3-3.015 0-1.267-.77-2.342-1.87-2.794.83-1.458 1.31-3.146 1.31-4.945 0-5.518-4.45-10-9.95-10-5.5 0-9.95 4.472-9.95 10 0 1.749.45 3.387 1.23 4.814-1.3.332-2.27 1.508-2.27 2.915 0 1.668 1.34 3.015 3 3.015 1.1 0 2.06-.603 2.58-1.498.52.895 1.48 1.498 2.58 1.498.78 0 1.89-.483 2.45-1.096M92.791 64.531s4.86-.21 6.23 3.86"/>
    <path fill="#000" d="M99.841 71.064c.414 0 .75-.337.75-.753 0-.417-.336-.754-.75-.754s-.75.337-.75.754c0 .416.336.753.75.753z"/>
</svg>
