<svg xmlns="http://www.w3.org/2000/svg" width="110" height="110" fill="none" viewBox="0 0 110 110">
    <path fill="#FF0084" stroke="#000" stroke-miterlimit="10" stroke-width="2" d="M98.465 74.19c-.81 10.473-6.28 21.176-13.73 26.548-6.51 4.693-16.92 8.417-30.23 8.257-10.29-.13-24.14-1.198-33.77-11.492-6.68-7.139-9.91-13.679-10.9-25.25-1.08-12.551 2.02-25.53 13.45-30.912 13.73-6.47 20.66 5.83 31.29 5.83 11.17 0 21.51-12.4 33.27-5.021 8.92 5.59 11.51 20.438 10.62 32.04z"/>
    <path stroke="#000" stroke-linecap="round" stroke-linejoin="round" stroke-miterlimit="10" stroke-width="2" d="M36.835 59.412l9.4-1.747-9.4 3.495 9.4-1.748-9.4 4.004 9.4-2.256M72.225 59.462l-9.59-1.777 9.59 3.554-9.59-1.777 9.59 4.074-9.59-2.297M47.645 64.155s2.78 2.456 6.85.43c0 0 3.87 2.186 7.39-.43"/>
    <path fill="#FFB8E2" stroke="#000" stroke-linecap="round" stroke-linejoin="round" stroke-miterlimit="10" stroke-width="1.5" d="M18.165 29.659c.02-.03-1.81-.59-1.92-.61-1.29-.289-2.7-.398-3.98.02-1.74.58-2.78 2.158-3.13 3.905-.56 2.875.66 5.83 2.93 7.628 2.34 1.847 5.31 2.646 8.19 3.185 1.73.32 3.49.549 5.22.849 1.64.28.57-1.438.44-2.297-.33-2.196 1.73-4.073 2.43-6.01 1.21-3.385.91-7.848-2.51-9.815-3.13-1.817-6.14.34-7.67 3.145z"/>
    <path fill="#FF83D3" stroke="#000" stroke-linecap="round" stroke-linejoin="round" stroke-miterlimit="10" stroke-width="1.5" d="M40.685 24.058c-.01-.02 1.31-.29 1.39-.3.93-.12 1.93-.1 2.8.29 1.19.529 1.81 1.707 1.93 2.965.2 2.057-.87 4.054-2.59 5.162-1.77 1.138-3.92 1.488-5.98 1.677-1.24.11-2.49.15-3.73.24-1.18.09-.3-1.048-.15-1.648.39-1.517-.94-2.985-1.29-4.393-.62-2.466-.1-5.58 2.44-6.73 2.33-1.057 4.3.66 5.18 2.737z"/>
    <path fill="#fff" stroke="#000" stroke-linecap="round" stroke-linejoin="round" stroke-miterlimit="10" stroke-width="1.5" d="M97.035 84.862c-1.17-1.587-3.41-5.301-3.41-5.301l-1.01 1.477h-6.99l-1.21-1.437c-1.01 2.376-2.32 3.934-3.55 5.261-2.39 2.556-4.33 5.652-4.33 9.416 0 6.849 5.56 12.4 12.42 12.4s12.42-5.551 12.42-12.4c0-3.774-2.26-6.61-4.34-9.416zm-8.04 18.701c-5.12 0-9.26-4.143-9.26-9.245 0-5.112 4.15-9.246 9.26-9.246 5.12 0 9.26 4.144 9.26 9.246 0 5.112-4.14 9.245-9.26 9.245z"/>
    <path fill="#3BE3FF" stroke="#000" stroke-linecap="round" stroke-linejoin="round" stroke-miterlimit="10" stroke-width="1.5" d="M85.775 81.019l-2.32-2.846 1.86-1.857h7.29l1.91 1.817-2.03 2.906s-6.73 0-6.71-.02z"/>
</svg>
