<svg xmlns="http://www.w3.org/2000/svg" width="110" height="110" fill="none" viewBox="0 0 110 110">
    <path fill="#FF0084" stroke="#000" stroke-miterlimit="10" stroke-width="2" d="M100.465 74.19c-.81 10.473-6.28 21.176-13.73 26.548-6.51 4.693-16.92 8.417-30.23 8.257-10.29-.13-24.14-1.198-33.77-11.492-6.68-7.139-9.91-13.679-10.9-25.25-1.08-12.551 2.02-25.53 13.45-30.912 13.73-6.47 20.66 5.83 31.29 5.83 11.17 0 21.51-12.4 33.27-5.021 8.92 5.59 11.51 20.438 10.62 32.04z"/>
    <path stroke="#000" stroke-linecap="round" stroke-linejoin="round" stroke-miterlimit="10" stroke-width="2" d="M38.835 59.412l9.4-1.747-9.4 3.495 9.4-1.748-9.4 4.004 9.4-2.256M74.225 59.462l-9.59-1.777 9.59 3.554-9.59-1.777 9.59 4.074-9.59-2.297M49.645 64.155s2.78 2.456 6.85.43c0 0 3.87 2.186 7.39-.43"/>
    <path fill="#FFB8E2" stroke="#000" stroke-linecap="round" stroke-linejoin="round" stroke-miterlimit="10" stroke-width="2" d="M16.512 53.85S5.842 52.22 6.002 39.7c.16-12.53 10.26-15.7 15.28-15.7 5.01 0 15.19 4.146 14.22 16.998-.97 12.852-11.23 12.61-14.31 13.255l.32 2.033h-5.5l.5-2.436z"/>
    <path stroke="#000" stroke-linecap="round" stroke-linejoin="round" stroke-miterlimit="10" stroke-width="2" d="M18.942 56.78s1.86 4.92-.32 8.815c-2.18 3.895-1.29 7.176.32 9.843"/>
    <path fill="#fff" stroke="#000" stroke-linecap="round" stroke-linejoin="round" stroke-miterlimit="10" stroke-width="2" d="M99.035 84.862c-1.17-1.587-3.41-5.301-3.41-5.301l-1.01 1.477h-6.99l-1.21-1.437c-1.01 2.376-2.32 3.934-3.55 5.261-2.39 2.556-4.33 5.652-4.33 9.416 0 6.849 5.56 12.4 12.42 12.4s12.42-5.551 12.42-12.4c0-3.774-2.26-6.61-4.34-9.416zm-8.04 18.701c-5.12 0-9.26-4.143-9.26-9.245 0-5.112 4.15-9.246 9.26-9.246 5.12 0 9.26 4.144 9.26 9.246 0 5.112-4.14 9.245-9.26 9.245z"/>
    <path fill="#3BE3FF" stroke="#000" stroke-linecap="round" stroke-linejoin="round" stroke-miterlimit="10" stroke-width="2" d="M87.775 81.019l-2.32-2.846 1.86-1.857h7.29l1.91 1.817-2.03 2.906s-6.73 0-6.71-.02z"/>
</svg>
