<svg xmlns="http://www.w3.org/2000/svg" width="110" height="110" fill="none" viewBox="0 0 110 110">
    <path fill="#FF0084" stroke="#000" stroke-miterlimit="10" stroke-width="2" d="M100.465 74.19c-.81 10.473-6.28 21.176-13.73 26.548-6.51 4.693-16.92 8.417-30.23 8.257-10.29-.13-24.14-1.198-33.77-11.492-6.68-7.139-9.91-13.679-10.9-25.25-1.08-12.551 2.02-25.53 13.45-30.912 13.73-6.47 20.66 5.83 31.29 5.83 11.17 0 21.51-12.4 33.27-5.021 8.92 5.59 11.51 20.438 10.62 32.04z"/>
    <path stroke="#000" stroke-linecap="round" stroke-linejoin="round" stroke-miterlimit="10" stroke-width="2" d="M38.835 59.412l9.4-1.747-9.4 3.495 9.4-1.748-9.4 4.004 9.4-2.256M74.225 59.462l-9.59-1.777 9.59 3.554-9.59-1.777 9.59 4.074-9.59-2.297M49.645 64.155s2.78 2.456 6.85.43c0 0 3.87 2.186 7.39-.43"/>
    <path fill="#FFB8E2" stroke="#000" stroke-linecap="round" stroke-linejoin="round" stroke-miterlimit="10" stroke-width="2" d="M15.356 13.434c.027-.04-2.44-.794-2.588-.821-1.74-.39-3.64-.538-5.366.027-2.346.78-3.748 2.907-4.22 5.263-.755 3.877.89 7.861 3.95 10.284 3.155 2.49 7.16 3.567 11.042 4.294 2.332.43 4.705.74 7.037 1.144 2.211.377.769-1.938.594-3.096-.445-2.961 2.332-5.492 3.276-8.103 1.63-4.563 1.226-10.58-3.384-13.232-4.22-2.45-8.278.458-10.34 4.24z"/>
    <path fill="#FF83D3" stroke="#000" stroke-linecap="round" stroke-linejoin="round" stroke-miterlimit="10" stroke-width="2" d="M45.717 5.882c-.014-.026 1.766-.39 1.874-.403 1.254-.162 2.602-.135 3.775.39 1.604.713 2.44 2.302 2.602 3.998.27 2.773-1.173 5.465-3.492 6.959-2.386 1.534-5.285 2.006-8.062 2.261-1.672.148-3.357.202-5.029.323-1.59.122-.404-1.413-.202-2.22.526-2.047-1.267-4.025-1.74-5.923-.835-3.325-.134-7.525 3.29-9.073 3.142-1.427 5.798.889 6.984 3.688z"/>
</svg>
