<svg xmlns="http://www.w3.org/2000/svg" width="110" height="110" fill="none" viewBox="0 0 110 110">
    <path fill="#FF0084" stroke="#000" stroke-miterlimit="10" stroke-width="2" d="M97.82 73.915c-.81 10.556-6.28 21.344-13.73 26.758-6.51 4.73-16.92 8.483-30.23 8.322-10.29-.131-24.14-1.207-33.77-11.582-6.68-7.195-9.91-13.787-10.9-25.45-1.08-12.65 2.02-25.731 13.45-31.155 13.73-6.52 20.66 5.877 31.29 5.877 11.17 0 21.51-12.498 33.27-5.062 8.92 5.635 11.51 20.59 10.62 32.292z"/>
    <path stroke="#000" stroke-linecap="round" stroke-linejoin="round" stroke-miterlimit="10" stroke-width="2" d="M36.19 59.012l9.4-1.751-9.4 3.512 9.4-1.761-9.4 4.035 9.4-2.274M71.58 59.072l-9.59-1.791 9.59 3.572-9.59-1.78 9.59 4.095-9.59-2.315M47 63.792s2.78 2.475 6.85.433c0 0 3.87 2.204 7.39-.433"/>
    <path fill="#FFB8E2" stroke="#000" stroke-linecap="round" stroke-linejoin="round" stroke-miterlimit="10" stroke-width="1.5" d="M14.512 51.847s-10.67-1.63-10.51-14.149C4.162 25.18 14.262 22 19.282 22c5.01 0 15.19 4.146 14.22 16.996-.97 12.851-11.23 12.61-14.31 13.253l.32 2.033h-5.5l.5-2.435z"/>
    <path stroke="#231815" stroke-linecap="round" stroke-linejoin="round" stroke-miterlimit="10" stroke-width="1.5" d="M16.942 54.775s1.86 4.921-.32 8.816c-2.18 3.894-1.29 7.175.32 9.841"/>
    <path fill="#FFD817" stroke="#000" stroke-linecap="round" stroke-linejoin="round" stroke-miterlimit="10" stroke-width="1.5" d="M87.98 82.398l6.95 21.485s.8.805 1.55-.141c.75-.946 6.66-21.535 6.66-21.535l-5.54-5.665-9.34 2.032-.28 3.824z"/>
    <path stroke="#000" stroke-linecap="round" stroke-linejoin="round" stroke-miterlimit="10" stroke-width="1.5" d="M91.83 93.498l5.82 5.857M88.36 82.489l11.12 11.049M95.3 81.694l5.96 5.806"/>
    <path fill="#fff" d="M95.38 81.16c.65.725 1.93 1.097 2.69 1.097 1.1 0 2.06-.603 2.58-1.499.52.896 1.48 1.5 2.58 1.5 1.66 0 3-1.349 3-3.02 0-1.267-.77-2.344-1.87-2.797.83-1.46 1.31-3.15 1.31-4.951 0-5.525-4.45-10.013-9.95-10.013-5.5 0-9.95 4.478-9.95 10.013 0 1.751.45 3.391 1.23 4.82-1.3.332-2.27 1.51-2.27 2.918 0 1.671 1.34 3.02 3 3.02 1.1 0 2.06-.604 2.58-1.5.52.896 1.48 1.5 2.58 1.5.78 0 1.89-.484 2.45-1.097"/>
    <path stroke="#000" stroke-linecap="round" stroke-linejoin="round" stroke-miterlimit="10" stroke-width="1.5" d="M95.38 81.16c.65.725 1.93 1.097 2.69 1.097 1.1 0 2.06-.603 2.58-1.499.52.896 1.48 1.5 2.58 1.5 1.66 0 3-1.349 3-3.02 0-1.267-.77-2.344-1.87-2.797.83-1.46 1.31-3.15 1.31-4.951 0-5.525-4.45-10.013-9.95-10.013-5.5 0-9.95 4.478-9.95 10.013 0 1.751.45 3.391 1.23 4.82-1.3.332-2.27 1.51-2.27 2.918 0 1.671 1.34 3.02 3 3.02 1.1 0 2.06-.604 2.58-1.5.52.896 1.48 1.5 2.58 1.5.78 0 1.89-.484 2.45-1.097M95.78 64.476s4.86-.211 6.23 3.864"/>
    <path fill="#000" d="M102.83 71.017c.414 0 .75-.338.75-.755 0-.416-.336-.754-.75-.754s-.75.338-.75.754c0 .417.336.755.75.755z"/>
</svg>
