<svg xmlns="http://www.w3.org/2000/svg" width="110" height="110" fill="none" viewBox="0 0 110 110">
    <path fill="#FF0084" stroke="#000" stroke-miterlimit="10" stroke-width="2" d="M100.465 74.19c-.81 10.473-6.28 21.176-13.73 26.548-6.51 4.693-16.92 8.417-30.23 8.257-10.29-.13-24.14-1.198-33.77-11.492-6.68-7.139-9.91-13.679-10.9-25.25-1.08-12.551 2.02-25.53 13.45-30.912 13.73-6.47 20.66 5.83 31.29 5.83 11.17 0 21.51-12.4 33.27-5.021 8.92 5.59 11.51 20.438 10.62 32.04z"/>
    <path stroke="#000" stroke-linecap="round" stroke-linejoin="round" stroke-miterlimit="10" stroke-width="2" d="M38.835 59.412l9.4-1.747-9.4 3.495 9.4-1.748-9.4 4.004 9.4-2.256M74.225 59.462l-9.59-1.777 9.59 3.554-9.59-1.777 9.59 4.074-9.59-2.297M49.645 64.155s2.78 2.456 6.85.43c0 0 3.87 2.186 7.39-.43"/>
    <path fill="#FFB8E2" stroke="#000" stroke-linecap="round" stroke-linejoin="round" stroke-miterlimit="10" stroke-width="2" d="M16.512 53.85S5.842 52.22 6.002 39.7c.16-12.53 10.26-15.7 15.28-15.7 5.01 0 15.19 4.146 14.22 16.998-.97 12.852-11.23 12.61-14.31 13.255l.32 2.033h-5.5l.5-2.436z"/>
    <path stroke="#000" stroke-linecap="round" stroke-linejoin="round" stroke-miterlimit="10" stroke-width="2" d="M18.942 56.78s1.86 4.92-.32 8.815c-2.18 3.895-1.29 7.176.32 9.843"/>
    <path fill="#FFD817" stroke="#000" stroke-linecap="round" stroke-linejoin="round" stroke-miterlimit="10" stroke-width="2" d="M85.98 85.398l6.95 21.485s.8.805 1.55-.141c.75-.946 6.66-21.535 6.66-21.535l-5.54-5.665-9.34 2.032-.28 3.824z"/>
    <path stroke="#000" stroke-linecap="round" stroke-linejoin="round" stroke-miterlimit="10" stroke-width="2" d="M89.83 96.498l5.82 5.857M86.36 85.489l11.12 11.049M93.3 84.694l5.96 5.806"/>
    <path fill="#fff" d="M93.38 84.16c.65.725 1.93 1.097 2.69 1.097 1.1 0 2.06-.603 2.58-1.499.52.896 1.48 1.5 2.58 1.5 1.66 0 3-1.349 3-3.02 0-1.267-.77-2.344-1.87-2.797.83-1.46 1.31-3.15 1.31-4.951 0-5.525-4.45-10.013-9.95-10.013-5.5 0-9.95 4.478-9.95 10.013 0 1.751.45 3.391 1.23 4.82-1.3.332-2.27 1.51-2.27 2.918 0 1.671 1.34 3.02 3 3.02 1.1 0 2.06-.604 2.58-1.5.52.896 1.48 1.5 2.58 1.5.78 0 1.89-.484 2.45-1.097"/>
    <path stroke="#000" stroke-linecap="round" stroke-linejoin="round" stroke-miterlimit="10" stroke-width="2" d="M93.38 84.16c.65.725 1.93 1.097 2.69 1.097 1.1 0 2.06-.603 2.58-1.499.52.896 1.48 1.5 2.58 1.5 1.66 0 3-1.349 3-3.02 0-1.267-.77-2.344-1.87-2.797.83-1.46 1.31-3.15 1.31-4.951 0-5.525-4.45-10.013-9.95-10.013-5.5 0-9.95 4.478-9.95 10.013 0 1.751.45 3.391 1.23 4.82-1.3.332-2.27 1.51-2.27 2.918 0 1.671 1.34 3.02 3 3.02 1.1 0 2.06-.604 2.58-1.5.52.896 1.48 1.5 2.58 1.5.78 0 1.89-.484 2.45-1.097M93.78 67.476s4.86-.211 6.23 3.864"/>
    <path fill="#000" d="M100.83 74.017c.414 0 .75-.338.75-.755 0-.416-.336-.754-.75-.754s-.75.338-.75.754c0 .417.336.755.75.755z"/>
</svg>
