<svg xmlns="http://www.w3.org/2000/svg" width="110" height="110" fill="none" viewBox="0 0 110 110">
    <path fill="#FF0084" stroke="#000" stroke-miterlimit="10" stroke-width="2" d="M91.853 79.97c-.66 8.731-5.15 17.665-11.26 22.142-5.34 3.919-13.88 7.025-24.79 6.883-8.44-.101-19.8-1.005-27.7-9.583-5.48-5.95-8.13-11.411-8.94-21.056-.88-10.466 1.66-21.288 11.03-25.786 11.26-5.4 16.95 4.863 25.67 4.863 9.17 0 17.64-10.335 27.29-4.182 7.3 4.66 9.43 17.045 8.7 26.72z"/>
    <path stroke="#000" stroke-linecap="round" stroke-linejoin="round" stroke-miterlimit="10" stroke-width="2" d="M41.303 67.646l7.71-1.452-7.71 2.904 7.71-1.452-7.71 3.34 7.71-1.888M70.323 67.687l-7.86-1.472 7.86 2.954-7.86-1.482 7.86 3.4-7.86-1.918M50.173 71.606s2.28 2.05 5.62.355c0 0 3.17 1.827 6.06-.355"/>
</svg>
