<svg xmlns="http://www.w3.org/2000/svg" width="110" height="110" fill="none" viewBox="0 0 110 110">
    <path fill="#FF0084" stroke="#000" stroke-miterlimit="10" stroke-width="2" d="M100.82 73.911c-.81 10.558-6.28 21.346-13.73 26.761-6.51 4.73-16.92 8.484-30.23 8.323-10.29-.131-24.14-1.208-33.77-11.584-6.68-7.196-9.91-13.788-10.9-25.452-1.08-12.65 2.02-25.734 13.45-31.159 13.73-6.521 20.66 5.878 31.29 5.878 11.17 0 21.51-12.5 33.27-5.063 8.92 5.636 11.51 20.602 10.62 32.296z"/>
    <path stroke="#000" stroke-linecap="round" stroke-linejoin="round" stroke-miterlimit="10" stroke-width="2" d="M39.19 59.016l9.4-1.76-9.4 3.522 9.4-1.762-9.4 4.036 9.4-2.274M74.58 59.067l-9.59-1.792 9.59 3.583-9.59-1.791 9.59 4.106-9.59-2.315M50 63.797s2.78 2.476 6.85.433c0 0 3.87 2.204 7.39-.433"/>
    <path fill="#fff" stroke="#000" stroke-linecap="round" stroke-linejoin="round" stroke-miterlimit="10" stroke-width="1.5" d="M99.39 84.67c-1.17-1.6-3.41-5.344-3.41-5.344l-1.01 1.49h-6.99l-1.21-1.45c-1.01 2.395-2.32 3.966-3.55 5.304-2.39 2.576-4.33 5.696-4.33 9.49 0 6.905 5.56 12.5 12.42 12.5s12.42-5.595 12.42-12.5c0-3.804-2.26-6.662-4.34-9.49zm-8.04 18.85c-5.12 0-9.26-4.176-9.26-9.32 0-5.152 4.15-9.319 9.26-9.319 5.12 0 9.26 4.177 9.26 9.32 0 5.153-4.14 9.319-9.26 9.319z"/>
    <path fill="#3BE3FF" stroke="#000" stroke-linecap="round" stroke-linejoin="round" stroke-miterlimit="10" stroke-width="1.5" d="M88.13 80.795l-2.32-2.868 1.86-1.872h7.29l1.91 1.832-2.03 2.928s-6.73 0-6.71-.02z"/>
    <path fill="#FFB8E2" stroke="#000" stroke-linecap="round" stroke-linejoin="round" stroke-miterlimit="10" stroke-width="1.5" d="M17.512 51.85S6.842 50.22 7.002 37.7c.16-12.53 10.26-15.7 15.28-15.7 5.01 0 15.19 4.146 14.22 16.998-.97 12.852-11.23 12.61-14.31 13.255l.32 2.033h-5.5l.5-2.436z"/>
    <path stroke="#231815" stroke-linecap="round" stroke-linejoin="round" stroke-miterlimit="10" stroke-width="1.5" d="M19.942 54.78s1.86 4.92-.32 8.815c-2.18 3.895-1.29 7.176.32 9.843"/>
    <path fill="#FF0084" stroke="#000" stroke-miterlimit="10" stroke-width="2" d="M100.82 73.911c-.81 10.558-6.28 21.346-13.73 26.761-6.51 4.73-16.92 8.484-30.23 8.323-10.29-.131-24.14-1.208-33.77-11.584-6.68-7.196-9.91-13.788-10.9-25.452-1.08-12.65 2.02-25.734 13.45-31.159 13.73-6.521 20.66 5.878 31.29 5.878 11.17 0 21.51-12.5 33.27-5.063 8.92 5.636 11.51 20.602 10.62 32.296z"/>
    <path stroke="#000" stroke-linecap="round" stroke-linejoin="round" stroke-miterlimit="10" stroke-width="2" d="M39.19 59.016l9.4-1.76-9.4 3.522 9.4-1.762-9.4 4.036 9.4-2.274M74.58 59.067l-9.59-1.792 9.59 3.583-9.59-1.791 9.59 4.106-9.59-2.315M50 63.797s2.78 2.476 6.85.433c0 0 3.87 2.204 7.39-.433"/>
    <path fill="#fff" stroke="#000" stroke-linecap="round" stroke-linejoin="round" stroke-miterlimit="10" stroke-width="1.5" d="M99.39 84.67c-1.17-1.6-3.41-5.344-3.41-5.344l-1.01 1.49h-6.99l-1.21-1.45c-1.01 2.395-2.32 3.966-3.55 5.304-2.39 2.576-4.33 5.696-4.33 9.49 0 6.905 5.56 12.5 12.42 12.5s12.42-5.595 12.42-12.5c0-3.804-2.26-6.662-4.34-9.49zm-8.04 18.85c-5.12 0-9.26-4.176-9.26-9.32 0-5.152 4.15-9.319 9.26-9.319 5.12 0 9.26 4.177 9.26 9.32 0 5.153-4.14 9.319-9.26 9.319z"/>
    <path fill="#3BE3FF" stroke="#000" stroke-linecap="round" stroke-linejoin="round" stroke-miterlimit="10" stroke-width="1.5" d="M88.13 80.795l-2.32-2.868 1.86-1.872h7.29l1.91 1.832-2.03 2.928s-6.73 0-6.71-.02z"/>
    <path fill="#FFB8E2" stroke="#000" stroke-linecap="round" stroke-linejoin="round" stroke-miterlimit="10" stroke-width="1.5" d="M17.512 51.85S6.842 50.22 7.002 37.7c.16-12.53 10.26-15.7 15.28-15.7 5.01 0 15.19 4.146 14.22 16.998-.97 12.852-11.23 12.61-14.31 13.255l.32 2.033h-5.5l.5-2.436z"/>
    <path stroke="#231815" stroke-linecap="round" stroke-linejoin="round" stroke-miterlimit="10" stroke-width="1.5" d="M19.942 54.78s1.86 4.92-.32 8.815c-2.18 3.895-1.29 7.176.32 9.843"/>
</svg>
