<svg id="레이어_1" data-name="레이어 1" xmlns="http://www.w3.org/2000/svg" viewBox="0 0 316 124"><defs><style>.cls-1{fill:#ff0084;}</style></defs><title>대지 3</title><path class="cls-1" d="M14.38,5.9A25,25,0,0,1,29.66.35C49.71,0,69.77.4,89.82.4q29,0,58,0H293.57s22.31,1.17,22.31,25.83V58.72c0,9.15,1.44,20.06-2.46,28.35-6,12.83-18.13,12.38-28.35,17-6.6,3-9.82,10.46-13.84,16.79-4.49,7.08-7.21-.3-9.84-5.15-4.66-8.61-10.63-11.09-19.65-11.09-6.59,0-13.19-.07-19.78-.07-13.8,0-27.6.21-41.41.08-17.18-.17-34.35.09-51.53.15-16.92.07-33.64-.25-50.77-.25-52.42,0-60.57-3.82-72.87-16.12C-1.37,78.5,0,66.9,0,50.5,0,21.92,2.88,14.9,14.38,5.9Z"/></svg>