<svg xmlns="http://www.w3.org/2000/svg" width="316" height="124" fill="none" viewBox="0 0 316 124">
    <path fill="#FF0084" d="M25.744.395c1.293-.27 2.639-.421 4.04-.443 20.044-.308 40.11.053 60.156.05 19.332-.004 38.665 0 57.997 0H250.98c6.823 0 13.646-.002 20.468 0h22.245s22.306 1.174 22.306 25.837c0 10.827.006 21.655.001 32.484-.004 9.156 1.443 20.06-2.463 28.355-6.038 12.824-18.127 12.379-28.347 16.988-6.603 2.979-9.823 10.455-13.839 16.787-4.492 7.084-7.204-.295-9.836-5.15-4.664-8.609-10.63-11.088-19.652-11.088-6.593 0-13.186-.071-19.779-.075-13.804-.008-27.603.213-41.408.081-17.181-.164-34.352.092-51.533.158-16.924.066-33.643-.251-50.775-.251-18.368 0-32.993.469-49.632-1.249-8.842-.911-16.323-7.897-21.992-16.2C-.008 76.788.096 62.474.096 50.105.096 30.97 7.71 4.157 25.744.395z"/>
</svg>
