<svg xmlns="http://www.w3.org/2000/svg" width="316" height="124" fill="none" viewBox="0 0 316 124">
    <path fill="#FF0084" d="M262.626.426c15.127 0 30.952-1.959 42.083 7.402 10.373 8.723 11.355 29.857 11.33 44.05-.011 5.942-.036 11.885.001 17.827.056 8.946-.285 16.267-5.39 22.85-4.465 5.755-9.818 9.12-16.098 11.244-5.383 1.822-11.143 2.379-16.718 2.379H61.704s-3.325 0-2.904 5.529l3.884 6.438c6.768 6.824-3.07 6.286-6.467 5.213-13.138-4.149-23.694-15.691-37.453-17.679-5.659-.815-11.498-2.266-15.294-7.876C-1.209 90.883.314 81.373.252 73.1.17 61.922.167 50.742.18 39.564c.003-2.481.002-4.962 0-7.444C.18 32.12 2.827.21 30.54.21c10.66 0 21.32.017 31.982-.013 17.492-.05 34.987-.013 52.48-.013 19.173 0 38.351-.12 57.525-.01 15.67.09 31.385-.437 47.05.009 7.576.216 16.931.04 22.735.04 7.143 0 13.542.204 20.314.204z"/>
</svg>
