<svg xmlns="http://www.w3.org/2000/svg" width="316" height="124" fill="none" viewBox="0 0 316 124">
    <path fill="#FF0084" fill-rule="evenodd" d="M29.814 0C19.379 0 10.527 7.661 9.03 17.988l-8.551 59C-1.355 89.652 8.466 101 21.263 101H136.922c3.234.187 7.453 1.5 13.078 9 2.297 3.062 4.03 7.013 5.259 9.813.494 1.126.907 2.066 1.241 2.687 1 1.333 3.9 3.2 7.5 0 1.535-1.364 2.215-2.837 3.111-4.776 1.205-2.609 2.8-6.061 7.389-11.224 3.714-4.178 7-5.5 16.5-5.5h104c11.598 0 21-9.402 21-21V21c0-11.598-9.402-21-21-21H29.813z" clip-rule="evenodd"/>
</svg>
