<svg xmlns="http://www.w3.org/2000/svg" width="110" height="110" fill="none" viewBox="0 0 110 110">
    <path fill="#56E556" stroke="#000" stroke-miterlimit="10" stroke-width="2" d="M17.23 77.924c-.27 3.375-2.13 22.473 15.63 28.392 9.25 3.075 48.28 3.135 56.41.791 15.49-4.467 16.93-16.394 16.77-28.262-.16-11.547-7.25-29.574-26.79-36.705-18.2-6.64-35.54-1.842-45.25 5.95-11.42 9.153-16.02 20.42-16.77 29.834z"/>
    <path stroke="#000" stroke-linecap="round" stroke-miterlimit="10" stroke-width="2" d="M68.81 58.485s5.32-3.686 9.44 1.542M54.66 58.275s-5.28-3.546-9.59 1.842M54.75 63.843s6.5 3.395 14.27 0"/>
    <path fill="#fff" d="M60.57 79.526s1.39 20.931 17.51 20.931 19.76-16.845 19.76-20.83"/>
    <path stroke="#000" stroke-miterlimit="10" stroke-width="1.5" d="M60.57 79.526s1.39 20.931 17.51 20.931 19.76-16.845 19.76-20.83"/>
    <path fill="#fff" stroke="#000" stroke-miterlimit="10" stroke-width="1.5" d="M97.89 79.536c0 2.433-8.35 4.406-18.66 4.406s-18.66-1.972-18.66-4.406c0-2.434 8.39-4.887 18.69-4.887s18.63 2.453 18.63 4.887z"/>
    <path fill="#fff" stroke="#000" stroke-miterlimit="10" stroke-width=".5" d="M96.99 85.264c0-.02.52.18.55.19.43.201.83.501 1.14.862.8.921 1.08 2.263.78 3.435-.67 2.594-3.55 3.345-5.9 3.325L90.93 96c2.64.14 5.53.01 7.93-1.231 1.52-.792 2.69-2.064 3.24-3.696.51-1.532.55-3.235-.05-4.757-.53-1.342-1.62-2.414-2.77-3.255-.54-.4-1.12-.781-1.74-1.062 0 .01-.55 3.265-.55 3.265z"/>
    <path stroke="#000" stroke-miterlimit="10" stroke-width="1.5" d="M96.99 85.264c0-.02.52.18.55.19.43.201.83.501 1.14.862.8.921 1.08 2.263.78 3.435-.67 2.594-3.55 3.345-5.9 3.325L90.93 96c2.64.14 5.53.01 7.93-1.231 1.52-.792 2.69-2.064 3.24-3.696.51-1.532.55-3.235-.05-4.757-.53-1.342-1.62-2.414-2.77-3.255-.54-.4-1.12-.781-1.74-1.062 0 .01-.55 3.265-.55 3.265z"/>
    <path fill="#E6B477" d="M95.3 81.389c-16.82-6.73-32.07 0-32.07 0l10.14 2.123 11.04.03 10.89-2.153z"/>
    <path fill="#E6B477" d="M95.3 81.389c-16.82-6.73-32.07 0-32.07 0H95.3z"/>
    <path stroke="#000" stroke-linecap="round" stroke-linejoin="round" stroke-miterlimit="10" stroke-width="1.5" d="M95.3 81.389c-16.82-6.73-32.07 0-32.07 0"/>
    <path stroke="#000" stroke-miterlimit="10" stroke-width="1.5" d="M97.89 79.536c0 2.433-8.35 4.406-18.66 4.406s-18.66-1.972-18.66-4.406c0-2.434 8.39-4.887 18.69-4.887s18.63 2.453 18.63 4.887z"/>
    <path stroke="#000" stroke-linecap="round" stroke-linejoin="round" stroke-miterlimit="10" stroke-width="1.5" d="M65.5 87.638s1.87 4.327 4.65 6.7"/>
    <path fill="#000" d="M71.83 96.451c.414 0 .75-.336.75-.75 0-.416-.336-.752-.75-.752s-.75.336-.75.751.336.751.75.751z"/>
    <path fill="#FF8500" d="M25.14 105.385H8.52l.97 3.285H24.2c-.01 0 .9-3.315.94-3.285z"/>
    <path fill="#fff" stroke="#000" stroke-linecap="round" stroke-linejoin="round" stroke-miterlimit="10" stroke-width="1.5" d="M4 88.3h25.73L24.32 109H9.41L4 88.3z"/>
    <path fill="#FF9F00" d="M25.14 105.385H8.52l.97 3.285H24.2c-.01 0 .9-3.315.94-3.285z"/>
    <path fill="#69B70C" stroke="#000" stroke-linecap="round" stroke-linejoin="round" stroke-miterlimit="10" stroke-width="1.5" d="M22.31 88.23s.03-2.795.06-4.498c.05-3.225.09-6.46.06-9.684-.01-1.362-.03-2.724-.1-4.076-.1-1.843-.53-3.435-2.11-4.547-1.14-.801-2.54-1.132-3.92-1.162-1.45-.02-2.95.3-4.13 1.162-1.64 1.202-1.97 3.005-1.97 4.907V88.28c.01 0 12.17-.11 12.11-.05z"/>
    <path stroke="#000" stroke-linecap="round" stroke-linejoin="round" stroke-miterlimit="10" stroke-width="1.5" d="M15.11 69.621l2.24 2.254M17.35 69.621l-2.24 2.254M15.11 76.09l2.24 2.254M17.35 76.09l-2.24 2.254M15.11 82.56l2.24 2.254M17.35 82.56l-2.24 2.254M4 88.3h25.73L24.32 109H9.41L4 88.3z"/>
    <path stroke="#000" stroke-miterlimit="10" stroke-width="1.5" d="M8.72 105.395h16.19"/>
</svg>
