<svg xmlns="http://www.w3.org/2000/svg" width="110" height="110" fill="none" viewBox="0 0 110 110">
    <path fill="#56E556" stroke="#000" stroke-miterlimit="10" stroke-width="2" d="M14.54 78.279c-.27 3.363-2.13 22.392 15.63 28.29 9.25 3.063 48.28 3.123 56.41.788 15.49-4.45 16.93-16.335 16.77-28.16-.16-11.506-7.25-29.468-26.79-36.573-18.2-6.616-35.54-1.836-45.25 5.928-11.42 9.12-16.02 20.347-16.77 29.727z"/>
    <path stroke="#000" stroke-linecap="round" stroke-miterlimit="10" stroke-width="2" d="M66.12 58.91s5.32-3.672 9.44 1.537M51.97 58.7s-5.28-3.532-9.59 1.836M52.06 64.248s6.5 3.383 14.27 0"/>
    <path fill="#fff" d="M57.88 79.875s1.39 20.856 17.51 20.856 19.76-16.784 19.76-20.756"/>
    <path stroke="#000" stroke-miterlimit="10" stroke-width="2" d="M57.88 79.875s1.39 20.856 17.51 20.856 19.76-16.784 19.76-20.756"/>
    <path fill="#fff" stroke="#000" stroke-miterlimit="10" stroke-width="2" d="M95.2 79.885c0 2.425-8.35 4.39-18.66 4.39s-18.66-1.965-18.66-4.39 8.39-4.87 18.69-4.87 18.63 2.445 18.63 4.87zM94.3 85.593c0-.02.52.18.55.19.43.2.83.499 1.14.858.8.918 1.08 2.255.78 3.423-.67 2.584-3.55 3.333-5.9 3.313l-2.63 2.913c2.64.14 5.53.01 7.93-1.227 1.52-.788 2.69-2.056 3.24-3.682.51-1.527.55-3.223-.05-4.74-.53-1.337-1.62-2.405-2.77-3.243-.54-.4-1.12-.778-1.74-1.058 0 .01-.55 3.253-.55 3.253z"/>
    <path stroke="#000" stroke-miterlimit="10" stroke-width="2" d="M94.3 85.593c0-.02.52.18.55.19.43.2.83.499 1.14.858.8.918 1.08 2.255.78 3.423-.67 2.584-3.55 3.333-5.9 3.313l-2.63 2.913c2.64.14 5.53.01 7.93-1.227 1.52-.788 2.69-2.056 3.24-3.682.51-1.527.55-3.223-.05-4.74-.53-1.337-1.62-2.405-2.77-3.243-.54-.4-1.12-.778-1.74-1.058 0 .01-.55 3.253-.55 3.253z"/>
    <path fill="#E6B477" d="M92.61 81.731c-16.82-6.706-32.07 0-32.07 0l10.14 2.116 11.04.03 10.89-2.146z"/>
    <path fill="#E6B477" d="M92.61 81.731c-16.82-6.706-32.07 0-32.07 0h32.07z"/>
    <path stroke="#000" stroke-linecap="round" stroke-linejoin="round" stroke-miterlimit="10" stroke-width="2" d="M92.61 81.731c-16.82-6.706-32.07 0-32.07 0"/>
    <path stroke="#000" stroke-miterlimit="10" stroke-width="2" d="M95.2 79.885c0 2.425-8.35 4.39-18.66 4.39s-18.66-1.965-18.66-4.39 8.39-4.87 18.69-4.87 18.63 2.445 18.63 4.87z"/>
    <path stroke="#000" stroke-linecap="round" stroke-linejoin="round" stroke-miterlimit="10" stroke-width="2" d="M62.81 87.958s1.87 4.31 4.65 6.676"/>
    <path fill="#000" d="M69.14 96.74c.414 0 .75-.336.75-.749s-.336-.748-.75-.748-.75.335-.75.748.336.749.75.749z"/>
    <path fill="#FFD817" stroke="#000" stroke-linecap="round" stroke-linejoin="round" stroke-miterlimit="10" stroke-width="2" d="M37.49 37.715l-5.17.24L30.58 21l8.55.3-1.64 16.415zM28.32 39.65l-4.89 3.024-10.39-13.611 7.76-4.89 7.52 15.477zM21.03 45.668l-1.31 5.358L7 48.452l.12-7.674 13.91 4.89z"/>
</svg>
