<svg xmlns="http://www.w3.org/2000/svg" width="110" height="110" fill="none" viewBox="0 0 110 110">
    <path fill="#56E556" stroke="#000" stroke-miterlimit="10" stroke-width="2" d="M10.184 78.502c-.27 3.338-2.13 22.23 15.63 28.084 9.25 3.042 48.28 3.101 56.41.783 15.49-4.418 16.93-16.217 16.77-27.956-.16-11.422-7.25-29.253-26.79-36.307-18.2-6.568-35.54-1.822-45.25 5.885-11.41 9.054-16.02 20.199-16.77 29.51z"/>
    <path stroke="#000" stroke-linecap="round" stroke-miterlimit="10" stroke-width="2" d="M61.764 59.274s5.32-3.645 9.44 1.526M47.624 59.066s-5.28-3.507-9.59 1.822M47.714 64.573s6.5 3.359 14.27 0"/>
    <path fill="#228922" stroke="#000" stroke-linejoin="round" stroke-miterlimit="10" stroke-width="2" d="M85.886 76.276h4.6V60.838h-4.6v15.438z"/>
    <path fill="#228922" stroke="#000" stroke-linejoin="round" stroke-miterlimit="10" stroke-width="2" d="M81.104 108.76h14.15V77.805c0-2.23-1.84-4.046-4.1-4.046h-6c-2.24 0-4.05 1.796-4.05 3.997v31.004zM84.772 63.772h6.91v-4.113h-6.91v4.113z"/>
    <path fill="#fff" stroke="#000" stroke-linecap="round" stroke-linejoin="round" stroke-miterlimit="10" stroke-width="2" d="M81.368 102.03h9.46V80.719h-9.46v21.311z"/>
</svg>
