<svg xmlns="http://www.w3.org/2000/svg" width="110" height="110" fill="none" viewBox="0 0 110 110">
    <path fill="#0061FA" stroke="#000" stroke-miterlimit="10" stroke-width="2" d="M31.11 52.503c.78-1.163 1.64-2.276 2.58-3.328 9.35-10.536 25.93-12.621 38.6-7.569C85.35 46.82 91.13 59.63 92.97 72.872c1.19 8.51 1.63 19.207-2.16 27.196-3.39 7.158-11.46 8.782-21.12 8.782s-57.14.02-60.36.02c-3.22 0-4.49-2.025-4.52-3.599-.03-1.474.63-2.907 2.59-3.769 8.1-3.579 11.16-13.784 12.15-16.67 3.61-10.506 5.21-22.916 11.56-32.33z"/>
    <path stroke="#000" stroke-linecap="round" stroke-linejoin="round" stroke-miterlimit="10" stroke-width="2" d="M58.05 56.001l6.42 6.305M64.61 56.001l-6.42 6.305M75.45 56.071l6.42 6.306M82.01 56.081l-6.42 6.296M66.12 66.356l3.81-2.165 4.01 2.165"/>
    <path fill="#FC5C00" stroke="#000" stroke-linecap="round" stroke-linejoin="round" stroke-miterlimit="10" stroke-width="2" d="M100.21 60.283h-4.6v15.753h4.6V60.283z"/>
    <path fill="#FC5C00" stroke="#000" stroke-linecap="round" stroke-linejoin="round" stroke-miterlimit="10" stroke-width="2" d="M104.99 109.079H90.84V77.583c0-2.27 1.84-4.117 4.1-4.117h6c2.24 0 4.05 1.827 4.05 4.066v31.547zM101.33 59.079h-6.91v4.196h6.91V59.08z"/>
    <path fill="#fff" stroke="#000" stroke-linecap="round" stroke-linejoin="round" stroke-miterlimit="10" stroke-width="2" d="M104.73 80.565h-9.46v21.747h9.46V80.565z"/>
    <path fill="#FC5C00" stroke="#000" stroke-linecap="round" stroke-linejoin="round" stroke-miterlimit="10" stroke-width="2" d="M40.08 2H10.92C6.55 2 3 5.559 3 9.94v16.7c0 4.38 3.55 7.94 7.92 7.94h19.2l5.92 6.294V34.58h4.03c4.37 0 7.92-3.559 7.92-7.94V9.94C48 5.55 44.45 2 40.08 2z"/>
    <path fill="#000" stroke="#000" stroke-linecap="round" stroke-linejoin="round" stroke-miterlimit="10" stroke-width="2" d="M15.11 20.034c1.502 0 2.72-1.22 2.72-2.727 0-1.505-1.218-2.726-2.72-2.726-1.502 0-2.72 1.22-2.72 2.726s1.218 2.727 2.72 2.727zM25.67 20.034c1.502 0 2.72-1.22 2.72-2.727 0-1.505-1.218-2.726-2.72-2.726-1.502 0-2.72 1.22-2.72 2.726s1.218 2.727 2.72 2.727zM36.4 20.034c1.502 0 2.72-1.22 2.72-2.727 0-1.505-1.218-2.726-2.72-2.726-1.502 0-2.72 1.22-2.72 2.726s1.218 2.727 2.72 2.727z"/>
</svg>
