<svg xmlns="http://www.w3.org/2000/svg" width="110" height="110" fill="none" viewBox="0 0 110 110">
    <path fill="#0061FA" stroke="#000" stroke-miterlimit="10" stroke-width="2" d="M29.3 52.544c.78-1.164 1.641-2.279 2.581-3.333 9.35-10.552 25.93-12.64 38.6-7.58 13.06 5.22 18.84 18.052 20.68 31.315 1.19 8.524 1.63 19.237-2.16 27.239-3.39 7.168-11.46 8.795-21.12 8.795s-57.14.02-60.36.02c-3.22 0-4.49-2.028-4.52-3.604-.03-1.476.63-2.912 2.59-3.775 8.1-3.585 11.16-13.806 12.15-16.697 3.61-10.522 5.21-22.962 11.56-32.38z"/>
    <path stroke="#000" stroke-linecap="round" stroke-linejoin="round" stroke-miterlimit="10" stroke-width="2" d="M56.241 56.048l6.42 6.305M62.8 56.048l-6.419 6.305M73.641 56.119l6.42 6.305M80.2 56.119l-6.419 6.305M64.31 66.41l3.811-2.159 4.01 2.16"/>
    <path fill="#fff" stroke="#000" stroke-linecap="round" stroke-linejoin="round" stroke-miterlimit="10" stroke-width="1.5" d="M36.361 53.454c.47.77.94 1.51 1.39 2.259.97 1.63 1.9 3.268 2.69 4.998.43.93.84 1.879 1.02 2.889.24 1.339-.12 2.578-.92 3.658-1.17 1.59-2.78 2.299-4.73 2.119-2.16-.2-3.89-1.74-4.47-3.868-.32-1.18-.08-2.28.34-3.369.81-2.139 1.93-4.118 3.08-6.077.47-.81.98-1.6 1.47-2.39.02-.08.06-.13.13-.22zM44.59 69.607c.37.59.73 1.17 1.08 1.75.75 1.259 1.471 2.538 2.081 3.878.33.72.65 1.46.79 2.239.19 1.04-.09 1.999-.71 2.838-.91 1.23-2.16 1.79-3.67 1.65-1.68-.16-3.02-1.35-3.47-3.009-.25-.91-.06-1.77.26-2.619.63-1.659 1.5-3.198 2.39-4.718.37-.63.76-1.24 1.14-1.859.03-.04.06-.08.11-.15z"/>
    <path stroke="#000" stroke-linecap="round" stroke-linejoin="round" stroke-miterlimit="10" stroke-width="1.5" d="M90.021 70.277s3.07-5.228 8.38-5.228"/>
    <path fill="#EF0033" stroke="#000" stroke-miterlimit="10" stroke-width="1.5" d="M88.481 77.813c2.259 0 4.09-1.875 4.09-4.188 0-2.313-1.831-4.188-4.09-4.188s-4.09 1.875-4.09 4.188c0 2.313 1.831 4.188 4.09 4.188z"/>
    <path fill="#fff" stroke="#000" stroke-linecap="round" stroke-linejoin="round" stroke-miterlimit="10" stroke-width="1.5" d="M94.611 105.234V83.251h-3.68v21.983h-4.7v4.017h12.88v-4.017h-4.5z"/>
    <path fill="#fff" stroke="#000" stroke-linecap="round" stroke-linejoin="round" stroke-miterlimit="10" stroke-width="1.5" d="M77.851 73.645l11.24 13.585h6.95l11.35-13.705-29.54.12z"/>
    <path fill="#EF0033" stroke="#000" stroke-linecap="round" stroke-linejoin="round" stroke-miterlimit="10" stroke-width="1.5" d="M84.66 77.224l5.63 6.907h4.53l5.591-6.877-15.75-.03z"/>
</svg>
