<svg xmlns="http://www.w3.org/2000/svg" width="110" height="110" fill="none" viewBox="0 0 110 110">
    <path fill="#0061FA" stroke="#211816" stroke-miterlimit="10" stroke-width="2" d="M36.3 52.544c.78-1.164 1.641-2.279 2.581-3.333 9.35-10.552 25.93-12.64 38.6-7.58 13.06 5.22 18.84 18.052 20.68 31.315 1.19 8.524 1.63 19.237-2.16 27.239-3.39 7.168-11.46 8.795-21.12 8.795s-57.14.02-60.36.02c-3.22 0-4.49-2.028-4.52-3.604-.03-1.476.63-2.912 2.59-3.775 8.1-3.585 11.16-13.806 12.15-16.697 3.61-10.522 5.21-22.962 11.56-32.38z"/>
    <path stroke="#000" stroke-linecap="round" stroke-linejoin="round" stroke-miterlimit="10" stroke-width="2" d="M63.251 56.048l6.42 6.306M69.81 56.048l-6.419 6.316M80.651 56.119l6.42 6.315M87.21 56.119l-6.42 6.315M71.32 66.42l3.811-2.169 4.01 2.169"/>
</svg>
