<svg xmlns="http://www.w3.org/2000/svg" width="110" height="110" fill="none" viewBox="0 0 110 110">
    <path fill="#0061FA" stroke="#000" stroke-miterlimit="10" stroke-width="2" d="M30.11 52.468c.78-1.164 1.64-2.279 2.58-3.333 9.35-10.552 25.93-12.64 38.6-7.58 13.06 5.22 18.84 18.052 20.68 31.315 1.19 8.524 1.63 19.237-2.16 27.239-3.39 7.168-11.46 8.795-21.12 8.795s-57.14.02-60.36.02c-3.22 0-4.49-2.028-4.52-3.605-.03-1.475.63-2.911 2.59-3.775 8.1-3.584 11.16-13.805 12.15-16.696 3.61-10.522 5.21-22.962 11.56-32.38z"/>
    <path stroke="#000" stroke-linecap="round" stroke-linejoin="round" stroke-miterlimit="10" stroke-width="2" d="M57.05 55.972l6.42 6.305M63.61 55.972l-6.42 6.305M74.45 56.042l6.42 6.306M81.01 56.042l-6.42 6.306M65.12 66.334l3.81-2.159 4.01 2.159"/>
    <path stroke="#000" stroke-linecap="round" stroke-linejoin="round" stroke-miterlimit="10" stroke-width="1.5" d="M90.83 70.235S93.9 65 99.21 65"/>
    <path fill="#EF0033" stroke="#000" stroke-miterlimit="10" stroke-width="1.5" d="M89.29 77.78c2.259 0 4.09-1.877 4.09-4.193s-1.831-4.193-4.09-4.193-4.09 1.877-4.09 4.193 1.831 4.193 4.09 4.193z"/>
    <path fill="#fff" stroke="#000" stroke-linecap="round" stroke-linejoin="round" stroke-miterlimit="10" stroke-width="1.5" d="M95.42 105.206V83.223h-3.68v21.983h-4.7v4.017h12.88v-4.017h-4.5z"/>
    <path fill="#fff" stroke="#000" stroke-linecap="round" stroke-linejoin="round" stroke-miterlimit="10" stroke-width="1.5" d="M78.66 73.607L89.9 87.206h6.95l11.35-13.72-29.54.121z"/>
    <path fill="#EF0033" stroke="#000" stroke-linecap="round" stroke-linejoin="round" stroke-miterlimit="10" stroke-width="1.5" d="M85.47 77.189l5.63 6.915h4.53l5.59-6.885-15.75-.03z"/>
    <path fill="#FC5C00" stroke="#000" stroke-linecap="round" stroke-linejoin="round" stroke-miterlimit="10" stroke-width="1.5" d="M39.08 2H9.92C5.55 2 2 5.552 2 9.925v16.671c0 4.373 3.55 7.925 7.92 7.925h19.2l5.92 6.284v-6.284h4.03c4.37 0 7.92-3.552 7.92-7.925V9.926C47 5.551 43.45 2 39.08 2z"/>
    <path fill="#020202" stroke="#000" stroke-linecap="round" stroke-linejoin="round" stroke-miterlimit="10" stroke-width="1.5" d="M14.11 20.012c1.502 0 2.72-1.219 2.72-2.722s-1.218-2.722-2.72-2.722c-1.502 0-2.72 1.219-2.72 2.722s1.218 2.722 2.72 2.722zM24.67 20.012c1.502 0 2.72-1.219 2.72-2.722s-1.218-2.722-2.72-2.722c-1.502 0-2.72 1.219-2.72 2.722s1.218 2.722 2.72 2.722zM35.4 20.012c1.502 0 2.72-1.219 2.72-2.722s-1.218-2.722-2.72-2.722c-1.502 0-2.72 1.219-2.72 2.722s1.218 2.722 2.72 2.722z"/>
</svg>
