<svg xmlns="http://www.w3.org/2000/svg" width="110" height="110" fill="none" viewBox="0 0 110 110">
    <path fill="#0061FA" stroke="#000" stroke-miterlimit="10" stroke-width="2" d="M39.57 63.035c.64-.946 1.34-1.853 2.11-2.72 7.67-8.591 21.26-10.296 31.66-6.17 10.71 4.246 15.45 14.69 16.97 25.494.97 6.937 1.34 15.657-1.77 22.175-2.78 5.831-9.4 7.166-17.32 7.166s-46.87.02-49.51.02c-2.64 0-3.68-1.654-3.71-2.93-.02-1.206.52-2.372 2.12-3.07 6.65-2.92 9.16-11.242 9.97-13.594 2.96-8.57 4.27-18.697 9.48-26.37z"/>
    <path stroke="#000" stroke-linecap="round" stroke-linejoin="round" stroke-miterlimit="10" stroke-width="2" d="M61.67 65.895l5.27 5.133M67.05 65.895l-5.26 5.133M75.95 65.945l5.26 5.143M81.33 65.945l-5.27 5.143M68.29 74.327l3.12-1.764 3.3 1.764"/>
</svg>
